<mxfile host="app.diagrams.net" modified="2023-02-25T15:49:16.521Z" agent="5.0 (Macintosh; Intel Mac OS X 10_15_7) AppleWebKit/537.36 (KHTML, like Gecko) Chrome/110.0.0.0 Safari/537.36" etag="aJIWFN0P7d9JBkO_KFar" version="20.8.23" type="github">
  <diagram id="C5RBs43oDa-KdzZeNtuy" name="Page-1">
    <mxGraphModel dx="1434" dy="802" grid="1" gridSize="10" guides="1" tooltips="1" connect="1" arrows="1" fold="1" page="1" pageScale="1" pageWidth="827" pageHeight="1169" math="0" shadow="0">
      <root>
        <mxCell id="WIyWlLk6GJQsqaUBKTNV-0" />
        <mxCell id="WIyWlLk6GJQsqaUBKTNV-1" parent="WIyWlLk6GJQsqaUBKTNV-0" />
        <mxCell id="uXov4pzuhe1dhY30T7Ek-0" value="" style="edgeStyle=orthogonalEdgeStyle;rounded=0;orthogonalLoop=1;jettySize=auto;html=1;" edge="1" parent="WIyWlLk6GJQsqaUBKTNV-1" source="WIyWlLk6GJQsqaUBKTNV-3" target="uXov4pzuhe1dhY30T7Ek-18">
          <mxGeometry relative="1" as="geometry">
            <mxPoint x="220" y="170" as="targetPoint" />
          </mxGeometry>
        </mxCell>
        <mxCell id="uXov4pzuhe1dhY30T7Ek-16" value="" style="edgeStyle=orthogonalEdgeStyle;rounded=0;orthogonalLoop=1;jettySize=auto;html=1;startArrow=none;" edge="1" parent="WIyWlLk6GJQsqaUBKTNV-1" source="uXov4pzuhe1dhY30T7Ek-10" target="uXov4pzuhe1dhY30T7Ek-14">
          <mxGeometry relative="1" as="geometry" />
        </mxCell>
        <mxCell id="WIyWlLk6GJQsqaUBKTNV-3" value="index.php" style="rounded=1;whiteSpace=wrap;html=1;fontSize=12;glass=0;strokeWidth=1;shadow=0;" parent="WIyWlLk6GJQsqaUBKTNV-1" vertex="1">
          <mxGeometry x="160" y="80" width="120" height="40" as="geometry" />
        </mxCell>
        <mxCell id="uXov4pzuhe1dhY30T7Ek-22" value="" style="edgeStyle=orthogonalEdgeStyle;rounded=0;orthogonalLoop=1;jettySize=auto;html=1;" edge="1" parent="WIyWlLk6GJQsqaUBKTNV-1" source="uXov4pzuhe1dhY30T7Ek-14" target="uXov4pzuhe1dhY30T7Ek-21">
          <mxGeometry relative="1" as="geometry" />
        </mxCell>
        <mxCell id="uXov4pzuhe1dhY30T7Ek-26" value="" style="edgeStyle=orthogonalEdgeStyle;rounded=0;orthogonalLoop=1;jettySize=auto;html=1;" edge="1" parent="WIyWlLk6GJQsqaUBKTNV-1" source="uXov4pzuhe1dhY30T7Ek-14" target="uXov4pzuhe1dhY30T7Ek-21">
          <mxGeometry relative="1" as="geometry" />
        </mxCell>
        <mxCell id="uXov4pzuhe1dhY30T7Ek-31" value="" style="edgeStyle=orthogonalEdgeStyle;rounded=0;orthogonalLoop=1;jettySize=auto;html=1;" edge="1" parent="WIyWlLk6GJQsqaUBKTNV-1" source="uXov4pzuhe1dhY30T7Ek-14" target="uXov4pzuhe1dhY30T7Ek-30">
          <mxGeometry relative="1" as="geometry" />
        </mxCell>
        <mxCell id="uXov4pzuhe1dhY30T7Ek-14" value="// 注册自动加载 Loader::register();" style="rounded=0;whiteSpace=wrap;html=1;" vertex="1" parent="WIyWlLk6GJQsqaUBKTNV-1">
          <mxGeometry x="320" y="200" width="120" height="60" as="geometry" />
        </mxCell>
        <mxCell id="uXov4pzuhe1dhY30T7Ek-10" value="载入Loader类&lt;br&gt;thinkphp/library/think/Loader.php" style="rounded=0;whiteSpace=wrap;html=1;" vertex="1" parent="WIyWlLk6GJQsqaUBKTNV-1">
          <mxGeometry x="520" y="75" width="240" height="50" as="geometry" />
        </mxCell>
        <mxCell id="uXov4pzuhe1dhY30T7Ek-20" value="" style="edgeStyle=orthogonalEdgeStyle;rounded=0;orthogonalLoop=1;jettySize=auto;html=1;" edge="1" parent="WIyWlLk6GJQsqaUBKTNV-1" source="uXov4pzuhe1dhY30T7Ek-18" target="uXov4pzuhe1dhY30T7Ek-10">
          <mxGeometry relative="1" as="geometry" />
        </mxCell>
        <mxCell id="uXov4pzuhe1dhY30T7Ek-18" value="加载基础文件&lt;br&gt;thinkphp/base.php" style="rounded=0;whiteSpace=wrap;html=1;" vertex="1" parent="WIyWlLk6GJQsqaUBKTNV-1">
          <mxGeometry x="320" y="60" width="120" height="80" as="geometry" />
        </mxCell>
        <mxCell id="uXov4pzuhe1dhY30T7Ek-25" value="" style="edgeStyle=orthogonalEdgeStyle;rounded=0;orthogonalLoop=1;jettySize=auto;html=1;" edge="1" parent="WIyWlLk6GJQsqaUBKTNV-1" source="uXov4pzuhe1dhY30T7Ek-21" target="uXov4pzuhe1dhY30T7Ek-24">
          <mxGeometry relative="1" as="geometry" />
        </mxCell>
        <mxCell id="uXov4pzuhe1dhY30T7Ek-29" value="" style="edgeStyle=orthogonalEdgeStyle;rounded=0;orthogonalLoop=1;jettySize=auto;html=1;" edge="1" parent="WIyWlLk6GJQsqaUBKTNV-1" source="uXov4pzuhe1dhY30T7Ek-21" target="uXov4pzuhe1dhY30T7Ek-28">
          <mxGeometry relative="1" as="geometry" />
        </mxCell>
        <mxCell id="uXov4pzuhe1dhY30T7Ek-21" value="// 注册系统自动加载 spl_autoload_register($autoload ?: &#39;think\\Loader::autoload&#39;, true, true);" style="rounded=0;whiteSpace=wrap;html=1;" vertex="1" parent="WIyWlLk6GJQsqaUBKTNV-1">
          <mxGeometry x="520" y="200" width="240" height="60" as="geometry" />
        </mxCell>
        <mxCell id="uXov4pzuhe1dhY30T7Ek-24" value="" style="shape=image;imageAspect=0;aspect=fixed;verticalLabelPosition=bottom;verticalAlign=top;image=data:image/png,iVBORw0KGgoAAAANSUhEUgAAAggAAACpCAYAAABOI8UBAAAAAXNSR0IArs4c6QAAIABJREFUeF7sfQV83MeV/3eZBStmZrBsmTFmjB1skiZN2qbJla5waXvX+/eatrkr05WS0rVpw2mDju04ZgZJFksWM+NKWt7V//OevLJkiuRItizPtPl4tb+ZN2++MzvvO29m3k8Sl5AwDJEEAgIBgYBAYNYgEBkejsbmZgwPi+l91nTqTWiIRBCEm4C6qFIgIBAQCEwjAoIgTCO4t5FoQRBuo84WTRUICARuDwQEQbg9+nm6WykIwnQjLOQLBAQCAoEbjIAgCDcY8Fla3aQJgkwmg1QigcPphFQqBf3tdDov2+tSKBRwOBwMm0QigUqlgsvl4r893+v1egwODo6DVqlUQi6XszytVovu7u5ZCr1olkBAICAQmB4EBEGYHlxvN6mTJggR4eGwWq3o7OqC0WiEQa9HQ2PjOIKQkpyMoaEhWCwWkMFvaW2Fl8HApCIsNJSf2R0OJCcmorauDn39/YiKikJ1dTXLI7lEEIhUnK+oGCUUt1vniPYKBAQCAoHrQUAQhOtBTZS5FIFJE4ToqCiYBgbQ09MDf39/aDUaJghj07133w2z2cxfkfE/m5ODJUuWYNjtRktLC/r7+7msn9GIsvJyDJnNiIuNRV19PXsPYqKj0d7RMeI9GB6G84LnQXSfQEAgIBAQCHw4AoIgfDhGIseHIzApgkAuf38/PyYEtG2QmJDAK/xL07q1a3Ho0CH+OjExkfMQsWhrb+d/6+vrERoairCwMJw+fRo2ux3kmaDnRl9f9Pb1sQeBiAKVdbvdH94SkUMgIBAQCAgEGAFBEMRAmAoEJkUQfLy9ERQUxEabVvpzMjORm5d3mR5bN29GaVkZf+/j44Oi4mJkZmTw1gJtMeQXFCAwMJBJgN1uZ2KQkpQ0QiSioyEBOG9ScjKqqqpQVV09FW0VMgQCAgGBwG2BgCAIt0U3T3sjJ0UQ6OChTCqF1Wbjw4kqpRJmi+UyJclLQB4GSrR90NnZyecJ6BuJVMr/KpRKPsvg7e3NWw4BAQFoa2uDr68vbFYrNBoN56UDkFReJIGAQEAgIBCYGAKCIEwMJ5Hr2ghMiiAIMAUCAgGBgEBg5iMgCMLM76NbQUNBEKawl1atXoUeU+8UShwvirwyhTkF0yZfCBYICARmBwKCIMyOfrzZrRAEYQp74D+f/iZ+u+svUyhxvCiVQomOEw3TJl8IFggIBGYHAoIgzI5+vNmtmBKCIJMArgvvBNHIAbkEGBiJkQS1HAjUStBgmtqXhqhkEgSR3IFr33BQyQCZFDBf0GcygMslw4j1laOiZyTA04elyRIEqUQKmUQKh9v5YaL5uUahRtuJOkRExUKpUqO6ohQKmQISiRR2p21UhkKm5O/N9qEJyaVMXt6+yJi3EMcPvj/hMiKjQEAgMDMREARhZvbLrabVpAiCVALQf0QG6KChm/6VAOn+MpR1uyhkATRKCZ6cq8bPT40cXiTyQInK0GfK77zEpo+V66OWYG2MAm+U2VkeGXeqh9K3V2nwzGEL/01lRuVKR/S5VG68UQajWoKaXie6LQCJuXB2knUhOfSfXMrhFvj5/1uuwfePjamD2user/vV2kEE4dndz/PtDPqfJ0kgQbpvKop7S/l7ikRJ9RFBCNEEocncwlkpH+nnHh4e95meUd4gbQCqjpdi0fI1bMhlUhnWZ+1Abdt5NPU0wGq3YHjYDZVCjYyobJypPMpyqSxtT7jcrtHP7uGRTqBn9Jl0XrhsNUz9vSgvzr/VxrHQVyAgEBiDgCAIYjhMBQKTIghroxQINUiQ2+ZEoE6GE40ORHpL4aOWItlfipYBN040OfGZLDV+k2Nlwzs/RI4QvRR7axxYEi5DqEGGV0qssLsuWHgAWUEybE9S4m+FNsT5ypAdIsfuCjvqTC58fakGOS1ONPa78ViWCq8W21He5URGoAJGjQTv1zhwR5QcfhopXi+zwXZhsa+WS/DpLBUCdBLU9LhwpN6JlsFh1tPuHMaicAVKOpxoNA1jc4ICFV0u9FmH8Zl5KrxV7kBplxMJRhkygmR4vsCGFRFyBOvlONpgQ6SXDJE+MhystaF1zCL9u9/7Dg6eOIGmoRb0202wu+3Qy/VQy1SINkSiYbAR/fYBhOpC4HQ70W7pgK/Kh/+lFKD2h16uQ7ulCxq5ChG6MFSaatiAh2qD4IIbZccLcf8jT+DFP/+aicbSlHUobypE90An1s/Zjra+ZpQ25iMtIgsFdWdZ7orUDQg1RuCDgrcRG5iEyIBYHCreA2+dLxYmrMTR0r1o6Wlg4mHq60VZ8bmpGFtChkBAIHCTEBAE4SYBP8uqnRRBmB9M7nYnwgwy0Eq/uNOJQO0IQSjrdiJAK4HJBjyUrsLvcqyjUN2dpMTRBieUsmEM2Ifhq5aiwXTRjRCikyDWV4YBO1Df78La2BEPwvIIOSzOYahlQEGHG08tUeO7hy9eq7wrUYnDDQ5e/RIxCNRJUd9/UW6iUcYegqpeFyIMEvTZgBC9hL+r7Xcj1kcGhQSo7nNze6iuf12gxv8cu1jHE/NUeKnIDoUUsLmGMTdYjpJOFywONxaEy3G84eL2w9Pfexp/2/sa5BI5+uz9cA27oJKqmCgkeyeiuK+Un7kxzFsLGpkGGrmaCcKI90DKHoAQTTAsLisTAIVUgQ5rF7s4gnSBqDlZhnsefByvPP87eGt9YXNYkRKRhfqOSgxaB3hrQa3UINQYhaL6HOg1XvA3BEEmlUOj1KDL1A69xps/N3bVIsgnDAq5AsX1eSMEob8XZUWCIMyy37lozm2GgCAIt1mHT1NzJ0UQlocrEKiTIL/didbBYXxqjgrHGh0wO4Zh1Eh5RU+eAr1SgkfSVSjvdiLaW4ZgvRQnm53s1k/2l+GPedbRlT61K9pHinuTlHi11I7WQTcWhY68EIoM8YPpKhxvdKCyxw0/NbAsUoGzLU6sjx3xIJBngIx7nFGK3+de9CCQ3EgvKTv6G01uBOsluCdJiZ2VDrjdw2gdGmay0GMFHstUorrHjf31DviqJNgSr8TBOgfWxMgR5S3DySYnbzMk+cvwfCEZbsDqHEaKnxxFnRcJwne+9zTeObQXfbY+9Dj6kGhIQI+9B53WLmhkagRrgtBsbkWYLpS7s36wgYlBgncchhxmWJ1W+KmNqDRVw0fpDZ1ciyHnEMwuK4LUgbAOW1FxuBBzFyzj91OUFuRiQ9YOdPS3oqD2DNZkboHFZsHJikO8dbBhzg72KMhkctgdVvSbeyCTKpAWMRd7C96Cl8YHixJX4Xj5ftgldiy9YwMOf/AuLBfCZE/TmBNiBQICgWlGQBCEaQb4NhE/KYKQZJTh/AQP7N0m+I1r5mQPKU4WI3GLYbKIifwCgdsTAUEQbs9+n+pWT4ogTHXls03e1/7jazhRPrLvPx1JLpXhyBsHpkO0kCkQEAjMIgQEQZhFnXkTmyIIwhSCHx0TzWcLpjNV19RMp3ghWyAgEJgFCAiCMAs6cQY0QRCEGdAJQgWBgEBAIDCVCAiCMJVo3r6yJk0Q6KQ7HYA7eXTf7YuaaLlAQCAgEJjBCAiCMIM75xZSbdIEISE5HX293ehsb72FmilUFQgIBAQCtw8CgiDcPn09nS2dFEFITMlAeFQMzp44ggFT33TqJWQLBAQCAgGBwHUiIAjCdQInio1DYFIEgUqmpM9Db08n2loaBZQCAYGAQEAgMAMREARhBnbKLajSpAlCdFwiBgcG0NUhthhuwf4WKgsEBAK3AQKCINwGnXwDmjhpgnADdBJVCAQEAgIBgcBHQEAQhI8Anig6isCECQKFPqa3DIokEBAICAQEAjMbAUEQZnb/3CraTZggaNVqmK0XX8B0qzRQ6CkQEAgIBG43BARBuN16fHrae0MIglajgcvths1mg0at5pZYLiEbEomE38o4NpHXgtJkPRdUiiRRefrXI1cul8PtdvN/E01KpRKBAQFoam4eLULfuV0uOF0XX9Q0UXnXm08mlTIO1DYPHoRZSHAwXC4XqG3NLS3XFB8REYHm5uZx7ZdKpUiIj8f5igouGx4Whta2Nvj6+MBsNsNssUAuk0Gn14Pq6+/vH4en0+m83iaJcgIBgcA0ISAIwjQBe5uJvSEEYf3atThw6BAbsjV33IEjx45hrGExGo0IDAxEe3s7ent7R7tAp9OxwfIYr4n0TUR4OMgQnjx1CsFBQbBarejtG7mSScaQyMKlRORqcvU6HeLi4mCxWDA0NMQG+I6VK6FWq9lIE0k4ePgwy6W3K37UdC39fLy9kZmRAa1Wy/qXlJWhjQy5ry/mz5vHGNXU1l5VhbjYWAyZzVAqFEx2fHx8EBoaygdO52ZloaurC/kFBSzfNDDARIRInd1uR1pKCry8vED9RHgePX4cMTExUCrkcDhdnLehoQGDQ0MfFQJRXiAgEJgCBARBmAIQhQhMO0GgVeeqlStx6PBhXoEuX7YMR48dGwc9GXIyjrRyNeh0WL9+Pc7m5KChsRFzMjNRUFjIK+S7d+xAa2srTp0+jU0bN7LhJllLFi9mA/b+Bx8gNSUFaampePHllxHg78/GtKu7m41bRno6zp07x0burh072CDSuw3uu+cenD9/HkXFxWwUKZExptUyyaY0MDDAhnHh/PnIyc1lQkCy7Q4H5mVlISQ0FO+99x6io6ORPW8e3nr7bXh7e3N7T5w4gb7+fmzdsoXL1jc0jLZfpVLhzq1b0dLaym1efccd5PLAgYMHsXDBAgQEBGDX7t0st7u7m418SlISCoqKoJDLoVAqsWHdOpzJyWHvAGF8aVq8aBHyzp2DTCaDRCrFsiVLcODAASxbtowNu0qtZi9CeXk55mdn492dO7Fl82aUlJYydmGhoUzcqI8oP3lOCGPyLjQ2NmLB/PlMyCZKvMTvTiAgEJheBARBmF58bxfp004QyCiT4aVEq9jGpiZelY5N5CkgVzm5tMk4tra38yqdDDkZaiII3l5eCAwKYqJARik9LY0NYmdXFxu3wcFB/kxGWafRoKGpCQa9fpQgUH2eFbNcoWDyQFsNdfX1bIhra2u5vMcTQIbW388P4eHhMJlMgETCebZt2cJ1kQdh2O3G8ZMn2fA67HYkJSWxITX6+jJx6Ozs5JU2rdjtVisioqJgt9lQW1fHHhQy5UqViuskDHRaLdo7Otjw+/n7o6Ojg70U8fHx/JlITnRUFAwGA87m5vLqn/QgDw39TXjQdgjp40lEooicUCLvAGMM8LZBYmIik7CMjAwMDQ6yB4I9LG43bwERISCMNm3YwHpRv1GfkOeCiBM9t9ps3A7yYBDBE0kgIBC4+QgIgnDz+2A2aDCtBIGMLLm/yXjR55TkZF6x01mEsYkMd1BAABshcuUTkejo7GSXPhloMrg9PT3jtiFiY2OZLJBhCg0J4TzNra1wOZ1smLPmzGE3PBlUcquT8UpJSWGvAxEMWpn39fXx9+SlIKNPhnsseaFVMhljMqYOp5NX/1s2bUJPby8bTjKkOXl5bNhphU+eAdq7p/y0yibCkZyUhLb2djbwSYmJ7AGhVTkRAjpXYLPbQWc0yANRV1vLhpkIgtHPj70WVKayqorr4K0Nt5u3UMj7QVsDBQUFyM7ORllZGeN3rTSWIFAd5NE4V1AA2kohzwJhQDgSySHSQgSAdCcCRd4L0oMSncGIvUB8CMPg4GAmdpRXJIGAQODmIyAIws3vg9mgwbQSBAJIoVCMrsrJoNM5hEtd0bTiVatUbBzpmUajYUNNq2wyUh5vAn9vs7Hxpc9klMjNTc9JBhl/yk/l6Dn9TS58zwqfVuskn1bRZJRplU/6kOF0OhxsrMcmkuE5AEjlaPVMeUfd+MPD7PKnv0kHkkuGVyaXsw5Uhr4nPa7ULirnIROEE8mnRN+Tzp7yRJo4r1w++oxIlgcXKkv6e7ZHrjYwxx4Epc9EOggDj8eBdPb0kUcGEQUiBJQ85Mmji2ebhdpABGMqzmHMhh+VaINA4GYjIAjCze6B2VH/tBOE2QGTaIVAQCAgELh1EBAE4dbpq5msqSAIM7l3hG4CAYGAQOA6EBAE4TpAE0UuQ0AQBDEoBAICAYHALENAEIRZ1qE3qTnTThCkEkCnAAbGb+9f1txV67ehOP8sujvboZJRMCDAMfF4RuPkPfKZL+GFP/1qyiF9fN1X8Od9v5xyuWMFxoWkoLq17Kp1KJQqfO3bP8a+997A2ZOHp0wXo38g/u1bP8SLf/o1yorP4fEv/jv+/Jsfsfz//O9f4fvf+tIV6/rOT/+EA3vewJF9u6ZMFyFIICAQ+GgICILw0fATpUcQmFaCQOQg3EsKiwMwO4exJU4Bmxso6XCiuvei9Q+PioXRLwCFeaeZHIQYZGgbdMPuGkayvwxdZje6zCOfTbZhtAy4EesjgxvD6BwaxqOZKuyrdaB1wI3k+atQVVmGns52+KolCNJLUdPrgkwCRPnI0NDvhkElwfwQOd6rtCPMIMWGWAUaTG7ktjqh8A7hg4Adbc2sk0anR3NDLTbNvQehflGoa69ATvVxeGl8MGg1we6wwc8QgNY+irQ4jGCfML562NrbhDBjJGxOK3oHuxHqGwGLw4wBSz/89AFYlrIWrx3/C/wMgVAr1GjuaYC31pdl1bRXQK82wKChGxFydPS1wM8rEE6XE32WHmy5+0G89erzkEmkuGfpo8ipOo6WnkYE+YTC5rByHZlR83GqYoRA+HsFQqsyoKGzmuvQa7zQ3tcChVzJunSa2rjc4uVr0d/fi7KiPNBbOyOj43Fk/y5odXpsvutB/PPFP132u/nuz/6Ip596QvyeBAICgRmEgCAIM6gzbmFVppUgyKXA3GA5wg1SHG104sE0JRv+si4XSjovhilOSMlAUHAYjh3cA4NSglVRChR3ONFscuM3W3R4vsCGnBYn/rxdj1dKbDjb7MSnskaiGe6qcmBrghI5rU6UdjiRte5jKMg5idbmBtwRJceaaAV+esqKGG8p7k9VYW+NHcebnFgbreTPc4Lk2JqgQF6rk2X4RqVDKpHifGkBomIT4Gv0R37OSUQHxmN5yjq8dvz/EOwbzoa9o78VFtsQ1EotWnoaYFAbEB+ahgCvYBwoeg9PrP83nKk8ipKGc/jc5v/AyfMHUdqYj7sWPYJjZR+gpu08ksMzUd5UyEMoxBiB9Znb8bdDv0WQdygCfUL4+bHSfVibuRUFdWdxvrV4lCBQKOnUiCzYnDZUtZRhfvwyDFj7cb6pGJnR8zk/pSXJq5EYmoa9595EVGA8YoKS8MbJvyHCPwbLUtbhnTMvo3ewaxxBiIlLQmRMAg7v28kEYevdD+P1F34/bqinzZmPBUvvwF+f/ekt/BMQqgsEZh8CgiDMvj69GS2aVoLgadDdSUq8ed7OK/UTTU4M2se/cyEhOR2BwWE4fuh9LhLvK4PTPYz6fjcivKXwVkp4he+tlkAjk8BbNfI3bUEM2t34WKoSLxbbeVti450fQ0HuSbS1NEKvpLxAolGOhn4X+u2AwzWMQcfwKEGg+u5JVuKN8qvvgQT7hkGtoCuPTqiUGvSbezFkHYBUKkeAVyC8tUbk155GREAsuvrboZSrYDL3wt87aHRF7+8VBKfLAaVcDblUhiHrIPrMPbhr8SN469QL3G4y+GS86zoq4aX1hd1pY7JitZt55T9kG4QLrlGCQN6KLlM7UiPnspehra+Z8+nUBgR4BTFB8NX7Q6VQwWwbQqR/LGraz0MpUyIzZgFOVxyGVqlHcngGTp4/NJ4gxCePEIQP3oVWZ8C2ex7Ga39/btwY9fLxxeef+g5++F9fvhljV9QpEBAIXAUBQRDE0JgKBKaVIER6SfFkthp+GgkO1DnRMeRCTosLQ47xBIHu8a9cuxXnzp5AqqYHj8xRYcA2jP86ZMHP1+uwu9qOdyvs+N1mPfLbnfhDnhX/tlgDlXwYPzhmhVIqwS83afGzk1Y0mRW475En8eKff4XFYXI8OkeNb+wb4m2FLy9U40/nbKjqcWFOoAwPZ6rww+MWzkeeCEpxianw9vVD3umjiIiOA62kj+7fjQ1zd0ClUOOdM69gbuwixAQl4o2Tf4daqcHq9M3o6G9DVUsp1s+9C/sL3mU3/+Prv4pT5w+hpP4cntj0FEobCtjgn6k6yhESVUo1x214cPlnUFSfi/SobI5KuL9wJyQSKcL8onCoaBcCvYKxbeFDePv0S+g1d2Hdlrux++1XWd9Pr/syewyOl+/HI3d8nokJeQQoPbnha6hqK2fiAUh4i4HIw+LEVXh2z4/YK7Jp3r146cjvYTL3IXvRCgyY+lBRVoQ7738U+3b+AxaLGQ8//iW8/dpfMThgumzMfeO7v8CPn/7qVIxFIUMgIBCYIgQEQZgiIG9zMdNKECaDrecNjJMpc9W8ZBAveTPkR5VL2wpd/W1wum/+2wuJUFEAp8m8lfLD2k/nLhRyBZ9zILmXBlW62nsWiOAQ+XC7b9ybLT+sLeK5QOB2R0AQhNt9BExN+2cMQZia5ggpAgGBgEBAICAIghgDU4HAtBEEes8AhfClUL4iCQQEAgIBgcCNQ0AQhBuH9WyuafoIgkzGLyO63QgCudzphAW9yOlaydcvAL3dnVM+tnz1fnytcjoTHcKkA5RXSxqNFtS+1uZGDA+7+dwFvyWSkbn+5OXtC/qvqaHmmkKoPtoicX3EbQ+VSs1v2xwwjbwNUySBwK2CgCAIt0pPzWw9bymCsDJKjiP1H/0MQHBoBF/dq6m8ekCiiXZbZEw8LEND6Oxo5SIqtYbJgd1+dQNK1yfpIGRh7qkrVjMSs0GKXuswei3DUMqAIJ0UDhfQNnR14kGHD+lGw568N/japSfRwUStUsfxDiaavLQ+MGi80dxdD6Pen40t3d6gFOQThnaO+3DllJI+F4mpmdj5zxehUWj4QCddCaXYC55EtzS8tCPyr3a+4VLpMfHJuP8TT+LHT//bNZuRHbcU/UO9qOus4psjlDQqHd/soPomShx8fP2Qmb0YeaePYXBAkISJjh2R7+YjIAjCze+D2aDBjCMIwToJHslU42CdA4XtDr6tQHELdHIJ7k1VMkE41+JERa8LWgX4KuOqKCXHT6CbDvNCZMgMkuP7xyzj+icoJBzb738Uu958GQOmXsxduByHP9jJb5t87HNfR3nxOZw4vBeP/ctTaG9pxIH338LmHQ/xCvLt156H1WJmebQynTN/Kd///+Ovf4CY2ESWQSf/fXyM2LD9fhw9sBsdLU349Be/idzTR5B/9jge/+J/oLqiFMcO7MZnvvRNPPfzZzDsduGRDCUCdFL8LseKVZEKzAmS4SenrEj2k/FtDwrsRNc4s4LlMDuG8YMTdqzdfDfqqitQUVYIikBpNZtx+vgBPLXjGVS0lOBQ8S6ObyCXyjkGAwVtkkplMNsGOW5CVEAsX6M8XrYPmdELMGQbQG7VSazJ2AqTpQ9HSt7H+qztLKu2vRIGtRcbVbN9CBvn3g2lQoV3z7zC+QkPOrg5aDHBW2fkK5m9il5YLRbUVpUjwDsYCSGpKKrP4Suf9yx5FPk1p1HXUYWE0FTWzz3sxkMrnkB7fzOOle7Huqw74XQ4cbryCNKj5sJX588xJLoHOvAvX/kWfv/L/77mb4/iTJw6f5BJyceWPY7m7lrk1Z5GbGAizrcUwe60Y23mNnjrfbE37y2ONRHsE46CujN8KyUlfA7rVd1WzliXFuWhs6Wer+k2D7hR0C4OZM6GyW82t0EQhNncuzeubTOOIPhpKDSzFL4aCTRSCZIC5Oi3unGw3oGvLlHjO4csiDBI0W52w4viHKglUEqB8m431sTIkdfqgtUJpAbIODKiJ0VExqKxoQYKpZKvGC67YyNHCaRXM6/fci9fBTx76jAe/8K/Y8+7r6H43Bl88rNfQ2lxHk4d2T96Sp8MIq1kM+ctRkdrI2qrK6AzeKGqvJirSkqbA5vVgsb6GmzYei9/d/LwB/jsU09j5z9fQElhLr7xnZ/hR9/+Kl9p/MoiNYo73Thc70B2iByJRhm6LCOBpJxuoMnkhlEjQbBeitIxwaUuHSJEANRyFbYteABvnX6RbxY4nHYmCXNiF6KwLoe3BSgyI91SWD9nOyrbypAUloEDhTs5zsOGuXfhg/y32VPwsWWfxpunXmAZ67N2YG/+W6NV3rP4Ubx56u/QqnSw2M3Ijl/Gn11uJ46X7UdyetYoQaD6KWokkZTKllK+Kko3JSgvGebzzUUsNzt+KXss6KroirQNKG8qxrnaU9iQtQOD1gGcLD/AJGUsQbjSzRfqn/jgFEQFxuFwyfvw1RrRPdhJQS6ZkFAcCIfLwYGjwvyi0TvYyXEsJJDgSOleJlAUQGpfwdtMJNZs3I6y4nwOvEX1UfpoGyU37sctarp9ERAE4fbt+6ls+YwlCBQIKdIghVEnRceQm8MrPzpHyXEUus1uhOil0CokqOxxwV8jYYKgkUugkoMJQoq/DHltFwlCSHgk/PyD2J1NoYQXLF2N/r5u+PoFor+3G1KpBC2N9QgKjYDe4I2m+mpotDr4BwSjq7NtdDtCpzcgOX0uTH098A8IQnlJAaLjkmC1WlBfU4nlqzfCbrPBbB7kmAIU66C6sgy0FaHT6Xnlv2z1JuTnnOAVdpKfDMF6CQZtQPuQG8EGKUeNDNRJEe1De/dAda/rIkGQSNhT4XA4MDRogsHLm0mOUenPZIBIgM1hg0aphcNlQ6epHVkxizg+QltvM7vaJZCiuacOOpWBYy00dtWwKz4mMBHdA52IDUlCGcdskGDIPoht2R/DudrTjB2tsCn4UmVLCXx0RljsFnSb2uGj9+PvaWsjPD72ogfBK4i3JCjyJEWPTAhJg1wmw/mWEkT4xTBhIcJABMXpdrAHggywl8abI0RSPAlfnR97LYjkeAiCTiGBrwZoHRyGa8yuC5GMuOBk+Oh8kVt9EnFBSUwIiKAQJgaNF2NE9Q1YTfA3BKK1EXIEAAAgAElEQVSxuw7+hgB4aY0oby7kcNnkUThdcwQr121F/tkT6O5o4TFHob4HLgn0NZU/SCFLIDAVCAiCMBUoChkzjiCQgVdIJaPRFpdFyNmtW9dHBABIC5CjuNOFzCAZG4ZzbU54qSTosw6DQjvT/r1zGPBRSdBtubjWozMHtDdObnk6dEYhlKPjk1BWdA5pmdn87oWO9hakz1mAoaEBlBfnIzUzG3RQrSD3FBQKJbvT6b4/kQaDtzd6e7rQ0dbCxj8gMIRlE3mgMwhkVDLmLWJyQVEd52QvQW93F6orSvh2R2JKJr8UKStIDj+tBPtrHYjyliLGV4pDdSPEJi1AxkSBok9q5eAzCaQDvVjJYbfD1N8L2ieXKxTo6mjD3YsextmqY2jqrucVMhncmrYKNq6JIWlo7qmHQqaEQqYYffdDZEAszjcX8wo6KSydXf+RgXEors9lg0qraPo31BjBWwFalZ7JRENnDYeCpgBL3aYOfm40BHDAJ7+AoJF3SLS3cBjqxJBUDthE3obksAy09TahZ7CLvQmkJ9VJ5xT6h3p4G4FiTijlSpQ1FSLMGMVySR8iQpnZi5B76ijSA2UcUfNEo/OyFX161Dw+qEnnDUi+1W5BQ9fIwcb0yHnoGuiATqVjwtNv7uO6aCuEthVo6yXcL4rDX8tVKvgHBqG1qQEKiROb4xTYWWmHXewwiJlzhiMgCMIM76BbRL0ZRxBmJm4SNswj8ZeGJ3yo7ka3hQwu7fPf7DSCFZGpkaU9kY+PeoOB5YyRq5RJQC8DsxIbvCRRffT/iR5+nAhe1Pfktbg0TPhEyoo8AoEbjYAgCDca8dlZ3/QRBKkUUpmMXeEiCQQEAgIBgcCNQ0AQhBuH9WyuadoIwmwGTbRNICAQEAjMZAQEQZjJvXPr6DatBMHPPxBLVq3n+/AiCQQEAgIBgcCNQUAQhBuD82yvZVoJAoG3efsD2P3OyJsHRRIICAQEAgKB6UdAEITpx/h2qGHaCcIdG+5EbWU52tuaR4MN3Q7AijYKBAQCAoGbhYAgCDcL+dlV77QThMUr1sHhsHGkwYH+vtmFnmiNQEAgIBCYgQgIgjADO+UWVGnaCcIDj30Wrz7/3C0IjVBZICAQEAjcmggIgnBr9ttM03paCQIFF9LodDD1jbzkRySBgEBAICAQmH4EBEGYfoxvhxqmlSDcDgCKNgoEBAICgZmGgCAIM61Hbk19BEG4NftNaC0QEAgIBK6KgCAIYnBMBQKCIEwFikKGQEAgIBCYQQgIgjCDOuMWVuWGEISI8HCYBgbQ39+P0JAQ2Gw2dPf0jMIWEhICg14Ps9lMAff5e1N/PxxOJyIiIjA4OAiVSoWmpiYoFAp+brVaYTAYYLfbOZyzQi7nl/nQ54z0dNTX18PX1xdSqRSVVVVISkzkZy2trbBYLPx3WXn5ZV3n7e3N+qnVakSEhaG0rAx+fn7QarWsH0X+dzqd6O3tRUJ8PFwuF+etrqnh742+vlwPvQfA6XLB5XQiKioKNbW1WDB/PoqKizmfRq3mcmaLZeSlQf39iIuN5XbRd319fVd9l0BQUBB8fHxQVVXFuBAGpB/hpFSpkBAXx/pQHmo/6Wqz2+G8EPY6PS0NFZWVXE4kgYBAYPYhIAjC7OvTm9GiG0IQtm7Zgvd27eL2bdywAe/v3TuurbHR0fDy8kJXdzcbyrS0NDZwZDjJkOfk5iIkOBhWm43ewIPAwEA0NDQgISGBiQAZOrlczoSAjHN8fDw6Ozu5jEajwa49e7B182Z0d3ejvLwcnd3dTCIKCgsvw5zIjEQqRWBAAFpaWtDV1cXy/P38mNTExcXh5MmT6OzqAhlaIj5k2HPz8li3+fPnMwEYGhpCW1sb9Ho9lEolBgYGWBciIPUNDfAyGNh4h4aGchvaOzqYJAUEBKC1tZV1dV/hxVBUJj4ujuXU1NQwSero7MTihQuZVNgvkICq6mrOZzKZ+HvCbiwhWLpkCU6cPHkzxpyoUyAgEJhmBARBmGaAbxPx004QyOANu1zo6umBr48Pr/Q7urrGwUsGlohAU3PzyMq4shJSuRzxsbGcr7aujl9vDKmUDXtdXR1qa2sRHR3NXoPm5mYsXLCAjXBxSQmWLFrEBnvVypW8Sn/z7bexfds2Npb5+fnXJAhkVEln8l6QET946BB0Oh2CAgNZ/uLFi0cJwtysLCYCUZGROH32LFKTk9mjQKtzMshEMoi0EOk4eeoUwsPD2QNCXgkiNGGhofxCq9LSUvYE0DPyIPh4ezNZulKiNxqSjpTIu9LY2IjK6mosX7qU357oeYNhYWEhtt95J8tuaGzEkNk8ShAy09PR0taGfpNpBFeRBAICgVmFgCAIs6o7b1pjpp0gbNqwAXsueAwWL1qEwqKika2EMWnTxo28qqaVLq3QB0wmdp+TsUxNTUVkRASvksnQtbe3jxjHsDC0tbfDPyCASQc9W7ZkCU6ePo3Vq1axMSQiQW7+1rY23L1jB8snAkGeACIa9HmsUSW5KqWSV+HkHSAvBBlk8mpERkbyv3PnzcPZM2eYeNDWiOdZe1sbez3IQ0LGnbYxSD/yCvT09rI3gfTMzMxESWkpezoSExLYA0EeA0pUF3kh/Pz90dPdDZfbDZlMxh4JTyIPQlhICOxOJ5MBwoh0pq2ZjevX46VXXgERF9rSoK0FIiKUqBx7WmQyBIeEcJ1LFi9mL4Lntcw3bRSKigUCAoEpRUAQhCmF87YVNq0EgYxbeFgYG38yUMFBQWzoxxo8Qp72+GmVTsaLPAi0Uif3Pn1HBtRoNEKpUKC3r48NsictX7aMvQdEGmjfnlb8eoOBPQVSiQTRUVEgVzsZUVq9yxUKdt1bzGZ27as1GnbvkzH3JK1Gw0aZtgaIBNDefnV1NZ8jID3O5efzVgF5DhbOn8+eA6qHvB9ksInMVFZW8lkFSuRd8JQjAkDnB3p6ehATE8P/0pkFqp/OV5CRJ2NN7aB2U1q3di327d8/jiDwOQ67nYlCSVkZezcI11UrVrD3IsDfH+crKxlHwpbOQZC+RDioPwhHzzMiF3QuQySBgEBg9iAgCMLs6cub2ZJpJwieFToRBEpXWq3SMzKe5J73JCILZNA8LnOZVMp/f1giWVSG8pP3gP6mOkm+Rxa58mkFT2cDPAcKPXLJYJLxHZvGliW96GwAyadtCE/y1EsrdpJ5pURy+AjmBSJwtbaMrY+ICh0+HJtIbyJZnvZQfmojHXy0WK3sqfBg5/FAUL0e0vJhGIrnAgGBwK2NgCAIt3b/zRTtp5UgzJRGCj0EAgIBgcDthIAgCLdTb09fWwVBmD5shWSBgEBAIHBTEBAE4abAPusqnXaCQK5tmQRwfoh/2z8gGKb+XtjttmuALIFUOuJOn6lJp5bzFoTFdnG75MN0jfDXoLHr4jmIK+X38fWDxWKGzXrtfB9W19jnXt6+UCiV6O5sh1KlRkBQCJobai8TQdsmSWlZaKyr5j4SSSAgEJjZCAiCMLP751bRbtoJglI2DH+NFC2Dw0gwyhDjI0NdnwsVPRcNqJePL6JiElBRWgilRIlFiatQ3lSI5p4GpITP4fMD1W3lcLtdUKu08Nb4IjEsHfsL351SnDMD5ZgbLMXzhSNnEOJ8pIj3k6O6x4mq3quTkgdXR8BHp8RzO6uRHGGAzeFCbdv4mxokb0GSL1QKGbYtDkZZ/SBK6004W9GDJzZH40976rAwyYhAXyXePdk2rl1qtQZRcYlsoB0WG1ZnbkV5cxEau2oxPDyiV2xQEiICYnC4eM+EMdFqdUifuxDF+WeZmKVnLUBLYz062prHydDq9Nh+/6N4+7XnYTEPTVi+yCgQEAjcHAQEQbg5uM+2WqeVIGjkwFOLNSjudCGn1YlPzlHC6gDOtDhxpOHiAb+E5AwEhYTh2ME9CPONgFyhRH1HNRbEr0B6ZDYau6tRWJuDe5c8imNl+1DUkIu1mduwv3An6Njf9kUPITowDv/77jOj/UOHBtMy5/PKt6wkDyX5OaPP1HLgj1t1+HuRDQdqnfi/7Xp8UGPH34vseCRDhReKbEgyyvBwpgrdQ27ktbkwGLIIi5avxnM/fwbxyelYtW4b/vybH2Jtlj8+vSkWZrsTTz9fip3/vQzf+GMR9uV14NSv1+BIYQd+/FoFjv3iDnSZ7PjxqxXYvCAIn//VOT40+JsvZmFlpj8yn9wHL62CPQ8Olxt3LQvFl+6OxzMvlKGq1wtJaXOwb9cbUMnViA9NQUnDOW7P13Y8g3O1p3CgcBcWJa3CqfOH+PvH1nwRWpUOz+7+EbbOvx/RAQn4476fY17MIixIWIE/fvBzWO1mNvyEe09XBxYtX8segrKivEsIggFb7/k4Xv/772fb+BftEQjMSgQEQZiV3XrDGzWtBMHTmruTlHjzvB0bYhU40eTEoH38fgMRhMCQMBw/uAdeGh+khGdiwGpCWVMBliWvZVJASSaVIzV8zjiCYFB7wd8rCDKpDBa7Bc099ZyXvA7ePkaQd6K/rxf9vRcDDxFx2ZqgxJlmJzRyCTQKCeQSoLrPxd8TQaC0LUGJnZXXDiSUGK6Hr0GJ02U9fENh1Rx/mIacMA3ZmQCE+2thdbjQ2mOF0aCAQaPAiswAuNzD+MfhJtS1m/Hsl7Lw5C/P4ZMborD/XAdauq3IivNGiJ8aCWEG/CPHPUoQ1EoNUsIyuX3lzYUw28zQKnVwuV2YG7sYpyoOQaVQw1fvD51Kz3cXvHW+6B/sQ/dgBwK8g6GQKdHe14LugQ7s+NijOHrgAkFYtmaEIBSPkA9Puv8TT6K0MA8lBRdJ1g0fqaJCgYBAYMIICIIwYahExmsgMK0EwaiRYFWUAllBMrxb6YBRLbkiQfAPDEFqxjycPXkI3kof3j7oMrWhvKkIS5PXMEHw0RoxL34JfHRGHC/bD53aC+HGKLT0NkCj1MFo8B/nXicDGhIWiaCQcLS1NKK1uWEUBiIDj85R81ZHYbsTq2MUqOtz42yLE5kBMqQHydhrEO8rGyUI/oHBCI+MRX7OCSYekTHxKDp3Bisz/BEeoMVLBxrwnw8lMwkoqOlHRow3/uelcgT7qpgM3LcyHDnne+GlU7B3wWR2YGGykb0JEYFa/PqtaqRGGpAUYcCBcx1QyqVIi/HCc+/WQKn1Qtb8JSjIOQU4hjE3ZhEGrSaUNOZjYfwK9A5143xzEfwMQUgKS0dHfwu8tUbYnDb0DXZBpdAgKjAORXU5kMkUSAnPwPnmYnRbO5G9eCXOnjjEQZQWLFmJuuoKtDSNkCxP0uoM2HbPx/Ga8CCIyUQgcEsgIAjCLdFNM17JaSUIShngp5FCJgV7DZxuwOwYhvuSA4sSiZRX+kMDJrhdbvjqjRiwmGB32qBV6WG2DUIhU/BKmO7+D1oH4HDaeZVstg1xgCWlXM0r4okkWumHeUnRZx1mvUINUtaL/qZghqF6Kfptw+wRGLjg7aCXIGk0OvT39XBIZI1WB7dtAM99eR7+uLsOhws7kRBGK3Zg0OKEUiFFc5cFcpmUzyTEhejR2W+DTCZB/6CDSYOPXoEAbxWXae+1wel2I9hXjb4Lz/28lOxhcLuHodMbYLfZ4HQ6YNT7Y8g6CKvDAj9DAKwOK4asI4GV/AyBjBd5EQgri32IsVEr1egydTCZ0ql1/FmlVkOpVGFwwMQhn728fNjbQmc9xiYKZx0bn4KWpjoMDY7UI5JAQCAwcxEQBGHm9s2tpNm0EoRbCQihq0BAICAQmC0ICIIwW3ry5rZj2ggCufgp3PFEoh/eXAhE7QIBgYBAYHYhIAjC7OrPm9WaaSMIFOKXwhF7Xj98sxoo6hUICAQEArcbAoIg3G49Pj3tFQRhenAVUgUCAgGBwE1DQBCEmwb9rKpYEIRZ1Z2iMQIBgYBAABAEQYyCqUBAEISpQFHIEAgIBAQCMwgBQRBmUGfcwqoIgnALd55QXSAgEBAIXAkBQRDEuJgKBARBmAoUhQyBgEBAIDCDEBAEYQZ1xi2siiAIt3DnCdUFAgIBgYDwIIgxMF0ICIIwXcgKuQIBgYBA4CYhIDwINwn4WVatIAizrENFcwQCAgGBgCAIYgxMBQIzkiDQOxDkcjkczpFXQtNnl8vF7xa4WqIyV3tKER3pJQtUngI4OZ1OlknRHh0OB4uk70fT8PBoBEjKQ+9eoJcZXZYPYL08iWSSbE+iV06TXE8dV9Kd8lAdnuR2u6/ZzqnodCFDICAQmN0ICIIwu/v3RrVuRhIEby8v6PV6tLS2QqVSITAgAK1tbaOGNiQ4GGazGfQSIYVcjs6uLhj0evSbTKO4kdGlckQK+vr7ERUZiZraWoSEhKC5uRkkw2g0ora2luWGhoSgp7eXiYGPtzc6OztBxlun13NeKmsxm6HVarkOku8eHmY9AgMD0dfXxzoMDA6OkgmSQ3VQWU8iwuAmsnNBBrUvNDQUra2t8PHxQXd392j5GzUIRD0CAYHA7EJAEITZ1Z83qzUzkiCQMXe6XGzIfX19ERwUhLLy8lGMsufN45W7VqOB2WJhEkBegqKSEiYCEeHhOHz0KOLj4vgZkYA77rgD+w8cwLy5c9mY02pfo1bDNDCApqYmBAcHw2QysVx6c6PFYoFaqURoWBjCwsJQUFiIzo4OqLVaBAUEwM9oRE5eHnx9fBAQEMAkgIx/WGgo6055NBoN/9fb24szOTlQq1SQKxQYGhoCtSE3L4/fGLlixQr09/dzvqbm5nFeiZs1MES9AgGBwK2LgCAIt27fzSTNZxxBICNLRpeMOBvawEA2nGPf6RATHY3U1FQMu904X1mJ6upqLFywAOfy80e2I5xOXtXTZ1rlz583j1fslG/IbEZdXR1WLl+O8xUV6Ojs5NdFB4eE8PeelJGezkQhPDQUxcXFiIiMxOnTp2Gx2RAfGwu1RsPfk4GPiorC/Oxs9gKQnmdzclgM6U6Eo6u7m8lDdFQUGhoauF1KhYLJgk6nw6KFCzk/bS8cPnIEg4ODM2mMCF0EAgKBWwwBQRBusQ6boerOOIJAK+70tLRRI7t2zRpe+Y9NtAWxaNEi/urM2bNMBMigl5SWYmBggM8BkNeBzg6Qiz+/oADLly3DkSNH2JhTHbTS7+3rQ3t7OxtwcvUTKfEk2l4g7wN5HIig0DbG0OAgyyPyQfXQVkFLWxtvSdB5CTLwiQkJXB95JIgg0PYGhofR3NLCHo3qmhrWj7YqwsPC0NXVNUJq3G4mI/SctilEEggIBAQC14uAIAjXi5woNxaBGUcQyPjTapvOA9A5BJ1Wi/aOjnG9Riv+oKAgXp3Tnj1tAZDRHxwa4lU8GWoqS2+TJANNhp48DqWlpWyYySDT2QXKR9sDHR0dI4Z8TKIzBlSOvBXkZaBDik6HAxo6gzDmsCR5A4iMUN3k0aDDkGTg42Ji2ENBHgbSj7YOiHRQ/XRugeoem4jMGAwG3uYYe9BRDFeBgEBAIDBZBARBmCxiIv+VEJhxBIHIgedmABEBMsBTkcbeMPB89twe4AOHlxhsT51j9bmSHmT0KXn+JePuIReX5qfvKd/Ymw+ePPTsWnpMBQZChkBAIHB7ICAIwu3Rz9PdyhlHEKa7wROVzxcPx1w/nGi56813rSuc1yvzSgRlqmSNlXMjdJ8OvYXMiwiMvWr7UXARY+GjoDd1ZWcbQZiK8SnG5uTHlyAIV8GMvBe0DeHxDEwe2omXII+C9UKchYmXmnxOupVxadyFyUsZX+JG6f5R9RTlr44AbcXRWB8XC2SSgNE4IC+cfUwckEmKENmnEIHZRhA+6tzFY9PhGI1vM4VQz2pRM5IgeMIGXT0s0kifhEXGoLnhYoyBqeqpwOAw9HS28TXIjzJpTlQfq9V6QwiCRqWCUqkcF5hpojpeLd9U6J6UNgfnSwo+qiq3THmZbCRIl9M5EqRrIsloDIBGp0NzYx1CfMPR2tt0WTGZVI5hDMPtnty2HBEEuoJL52CuNxFBsNlss5IgRMclor2lGRbL0PXCM+lyROSvtu15NWHpWQtRnH+GH98IghAZE4/WpvprBoK72narpw0qtRq+xgB0trdc83r3R527aOvXYrXOSoKwcu0WHDuwm2/szV2wFJVlRRgcHLhsmKhUaqxavw17d/5jwuNxxhEEqQSINEgx6AS6zG7cmahEvK8MLxbZ0GG+eLBvzvwlGDD1oaaibFxjl6xYh4ryInR3tk8YhLEZkzOy4LDZUV99nuMs0A/V39+fJ3QKnnStdK1zBPSMDihSDIRLExnZIO8IrJ1zJ9RyNf526LdYmLAKKoUKB4rew+Prvgyb3YZdef8YZxgeW/1FDFkH0dRdB1+9H9QKDSAF3jz5whXV1KrVTBAmk4ggLVmyBMeOHbtiMQ9BUGsVsNucmL8xEeWnm5C8OAK571cge2MC2hv60FjSgRX3ZyBnTwUkUgkGey3Qeasx1G+FUqXGlu0P4q3X/3pZHZnZi1FamMsHRCeSvFXAfyzT4r1KO441jkS1TPGX4YE0JX5z1sZjaqLpm8/8Lw7vew8nDu8FfS4pzMU7r/9tQsVDwiJZ586OVuj0BugN3mhvHTHqEVFxHOSrrvr8OFnePkZ88nNfw6H330FB3qnRZxqNDpt2PIC3X/srsmOXITt+KQ4V7UJlaymWJa9DuH8MXjryHKID42G2DSE1PAsalQ4HinbC5rB+qL5EEGisU197bv7QIWC6xjsZI2Wz2jEvdhnig1NQUH8W9R1VWJm2EbtyX8fc2CVIDsuA0+XE22dfgrfWBz46I6rbzuO+pZ9Ct6kdudUncN/ST+KfJ5+Hr9aIlMi5UCs1KGvMR5BvGEJ8IvD68T/DbDePtikuKBlLklfDZO7FoeI9uGvxI6jvrMSRkr24I20zDhbvghQSPLb2Sxiw9CO36jjWZm7DP0/9DWHGKHSZ2rE5+368ePhZLElag8buGmTHLkVxQx6y45ZxmbOtxxEUHIb8nBOXRTl94NHP4tW/PfehGF8pQ9qc+VAoVcg/exwPfeoLePkvvx3NFpuQgprK8XMbPfzyN/8HLY31ePv152G32Ubzb7jzfuScPIyerpED3R9GED752a9BqVLiD//7/WvqTu3750t/hn9gMIJCwlCQOzIuidSrlCoU5Z9FqE84Ns+/H3vy3kBLTwM+sfoLKKzLQWHdGQR6h6LL1IZFSXcgK2ohfrP7f8bVR/Ni9uKVqK+u4N/K1RIRBLppRonixpw6dYr/nuiVcA9BeHDFk1DIFDh1/iDKm4vx0Ion8fbpF7EkZQ2SQtJQ2VoGu8OG3JoTSI2Yg7qOKqzN2AaJVIp9Be8gMSQNgzYTypsKsX3hx0Fkf1/+OwjyCeU5+4P8t9DYfXHRuiZjG4J8Q9HUVYuOvhasTNuEus4qFNXlwGwbhMnSz4R/afIaKBVqHCx8D8lhmegeaEdJYz7C/KL493S8fB/uXvQJ/s273C7+fYT4R6KypRTFjbn4yrd+hB/+15f4AP4Xvv4M/vcH37wMypXrtqDqfAmPn4mmGUcQQvQSPJimwpvldrJ1uDNJiYN1DlT2uGFxXvQpfP07P8NPvvMUG/AHP/kFePsa8eYr/4f7Pv4EA5hz4jCGBk1YuGw1jh7YDYVSyQPxzLEDaG1uwMOf+RJyTx1BYc4pfON7v+A8R/a9h+/+9I/49lOf4dgIHoJAkyXdRCBj2NbWhpSUFL4RQd/V19fzDQqKhkgTLAVYojwxMTHcB3RDgoI9UdAnmmyJbFCZxMREnoApkVx/QyiiAuMQ7BOOPefewNKk1VApNPig4G3cueABtPU2o6KlBB39Iz8iCSRYnroORfV5yIjKhk6lQ1FDHpq7r975YwnCunXr+MYHXeGk6JI0sChGA10DbWxs5NVgREQEqqqqkJ2djcrKSsTFxfEPMyEhASUlJaO60/aIXCGFyzmM1KWRcDndCE8KwMGX85lYKZRyWAZtSJwfjva6XrjdwxjoMUOplsFuHVnt/vcv/4pvfeWTl41bmijrayuhkCsQHhULi8XMqxb63maz8mB3uUaIgLdKgu1JClT3uFHb58J9qUr4qCR4LtcGH7UU7UNumGzD2J6oxPIIOX58woIgvRQPZ6jwcpEVRZ0XyQORlm33fBz797wNh92Ghz71ebz6/O+5Lov5Islbu/kuRMcmYc87r7JORGg+eO8fSE7NQlhULDrbWnFk/05svefjKDp3BoV5Z/DEv34TRw/sQmHeaXzys0+hrbWJjcT8pavR1d6KmspSbLzzAQ4e/v7O15GWMQ/HD+9lgxAfkoJI/1gcKd2LYJ9QHi8DFhNaehtw9+JP4HDxbtR3ViPEGIGegU4mCI+v+wrq2qtwsuIQT0qXprEEQa1WIy0tDfQv9TVdJ6axS8SSJmQaF9SndN03NzeX43h4rgcrJRr46gNgMvcjISQFnaZ2bMjagd/t+SHkUjkMGm82yJlR2egaGCHbLb2NiAmIR31XDeKCkjAvbgn25r8NH60vrA4r7C4b/27cw25g2M2TaHtfC5eVSqSIDUrEoHUAnaY2SKUy+BkC0NnfBq1KD73aC629jYwRLTwGrAPw0nhjQcIKHC7ew96WFanreQJ+4chzWJ91F5MJmoQbumrYE9PR18r5FixZhdqq8+jqbBsH3533fwLvvv53hIZHQavT81Xo1uaLv8GMuQux7I6N0Gh1+NUPv4UlK9dj8Yq1+NWPvoXPPfVtbsMf/vd/8Jkv/jvfXnrvzZfha/QHEcxdb72MR574MoggNtRVsZftU5/7Gl76y2/R09mO1Ru3wz8oBL/76Xew4/7HcHj/e7BZzFi75S7ExiXjdz//HrLmL8XSVevx8l9/x+P4sc9+jcdnaWEevvD17+K3P3ka9z78OIzGILS1NmL3Wy/joU99EWqNFscP7sFdD36aV/c0vjdu/xi0Wj1+/aNvYU72YsY778wx7rP23mZ0DXQgKiAOC+NXYE/+m5BJZUIBYKYAABptSURBVFiUsAp789/kvvzspm/guT0/hkHthVXpm+CtNeKlo3/A8LAbX/j69/Dbn3z7QwkCjbcFCxbgzJkzPAZpPqWxSfMUzV20COvvp+vqEp6La2pqmNR5CMK/bPgGPih4h8eM0+WAr94f/UPdaO9vxec2fxPP7v4B1mRuZWKwMGEFXjn6J2zNvh97zr3JhpzmYqvdgleO/Qkb596NU+cPocPUhkdW/gvO1Z5Gt6mDx7QnfeKOz+OD/LeZ1BKJ/cz6p/CnD36GOTELea6m3wP9po16f9R2VPJYf3D5Z5iY0kIx3C8KEf6xKKg7i0+t+RJq2ytQ1JCLdXN2YGfOKzBbBzFkG8Sm7Q9izzuvcLVrNt2FA3veGoelWq3BHRt3MInsugYRu7QDZhxBIAXJY+B0D6Ou382T/D9KR96DMDZ9/emf4SfffYqNcmxiKj8a6O9DfFIaykvy2YMQFhHN4ZFDwiLQ1dWO7o42ZM5bjN7uLtTXViAxJZNdtvFJqejv60NbSwO+8d1f4OlLCAJdhaRJMTY2lo0qXUdsaWnheAjkEaAJkkgArb7IyPr5+fGgjIyM5Hz0nL6jyZXIBBlgmmzpuiMlIgh++iBEBsSjooVWbS5EByXB6bKjsbMGqZFZaOttQX1nFZMfSjqVnidNIkjhfjHoHexCXHASD6C2vhbIJIDrkj2asQRh7dq1KCwsZJJDV0VJX4+Xg9pCJIaiO9IPa/ny5fwDpOceYzFW97HnJ4zBBqQui4LT4cLZ985DIrtIELR6JaIyQ9BU3skEYWx65hd/wX999VOX9bPe4IWhwQHovbwxd8FymPp62NAuW72JCWBR3mnY7RdXUkvCFchrc0IhAQxKwD0MJPnL0Do4PEoQ4nxlkEmG4auRoqzLBS+lBAE6Kc61XXyPRvaiFezS1+oM6O/phlQmhbePH68i21ouTgAxcck8lrbc/RATTvOQGeu33o2TR/bBYbejo70F1AaDlw/mLVyO9958CSnpc5mwEkFIzcjms7B9vd3wDwxBbWU5TKZepGZmo6G2EguW3gG3y42TRz6Aw2GHr84PC+KXY9A2iPyaU9CqDLzaoLGQETWfJ6FLCUJW9EK09jUxWegb6oFcAozh2nwd2ONBoMmWxjVNvBSB1MvLi12/9B2NASKNNJ5prNM4Hnvzxk8XjNTwuWxU8+vOYHHiKsQFJ+Pvh5+Ft9aXCU1xwzl8cs2X0NBZjeaeepxvLuYJ+L3c17El+z5eeRr1Aew9IzJAEyXpTZM5TdDHyvaNjhG5TMETdmNnHYrqz3J+mmzP1Zziyf1M5VHOuz5rO9r7Wi/8RpJR0VyMQB9a2bYjKTQdaVFz8V7O64gJSkRdeyW6BzswL3YJE5yi+lwmJvMWrUBdTcVlnsmUjHkoK8pDetYCGP2DeAXvcfNT3UQQrBbzqJEPDouAt7cRp48fQMbcRRyMjcbNo09+Bft3vwnz0BB6e7p4dU5eQyIIr/3tOd5OpbHx7R89i+/9++dAbuXa6vNMPCpKC7H9/sdw5AJBCAoNh9tmRmt7Oz7++L/i3X+8AFN/LxOVmopSJtldHW3jCMIbL/0fgkLC4ePrxyQoNCIaxfln8dAnv4BX//YsAoJCERwazl7buuoKkPeDCAARhMiAOAR6B6Om7TyPr+0LHsJbZ14cJXFKuXIcQciKWcQeI+rbAauJ57TPfvW/8NwvnmEiR7fIL91eHutBoPmIgtbRoozmp6SkJCYMRA5oYUYEwWKx8uKHro1T8hAE8m6UNJzjlfeOhQ+jtPEc61ZUn4PPb/kP/G7XD7EsZS17ujKi5uFPH/yCx9iu3H8iwCsIW+d/jAnOc3t/jDsXPIjatkoU1J3B1vn3s8Fv729BQ2fN6BglDwXVRQSW5u/Pb/4mfrf7B+wxoLmatgoTQlJ57LX1NfN8T0RfrzbgV+89g3sWP8qk/lTFIaxI2QCn24nK1hL2gp0kctLXwuU2bvsY3t/5Gte7esMOHNz79ri51Mfoh013PoB9u9/gvp9omnEEYUGIHA+kKzFkH8b3j1txZ6LiigRh7oJl3EaasLfc9RBSMufh97/8bx7gazfdxRP04EA/E4Se7g6kZMzFwqVrcOLw+7zqfOSJryDn1GEU5pzAE1/+Fq9SP9j5DySmzYFcJkfxudOjHgTP3qzHxcUHXi4cKqSJlIIdkaGm50QYaPVFk+rYq5U08dIz+peIAr+M6oLbnAhCVvQSnKo4zG2izj9bdYx/KTRYd+e9cVl/kpuMBq7FbsH+wp1YkbYBfnp/7Mx5DVEGK1oG3Oi3jf+ZjSUINPETwyaCRW2hiZ4+03/0mb6jNtEPi2JKeLZGqF2Ex1jdxxIEjV6JrLXxqC1sRXtdHxbfmYK2+l7UF7dBqZEjPDGAvx9LEGjyWbZ6I9565S/j2qnV6bB01Ub27FCi1ZLDZkNXZztCwsmFb+fPFLDKk5ggtDp5P+5fF6qgkElwstGJMy0u/NtiFfqsQFGHC1sTFHil2AqrS4KH05X4Q54VjaaLeAUGheDeh5/gmywHdr+JNZvv4omL3P9EQD1p/bb7EJeQgp3/fAHJ6XMRG5/E4+29N1/Bui33YNjtwqG9O2HwJoKwDPt2vckTM2FM4zUyOp4WO0wQAgJDRwnCxz/1RajUGux84wVYLRZs2HYf/vnSn9hbRMbvaMk+NPfU8Uq5e6ADeo0XHlz+OJxuF/6y/1e88qBV2ns5r2Fr9gNo7q7FifIDiDQ4oVFIUNhxkQyNJQiel5ONvQpM450mYwoqFh0dzd4kGgM0bsfuMQd5hUOr9GIDrVMbMD9u5Dd6vHw/grxDEBkQy5PaF7b8J6+qFHIlksLSeYV0rOQDRATE4J0zL2PHoo+jd7CbjTO1LcI/BkuTV8Nis+Cdsy+PYk/lN8+7l8tQemzNF6FV6vhv2mroN/cgr/oU5scvg3vYhZq2CiYqh0v2cB2lDQWw2M1ICE1FacM51jk2OAlHSt7HQyufxIClDy8f+SMCgkMRE5eIsycPXxaj5IHHPodXn38Wfv5BUGk0sFks6O66uL1JBGH56k1QqTR48f9+hW33fgJW8xBe/utvkZiayf3612d/inse+jT27XoDZvMQ7nvkSSYI5Fki0viX3/4YoRFRbJg9BIG2ozbteBDe3j74w6++z96EmopydLQ1wUMQGpubeUG0ePka/OPFP2Ld1nt5TO3f9SaaG2tB2wf0+/by8eX5iIgvLZjmL1mFmvNlOLD3bWy8837QGQwiGQFBIejv60FDbRVi4pLgY/RH7umjiDBGYWnyWhws2sUeTg9BWJ2xhV3kQ9YBHC3di8SQdAT7hqGw7iySwjOhkqvwxqm/s5e3p6MdVZWlWBIuR8fQMKp7x5+jGUsQaIFGWwu02CL9ab6l+YjmVlqU0fj0zF2eedpDEOKCU3kRFuEfDZlUASIvgd4hTDyXpazD8bJ9CDVGoMvUgdXpm3lVvz5rB/YVvIvGrlr2csUEJ/G2WZR/LKrbR7YJn1j/FBtumsPJw+BJ2XFLkFt9kv+k7bb58Ut5CzjULwqJoWkYtJhQWH8WK1I3MIl4P+9NJIWmITIwHuebCuFwOZAUnoHi+lzWV6fWw+G0Y8PcHegZ7MK5mtOsA209/fR7X4NcrsC/fPVb7Bm6NK1atw2lRXnsEZpomnEEYaKKUz5alRGjnUii/bP21uaJZGX3mtNuGyUIVytEL1caG31xQsKvkGmiB/1Sw+ewISBvAe2VXS3dn6rEqSYnGk3j99uv5wzCh7VporpfS47RP3B07/TD6ptpz8Oj49BUVz3tatGER6vIxrpqRAfEoa7z+ur8+mINfnLq4gRGik/0kCK5dHt6eq7YViIRNBam+xYDbVOkhGeyDh4PwXSDHx4Vg6b66zsMnZo5jwnelc4TTLXe5BGtKCtksR92BmFs3dvv/wTeef3vk1YnOCwSXe0tHymwGx2cI0+E+cIB0HUxCrQMulHaeXWCcDVFiSgQIbjSuZkbdUiRtv+IBNFWJJ016L6wlTZpcCdRYOmqDXxOihJ5parOF4/bBh0rav2We/DBrssXnFer7pYmCJPAcNJZ6QwCX3X8CCe7J1IpDVxy79/Ia45TdTPjRuo+ESxFnutDYOw1x+u51uvZ4xXXHK8P/+koNRmCMB31T7VMzzXH65m7aHyS51Ncc5x8r8wogqAi9/sNiAcwEZjo7ZBTEZxjInVRHnoXw3QnMgTTkW6E7tOht5A5ggBH+JyCoGC0QTOZWw8C/+lDYLYRhKmYu2jbUQRLmtyYm1EEQa/VYvDCwb3JNUPkFggIBAQCAgEPArONIIievTkIzGqCoJFL+DSsdeyR7UngrJIBflopBu3DfD2OkkIKPvHebRmG7TrlTkIFkVUgIBAQCEwaAUEQJg2ZKHAFBG55gkDX+ejaWpxRiver/397dxobxXmHAfyZmb3Xu2uvD4wPbEywwQQbgnEohAbSKlGb0JSUpKnSNoqipmqrNp/6Ie2Xfun1sYeqKlJUNWmToBwkJWchQEjNTSBggw22117fNr7v3ZnZagYllJA0rD1rz+w8+wUhPO+8/99/0Dx+d444KrIllGWJ2Ncax0OVLngcAuo6ZHSNq/qJPuwVMT6rYsNSh36l//BMApW5IsZjQH3/tQtjtHCxpVhCediBM30ypuMJFAUlHI7G9ec07I/E0DqsIs8vYGOBA4fbZf3WsbtKHTjdo6B3QkVlrqTfjdE+mvqvD3h0U4ACFOAKAo8BIwUsHxBcErA+34HJeAIlARFdE6r+cJyR2QQKAiIcooCT3TJcItA9kcCqHBHRUQXr8p3wSNCDg/YAJu2e+daR61cK7q9wYX9rHLMKUBQUUBwQER1X4ZEEfQWhZ0LF2lwJa5dI2NMY18dYlSPpzx/Q7iLI84uYVRIYmv6ih0Yb2VKORQEK2F2AKwh2PwKMqT8tAsKKTBGNgyp8TgFeJ/STt3bP+rp8Sf/zXJ+C4qD2JL0EVoZFRMcU5PlENA+rKA2J+m/4xUEBk/Gr2378uW+lC29cjqEwQ9Qf4HFlSsGqPAlxWdBP+j2Tqj6+NkZljhPHu2MYmrm6b+2jXfelvVdCe1gPPxSgAAUWSoABYaGk03s/lg8IDhFYmiGic0zVrzfYVuLA7UUO/L5uBgGXoL/Lob5fRv9UAo9Wu/D8+RgGp7VVBlG/33aJX9AfzJHjEzAjA+Oxa2fz2gIHTnTL+nUH9610ojAo4p3LcUTHVDy0xoWQR8S7zXH9aY/PnNEeCwv8cIMbrzfF0TSo4FurXXitMXbDEw3T+5BidRSgwGILMCAsdgfSY/+WDwhmbsOmQgeOdV17Yp2Z58q5UYAC6SPAgJA+vVzMShgQFlOf+6YABSiQAgEGhBSg2nBIUwUEG/qzZApQgAKGCzAgGE5qywFNFxDC2dqbE8XrXnhiy86waApQgAJzFGBAmCMcN7tOwHQBQXtjWMnycv1Ni/xQgAIUoEDyAgwIyZtxixsFTBcQ/BkBbNi0FYf3v8V+UYACFKDAHAQYEOaAxk1uEDBdQJAkB2o3b9NfuXz4vTf1t3DxQwEKUIACNy/AgHDzVvzJzxcwXUDQVhDWb9yC/xx8h32jAAUoQIE5CDAgzAGNm5h/BWFFeSX8GUGc+/AY20UBClCAAnMQYECYAxo3MX9AYI8oQAEKUGB+AgwI8/Pj1lcFTPcVAxtDAQpQgALzE2BAmJ8ft2ZA4DFAAQpQIC0FGBDSsq0LXhRXEBacnDukAAUokFoBBoTU+tpldAYEu3SadVKAArYRYECwTatTWigDQkp5OTgFKECBhRdgQFh483TcIwNCOnaVNVGAArYWYECwdfsNK54BwTBKDkQBClDAHAIMCObog9VnwYBg9Q5y/hSgAAU+JcCAwEPCCAEGBCMUOQYFKEABEwkwIJioGRaeCgOChZvHqVOAAhT4LAEGBB4XRggwIBihaNAY2pssVVVBIpEwaEQOQwEK2FGAAcGOXTe+ZksFBJ8vA9rbHgf6ez5TIpiZhVVr1qH+7ElMTU7c8DOSJCEQysTI0ODnSgaCIVSsWYdo5DKGBgdQvKwMY2Mj0F4ideZkHeKx2HXbSg4HcnPzMXilH0JCwOqiarQNXMbo5DCyMrJRlF2K5p6LkJU4Qv4wvC4fsgO5OBs5ccMccvLyIYoS+nu7jO80R6QABWwjwIBgm1antFDLBASvz48Hv/sEGj46heamBtxaXYPM7By8+erz+PJXvo6ColLsfeU5bLt7B4598B6GBwf0t0LOTE+hqKQMo8ODuOtrO9EVbcWJuoPY9cgPcPr4B/pYH3+8Xj+237MDExPjiDQ3oeq2Wricbhx493V93H+/8TKmpyb1EFK9YRN2P/tXFJeuQGHxcpw6egg+px9lS1ch0ncJs7FprC/bhJn4DJq7L2D72nvRPRRFx2AEtbdsxd5Tu/Xd1q7citxgPt48/RKcLhd2PfIEXvjbnxHyCNhS5MD+SBwxJaXHAAenAAXSTIABIc0aukjlWCYgCIIAt8eLtetr0d56GRNjIwiFs5GZmY3OjjYo8TjCObnIyVuKttZLGB8dQVZ2DibGRrGmegP6err1kKCd0LXVhZ7uKEqXr0R7pBkzM9M6v7Ya8MDDj+FfLz8HWZYhQMDOhx/DS/94Ghs3b8P5MyegyDL8/oAeAGpuvxP9/d3IzsnDkff3IcMTxMN3PI6D9W+jre8ybivbpK8UyAkZHqcPVaUbcPzSYWyu2I4jTQfhcrih1YVEAsvzy9HYeR5PPvUb/OG3v4CgzUcEZHWRjgzulgIUsKwAA4JlW2eqiVsmIGjhYGnhMqxcvRbNF+vRGW1FKBxGbk4+Jqcm9JN5tK1Z/3pAVRRMjI/qJ1+fPwMOpxMTY2NwuT3ICAQwONAPn9+PK/09GB4avO47/53feRx7XngG2vUAefkFuPu+B7H35WdRUFyqBwttRUL7qkJb0Wi91Iii0jIsKSjCybpD8Ln8CPmzUBguwemWI6gurcGHrccgiRIKwstQUXAr6hoPoLygEgOjvfrqgtflhVNyInolAggCHvvJz/HMn34HlwRIgoBpmdcjmOp/DCdDAQsIMCBYoEkWmKLpAkJl1W36SX12ZgZyPA5/IKB/79/X26VfB4AE0NURQTTSAo/XC4fDiZKylcgK5+KDA2/pqwy3Vm+ELMfR2x1FeWU1jr6/Tz+hV23YhM72FnS0tWDztnvQ0tQAj8+PcHYOFEVBS9MFLC0qQVPDWbjcbn0cfyCIns52dLS3Yv3GLZgcH8XI8BBKV5Sj7tC7+qpDcckKdHW0QVCAqtKNaOm9iMHxAeRnFqJ3pAtOyYWq0ho9sGhfP4xPj6GqpAbdwx0IeIPI8ITwYesRZGXn6qsgzY0NWJsnQRSAc32KVjI/FKAABW5agAHhpqn4g/9HwHQBITOcA4fDoa8CqKqq//av/Tk2Mqyf9I3+aBctut0efRVB+1oiFptNehdaSFEUed53H7hcbr1Grd6AS9CDwUSM8SDphnADCthcgAHB5geAQeWbLiAYVBeHoQAFKGBbAQYE27be0MIZEAzl5GAUoAAFFl+AAWHxe5AOM2BASIcusgYKUIAC/yPAgMDDwQgBSwWEH9e48ZdTyV8joEHl+UWsyBJxtFM2wo1jUIACFDCtAAOCaVtjqYmZLiDk+QR8o8KNC1dknO1V8LNaD052yQi6BeyocOJ4p6z/vX5AQcANBNwiigIivlrmxNOnZ1EcErCtxIk/npi97hbBJ293oyQk4XC7jAOROHaudqFrTEXrsILIiIrCgIBZBfh+tQcDkwpebIihPCzhlrADrzXNLZRY6kjgZClAgbQRYEBIm1YuaiGmCwjZXiDoluB1AH6HgAuDCjJcwMhMAk9t9eJXh6ZRHBDRN6Ui6AJCHhF+p4Dz/Qq2FDtwYUDBrJJAebaEM73XHkFYEBCxJlfCvtY4gm6gMCBpzyeCJCRw4YqK4qAAn1NAdCyh71v7t6EZ3kGwqEcnd04BCsxJgAFhTmzc6FMCpgwIfqeI6JiKTLeAH9V4cKQjjsNRGY+sdem/5b/fFseuSjcEqHj2XExfQWgcVOF1CHA7gBkZqMyVcLrn2tcJWR4B91e49ADROCgjzyeieViFzwE8ebsX9QMyDkZk/LTWjfZRFbsbYqjMkdAxrurhhB8KUIACVhFgQLBKp8w9T9MFBDNx/Xq7F788ePUxzPxQgAIUsIoAA4JVOmXueTIgmLs/nB0FKECBpAUYEJIm4wafIZCygKA9VlgUBCgq3zbEI48CFKDAQgowICykdvruK2UBIX3JWBkFKEABcwswIJi7P1aZXUoDQigzC2XllThzos4qHpwnBShAAcsLMCBYvoWmKCClAUGr8P5vP4rXd//dFMVyEhSgAAXsIMCAYIcup77GlAeEWyrWYF3NZv1VzH09XamviHugAAUoYHMBBgSbHwAGlZ/ygLDjwe/h7T0vGvI6ZINq5jAUoAAF0lqAASGt27tgxaU0ILjcbtx97y688eo/F6wg7ogCFKCA3QUYEOx+BBhTf0oDQkYgiMJlZWhqOGvMbDkKBShAAQp8oQADwhcS8QduQiClAeEm9s8foQAFKEABgwUYEAwGtelwNx0QNJ/qNbmfMH3UMGBTMpZNAQpQwNwCDAjm7o9VZpdUQKitWQ5VlhGPz4ABwSot5jwpQAG7CTAg2K3jqak3qYBw59YqZIRy0Rk5x4CQmn5wVApQgALzFmBAmDchBwCQVEC4Y/Nq5BdX4HJ9HQMCDx8KUIACJhVgQDBpYyw2raQCQs36YlRU3YmpiVHseWWvxUrldClAAQrYQ4ABwR59TnWVSQWELV9ahSVF5Wi5cJQrCKnuDMenAAUoMEcBBoQ5wnGz6wSSCgjffOBeCKKA1ovHGRB4IFGAAhQwqQADgkkbY7FpJRUQeJujxbrL6VKAArYUYECwZdsNLzqpgLB8WeiTCUSio4ZPhgNSgAIUoMD8BRgQ5m/IEZK8i4FgFKAABShgfgEGBPP3yAozTGoFwQoFcY4UoAAF7C7AgGD3I8CY+v8LDpzfe47YNlcAAAAASUVORK5CYII=;" vertex="1" parent="WIyWlLk6GJQsqaUBKTNV-1">
          <mxGeometry x="920" y="145.5" width="520" height="169" as="geometry" />
        </mxCell>
        <mxCell id="uXov4pzuhe1dhY30T7Ek-35" value="" style="edgeStyle=orthogonalEdgeStyle;rounded=0;orthogonalLoop=1;jettySize=auto;html=1;fontSize=12;" edge="1" parent="WIyWlLk6GJQsqaUBKTNV-1" source="uXov4pzuhe1dhY30T7Ek-28" target="uXov4pzuhe1dhY30T7Ek-33">
          <mxGeometry relative="1" as="geometry" />
        </mxCell>
        <mxCell id="uXov4pzuhe1dhY30T7Ek-28" value="&lt;ul&gt;&lt;li&gt;composer自动加载支持&lt;/li&gt;&lt;li&gt;注册自定义命名空间&lt;/li&gt;&lt;li&gt;加载runtime目录下的类库映射文件&lt;/li&gt;&lt;li&gt;自动加载extend目录&lt;/li&gt;&lt;/ul&gt;" style="rounded=0;whiteSpace=wrap;html=1;align=left;" vertex="1" parent="WIyWlLk6GJQsqaUBKTNV-1">
          <mxGeometry x="520" y="300" width="240" height="60" as="geometry" />
        </mxCell>
        <mxCell id="uXov4pzuhe1dhY30T7Ek-34" value="" style="edgeStyle=orthogonalEdgeStyle;rounded=0;orthogonalLoop=1;jettySize=auto;html=1;fontSize=12;" edge="1" parent="WIyWlLk6GJQsqaUBKTNV-1" source="uXov4pzuhe1dhY30T7Ek-30" target="uXov4pzuhe1dhY30T7Ek-33">
          <mxGeometry relative="1" as="geometry" />
        </mxCell>
        <mxCell id="uXov4pzuhe1dhY30T7Ek-39" value="" style="edgeStyle=orthogonalEdgeStyle;rounded=0;orthogonalLoop=1;jettySize=auto;html=1;fontSize=12;" edge="1" parent="WIyWlLk6GJQsqaUBKTNV-1" source="uXov4pzuhe1dhY30T7Ek-30" target="uXov4pzuhe1dhY30T7Ek-38">
          <mxGeometry relative="1" as="geometry" />
        </mxCell>
        <mxCell id="uXov4pzuhe1dhY30T7Ek-30" value="// 注册错误和异常处理机制 &lt;br&gt;Error::register();" style="whiteSpace=wrap;html=1;rounded=0;" vertex="1" parent="WIyWlLk6GJQsqaUBKTNV-1">
          <mxGeometry x="320" y="600" width="120" height="60" as="geometry" />
        </mxCell>
        <mxCell id="uXov4pzuhe1dhY30T7Ek-33" value="&lt;ul style=&quot;font-size: 12px;&quot;&gt;&lt;li style=&quot;font-size: 12px;&quot;&gt;error_reporting(E_ALL); // 报告所有级别的错误&lt;br style=&quot;font-size: 12px;&quot;&gt;&lt;/li&gt;&lt;li style=&quot;font-size: 12px;&quot;&gt;set_error_handler([__CLASS__, &#39;appError&#39;]); // 接管错误，转化为异常，记入日志&lt;br style=&quot;font-size: 12px;&quot;&gt;&lt;/li&gt;&lt;li style=&quot;font-size: 12px;&quot;&gt;set_exception_handler([__CLASS__, &#39;appException&#39;]);接管异常处理，记入日志。判断cli还是web模式，将异常反馈给用户。&lt;br style=&quot;font-size: 12px;&quot;&gt;&lt;/li&gt;&lt;li style=&quot;font-size: 12px;&quot;&gt;register_shutdown_function([__CLASS__, &#39;appShutdown&#39;]); 如果在脚本执行期间发生了致命错误，则会通过 &lt;code style=&quot;color: var(--tw-prose-code); caret-color: rgb(55, 65, 81); background-color: initial; border: 0px solid rgb(217, 217, 227); box-sizing: border-box; --tw-border-spacing-x: 0; --tw-border-spacing-y: 0; --tw-translate-x: 0; --tw-translate-y: 0; --tw-rotate: 0; --tw-skew-x: 0; --tw-skew-y: 0; --tw-scale-x: 1; --tw-scale-y: 1; --tw-pan-x: ; --tw-pan-y: ; --tw-pinch-zoom: ; --tw-scroll-snap-strictness: proximity; --tw-ordinal: ; --tw-slashed-zero: ; --tw-numeric-figure: ; --tw-numeric-spacing: ; --tw-numeric-fraction: ; --tw-ring-inset: ; --tw-ring-offset-width: 0px; --tw-ring-offset-color: #fff; --tw-ring-color: rgba(59,130,246,0.5); --tw-ring-offset-shadow: 0 0 transparent; --tw-ring-shadow: 0 0 transparent; --tw-shadow: 0 0 transparent; --tw-shadow-colored: 0 0 transparent; --tw-blur: ; --tw-brightness: ; --tw-contrast: ; --tw-grayscale: ; --tw-hue-rotate: ; --tw-invert: ; --tw-saturate: ; --tw-sepia: ; --tw-drop-shadow: ; --tw-backdrop-blur: ; --tw-backdrop-brightness: ; --tw-backdrop-contrast: ; --tw-backdrop-grayscale: ; --tw-backdrop-hue-rotate: ; --tw-backdrop-invert: ; --tw-backdrop-opacity: ; --tw-backdrop-saturate: ; --tw-backdrop-sepia: ; font-size: 12px; font-weight: 600; font-family: &amp;quot;Söhne Mono&amp;quot;, Monaco, &amp;quot;Andale Mono&amp;quot;, &amp;quot;Ubuntu Mono&amp;quot;, monospace !important;&quot;&gt;error_get_last()&lt;/code&gt; 函数获取错误信息。如果获取到了错误信息，且该错误为致命错误，那么会创建一个 &lt;code style=&quot;color: var(--tw-prose-code); caret-color: rgb(55, 65, 81); background-color: initial; border: 0px solid rgb(217, 217, 227); box-sizing: border-box; --tw-border-spacing-x: 0; --tw-border-spacing-y: 0; --tw-translate-x: 0; --tw-translate-y: 0; --tw-rotate: 0; --tw-skew-x: 0; --tw-skew-y: 0; --tw-scale-x: 1; --tw-scale-y: 1; --tw-pan-x: ; --tw-pan-y: ; --tw-pinch-zoom: ; --tw-scroll-snap-strictness: proximity; --tw-ordinal: ; --tw-slashed-zero: ; --tw-numeric-figure: ; --tw-numeric-spacing: ; --tw-numeric-fraction: ; --tw-ring-inset: ; --tw-ring-offset-width: 0px; --tw-ring-offset-color: #fff; --tw-ring-color: rgba(59,130,246,0.5); --tw-ring-offset-shadow: 0 0 transparent; --tw-ring-shadow: 0 0 transparent; --tw-shadow: 0 0 transparent; --tw-shadow-colored: 0 0 transparent; --tw-blur: ; --tw-brightness: ; --tw-contrast: ; --tw-grayscale: ; --tw-hue-rotate: ; --tw-invert: ; --tw-saturate: ; --tw-sepia: ; --tw-drop-shadow: ; --tw-backdrop-blur: ; --tw-backdrop-brightness: ; --tw-backdrop-contrast: ; --tw-backdrop-grayscale: ; --tw-backdrop-hue-rotate: ; --tw-backdrop-invert: ; --tw-backdrop-opacity: ; --tw-backdrop-saturate: ; --tw-backdrop-sepia: ; font-size: 12px; font-weight: 600; font-family: &amp;quot;Söhne Mono&amp;quot;, Monaco, &amp;quot;Andale Mono&amp;quot;, &amp;quot;Ubuntu Mono&amp;quot;, monospace !important;&quot;&gt;ErrorException&lt;/code&gt;&lt;span style=&quot;color: rgb(55, 65, 81); font-family: Söhne, ui-sans-serif, system-ui, -apple-system, &amp;quot;Segoe UI&amp;quot;, Roboto, Ubuntu, Cantarell, &amp;quot;Noto Sans&amp;quot;, sans-serif, &amp;quot;Helvetica Neue&amp;quot;, Arial, &amp;quot;Apple Color Emoji&amp;quot;, &amp;quot;Segoe UI Emoji&amp;quot;, &amp;quot;Segoe UI Symbol&amp;quot;, &amp;quot;Noto Color Emoji&amp;quot;; font-size: 12px; caret-color: rgb(55, 65, 81); background-color: initial;&quot;&gt; 对象，将错误信息托管至该对象中，并通过 &lt;/span&gt;&lt;code style=&quot;color: var(--tw-prose-code); caret-color: rgb(55, 65, 81); background-color: initial; border: 0px solid rgb(217, 217, 227); box-sizing: border-box; --tw-border-spacing-x: 0; --tw-border-spacing-y: 0; --tw-translate-x: 0; --tw-translate-y: 0; --tw-rotate: 0; --tw-skew-x: 0; --tw-skew-y: 0; --tw-scale-x: 1; --tw-scale-y: 1; --tw-pan-x: ; --tw-pan-y: ; --tw-pinch-zoom: ; --tw-scroll-snap-strictness: proximity; --tw-ordinal: ; --tw-slashed-zero: ; --tw-numeric-figure: ; --tw-numeric-spacing: ; --tw-numeric-fraction: ; --tw-ring-inset: ; --tw-ring-offset-width: 0px; --tw-ring-offset-color: #fff; --tw-ring-color: rgba(59,130,246,0.5); --tw-ring-offset-shadow: 0 0 transparent; --tw-ring-shadow: 0 0 transparent; --tw-shadow: 0 0 transparent; --tw-shadow-colored: 0 0 transparent; --tw-blur: ; --tw-brightness: ; --tw-contrast: ; --tw-grayscale: ; --tw-hue-rotate: ; --tw-invert: ; --tw-saturate: ; --tw-sepia: ; --tw-drop-shadow: ; --tw-backdrop-blur: ; --tw-backdrop-brightness: ; --tw-backdrop-contrast: ; --tw-backdrop-grayscale: ; --tw-backdrop-hue-rotate: ; --tw-backdrop-invert: ; --tw-backdrop-opacity: ; --tw-backdrop-saturate: ; --tw-backdrop-sepia: ; font-size: 12px; font-weight: 600; font-family: &amp;quot;Söhne Mono&amp;quot;, Monaco, &amp;quot;Andale Mono&amp;quot;, &amp;quot;Ubuntu Mono&amp;quot;, monospace !important;&quot;&gt;appException()&lt;/code&gt;&lt;span style=&quot;color: rgb(55, 65, 81); font-family: Söhne, ui-sans-serif, system-ui, -apple-system, &amp;quot;Segoe UI&amp;quot;, Roboto, Ubuntu, Cantarell, &amp;quot;Noto Sans&amp;quot;, sans-serif, &amp;quot;Helvetica Neue&amp;quot;, Arial, &amp;quot;Apple Color Emoji&amp;quot;, &amp;quot;Segoe UI Emoji&amp;quot;, &amp;quot;Segoe UI Symbol&amp;quot;, &amp;quot;Noto Color Emoji&amp;quot;; font-size: 12px; caret-color: rgb(55, 65, 81); background-color: initial;&quot;&gt; 方法处理该异常。最后将buffer中的日志写入文件。&lt;/span&gt;&lt;/li&gt;&lt;/ul&gt;" style="whiteSpace=wrap;html=1;rounded=0;align=left;fontSize=12;" vertex="1" parent="WIyWlLk6GJQsqaUBKTNV-1">
          <mxGeometry x="477.5" y="490" width="325" height="280" as="geometry" />
        </mxCell>
        <mxCell id="uXov4pzuhe1dhY30T7Ek-36" style="edgeStyle=orthogonalEdgeStyle;rounded=0;orthogonalLoop=1;jettySize=auto;html=1;exitX=0;exitY=0.75;exitDx=0;exitDy=0;entryX=-0.033;entryY=0.9;entryDx=0;entryDy=0;entryPerimeter=0;fontSize=12;" edge="1" parent="WIyWlLk6GJQsqaUBKTNV-1" source="uXov4pzuhe1dhY30T7Ek-30" target="uXov4pzuhe1dhY30T7Ek-30">
          <mxGeometry relative="1" as="geometry" />
        </mxCell>
        <mxCell id="uXov4pzuhe1dhY30T7Ek-41" value="" style="edgeStyle=orthogonalEdgeStyle;rounded=0;orthogonalLoop=1;jettySize=auto;html=1;fontSize=12;" edge="1" parent="WIyWlLk6GJQsqaUBKTNV-1" source="uXov4pzuhe1dhY30T7Ek-38" target="uXov4pzuhe1dhY30T7Ek-40">
          <mxGeometry relative="1" as="geometry" />
        </mxCell>
        <mxCell id="uXov4pzuhe1dhY30T7Ek-38" value="实现日志接口" style="whiteSpace=wrap;html=1;rounded=0;" vertex="1" parent="WIyWlLk6GJQsqaUBKTNV-1">
          <mxGeometry x="320" y="740" width="120" height="60" as="geometry" />
        </mxCell>
        <mxCell id="uXov4pzuhe1dhY30T7Ek-43" value="" style="edgeStyle=orthogonalEdgeStyle;rounded=0;orthogonalLoop=1;jettySize=auto;html=1;fontSize=12;" edge="1" parent="WIyWlLk6GJQsqaUBKTNV-1" source="uXov4pzuhe1dhY30T7Ek-40" target="uXov4pzuhe1dhY30T7Ek-42">
          <mxGeometry relative="1" as="geometry" />
        </mxCell>
        <mxCell id="uXov4pzuhe1dhY30T7Ek-40" value="注册类库别名" style="whiteSpace=wrap;html=1;rounded=0;" vertex="1" parent="WIyWlLk6GJQsqaUBKTNV-1">
          <mxGeometry x="320" y="880" width="120" height="60" as="geometry" />
        </mxCell>
        <mxCell id="uXov4pzuhe1dhY30T7Ek-42" value="" style="shape=image;verticalLabelPosition=bottom;labelBackgroundColor=default;verticalAlign=top;aspect=fixed;imageAspect=0;image=data:image/png,iVBORw0KGgoAAAANSUhEUgAAAggAAAHdCAYAAAB454FiAAAAAXNSR0IArs4c6QAAIABJREFUeF7sfQV4XWW29nv8nJzIibu7191doC0tRYoOMsY4o/fOwDB35g53fO4McOfHYaBAaQs16u5pkzTu7nLix+V/1kqTJrW00JaGfuuhT2nO3p+8e5+s91sqSU5OduK82B0OWG22gX+KvwUCAgGBgEBAICAQuEMRkAiCcIc+ebFtgYBAQCAgEBAIXAUBQRDE6yEQEAgIBAQCAgGBwCUICIIgXgqBgEBAICAQEAgIBARBEO+AQEAgIBAQCAgEBAIjIyAsCCNjJK4QCAgEBAICAYHAHYeAIAh33CMXGxYICAQEAgIBgcDICAiCMDJG4gqBgEBAICAQEAjccQgIgnDHPXKxYYGAQEAgIBAQCIyMgCAII2MkrhAICAQEAgIBgcAdh4AgCHfcIxcbFggIBAQCAgGBwMgICIIwMkbiCoGAQEAgIBAQCNxxCAiCcMc9crFhgYBAQCAgEBAIjIzAiATB18cHSqUS9Q0Nl4zm7u4OV60WrW1tsFqtV51N6+ICi9U67DqVSgWtVovu7m7YLtMkysXFZXBMGt/pdEKpUAASCf/caDTyz0ikUinUKhWo4ZTFYoGXlxf6+vpgMplA66Sf0f9fTujeAH9/6Ds6LnuNQqGAQi4fnJfGsNvtMJvNPJxEIoGHhwfMJhOMF80hl8uh0+lgMBj4jxCBgEBAICAQEAiMBgSuShBkUinmzJ7Nivbk6dPD9kNKNTUlBe5ubjiblTWi8ouNiQEp/PKKCvT29vJYpDhjoqNRVVWFtvb2S/CaMmkSK3aJVIq2tjb+/8DAQCYFarUa2dnZgwqZlHhoSAiPUVtXhwnjx6Oyqgp6vR6TJkxAfkEBOjo7+XO6lhS6RqMZJBcpSUlobGxE65B1kMKne4ICA+Ht5QXHEDJC5KC0rAyurq4wGgxISEhAc3MzGhobB/dBGEWEhyMqKorH7uzqGvysrbUVZotlNLwjYo0CAYGAQEAgcAcicFWCQNaDWTNn4siRI2hpaxsGj5ubGyvhpsZGlJaXX9YCMPQGb29vxMXEgM77FRUV0Lq68ok/KCiICUNLaytf3t7Whp7eXiYBa+65B7l5eazMycJAJ3CyDJAiHpOejr379qG7pwdEZFy0Wvj7+bFFoq6+HmPS0lBVXc1WhoT4eGRmZbFCNhmNrNTj4+N5fjrxkz3Cx8cHPT09MJ23CtBayLJRV1fH95MlgNbocDjg4e7OROXM2bOIiIhggkPXkJWlprZ2kIQQ+QkJCWFLA5EIsm4QsSHsTp8+PUhY7sD3TmxZICAQEAgIBG5zBK5KEMaNHcuKc9/+/WxSHyqkGEkB5uTkDCr3K+2VTPCenp48BrkkyE3g5e0NmUwGL09PVrrtej3fXl1Tg/b2diYIq1au5Ln9/f3h5urKBIHcHSWlpVi0YAEOHT7MBIEU/tj0dFbiZB0gIesEndhtViv/jO7tMxiQnZMDN62WT/xdXV1smSCFnZyUhFMZGXA6HIPbIMVO96SnpqK3r48tEkRU/Hx9kZ6WhqzsbMTFxaG4uBhxsbGDBCEsNBSRkZG8HiIZRCBoLFo7ERMiJHQvjS1EICAQEAgIBAQCtyMCVyQIZH6fPWsWqqurUVhUNGztpHDT0tLYL5+Tmzuie4FOzUQ2KI6AFCOZ3kl5ElGIioxk0z0pfRJyIwzEI1wrQSCiQUqe1hUeGsqEwUOng1wmY7JBFgVyYRBBIWsFuUVIsTOhkMv5WrImUAzCgBCxIAsEERYiH2QJsBFJcjohVyjYEnElghAdHc3jkhuB/p+uJxzJIqPWaFBSUsJzDcRP3I4vhliTQEAgIBAQCNzZCFyRIERGRPCp+vCRI3xKHyo+3t58gialV15ZOaKiIwsCWQ6mTJmCmpoaFJeU8HB8oo6NZYJAMQIDQq4CUshkoSCTPQU40rVEHqQyGTo7O9m3T7EGdKonK0B4WBjCw8M5yLCsrIzXTsqdhMYhKwURHXIDkMuC5iWXQVd3N6ZNmYKzmZlMLIi8sJvA6WRCQGRFpVSykqeYCJqzoaGByQa5My5nQSDCQkJz0r5TU1PZJVFfX4+i4mK2XAhycGd/8cTuBQICAYHA7Y7AZQkCKfSpkydz1D752UkxDwiZxynojlwM53JyWDlfq5CiJYVLijg2NpaVMbkeSBmTi4EsDKWlpRzMSLEJ5NevqKxkJUsZD5QFQQRB397eH9xYXY3Kykr0GY0YP3YsK3ZSwhTnQAGU9XV1PC4pYyI89DfdQ3PGxMTwtZS9QNYSsgYkJiRwQOS5c+f4WiIBNC+RD7JQhIaGctAjBW1SbAPFQlyOIBAeNAddHxURweM3NTVxoCKRBpKO8+4NQRSu9e0R1wkEBAICAYHArUTgsgSBIvYnTpiAgsJCDtIbiN6nhbloNEhLTYXVZmP3wkjpjUM3ExAQAMpmIAVMBINO2hS8SEqytbWVyQMpfAocpMDDlStWYMfOnWxNoBgEsg5IJRKUlJVhyaJFgzEIRChI0Q8IuTSIxBBBIAvBgNBaG5uaoPPwQHRUFGrq6hAWEgL/gACOCyAyQOSI5iFXBGc+dHTw6Z8UPrkLSktKIJPLERwUhBMnT15CEOi+SZMmMU5kgSBCcDGJ8tTpeL8UD3G59M5b+QKIuQQCAgGBgEBAIHA5BC4hCKTU6OROqX1kPRiqYGmAgQC9svJyNu9fq5DCnz5tGivc3Px8vu1KLgb6jJT4zBkzmCBQwB/FDdhtNs4yoPTC5UuXDhIEUrh0kiehuAIiHTQ2WSYoTXEgrZKIR1FREchFEhYWxu6Cgc/o3gELQsF5dwfPZzKxoqfrKRDx4KFD7FqYOX06jp88yZYMcmnEx8Wx+4IIFc1P8xIZcnVzQ0ZGxjCYyLpB5CgvP18QhGt9gcR1AgGBgEBAIHBLEbiEIJCCHTduHJvRyYIw1L1AQX+kEAODgthnTxH61ypELCZOnIhDhw6xq4BO6hSkSONR+t9AXAKZ9elUTcqYTu5Hjx3jQEZS6vRzCjYkN8Fdy5YNEgRaAylcUtyBAQEgSwWZ/8kSQu4Grr3Q0wOD0cjLpfHoGspMoJP+gFBGBa1rIKOCyAPFWZAVgIIsqSAUrZNiJCgG49CRIyByQjiwS2NImiONmZSYyGSBiMBQIeJA1gxK4RQWhGt9g8R1AgGBgEBAIHArEbiEIPj6+SE5MREFRUUcjDfUR04KeMK4cWxVoPiDa/Wfk9KdMH4c1RxkYkEndVLo9IcULClxyjYgob+bmpuxcP58kJWCfP3kYqA4BKpT0KbXw2G3cx2EPXv3cqogxTRQaiFZGcj8T+umzAWyIpArgeoWUA0EMuuTkieCQELujIGAQvo3pT6SC4OIEQkrb4mESYxGrebsA3cPDyYuRJwoboFcD0QsQoKDmTwMrThJgZLkSmlpbh72TCnFk9wOhKEgCLfydRdzCQQEAgIBgcC1IjCMINBJ2c/fn0+9QyseDgxGcQDkfqBgwOaWlmudg0/lpJTJvUCmd1K4FKB4OaHaBZQemJKSwqmPZBEgYkJ1DMjcT2ukYkkkVH+AzP+UlRAdGcnEhQgGZV0MBAPSPGR9oD2RdYRIASl5UvAXxwZQZgQRAqpbMCCUQUFrIKsC3UPuDorJoABHQ18fWyJobIvZzLiQVWJAyE1DBGKA/Az8nGo0kLujtrZ2cJ3XDKa4UCAgEBAICAQEArcAgUsIglQuZ+U9oIyHroEULEXkU1VArglwHUJjDijta7mN5qLTNf1NQlaDgR4MdOonV8TAeERA6LqrBUzSNVQngVMlz5OTi9fDcQvnazEMrJGCF3ntVGbZ6WQLBcUmkNWDxhywhNBaLy4mRWuie4e6aWjcgWJO1xPgeS2YiWsEAgIBgYBAQCBwoxAYsVnTjZpIjCMQEAgIBAQCAgGBwOhBQBCE0fOsxEoFAgIBgYBAQCBwyxAQBOGWQS0mEggIBAQCAgGBwOhBQBCE0fOsxEoFAgIBgYBAQCBwyxAQBOGWQS0mEggIBAQCAgGBwOhBQBCE0fOsxEoFAgIBgYBAQCBwyxAQBOGWQS0muhIClC56rUW3BIoCAYGAQEAgcGsQEATh1uA8qmeRyyRwVcthsTlgMF9f/YurbdxF64rg0AhYLWbU1lRyfQmpVIbQiGgEBYfB4XSgrroC9bXX3vNjVAMtFi8QEAgIBG4jBC4hCFo3D/gGBKGpvhY93Z03ZanUsjk6NpELLtXVVNyUOW70oONjPaFWSnGyUA+7g8okXZAIfy3C/DTIr+5Ge7cFGqUUU5K8EeKjQa/RhqyyTlQ1GxDu74LUSA9olDJWtHvONrPSvRXippFjRqoPbHYH9pztr4LpoVVgcoIX/222OZBRrEdju+mS5UQHavHIgnAcy2/Dnsxrr6B5tX15eHpj/OQZCIuMQV5WBs6dPQmr1QKFQokFy1YjKXUcykvzUZibheKCnFsBkZhDICAQEAgIBIYgIJk6daqTzLtUOZE6JUbEJGD8lFk4cXgvqitKbgpYCqUS99z/NbS2NOHArk9vyhw3etBfP5oMs9WOP28ouUSp3zM9GFOTvfHq9gpUNPXhm3dFYnaaH2pb+hDkrUFpfS/+vrkMcSGuuHtKIBLC3NFjsOI7/8hGj9F2o5d62fHmj/XDD1bHwmC24f7fnuJriMB8bUkE4kPcIJdLeG8ZxR2X3B8f6oYnFkVg19lm7M/+4gSBSMD4KTORNm4Kzp09gYKcTPT2dLGbgd6NhcvWwNcvAJ989BZMJiPMpktJyy0BTUwiEBAICATuYAQkc+bMcVKJYWqExH0SElIxdfYiHNqzFeUlBZdAQ7/A/QKC4OqmQ0dbC9rbWmC3n1dyEgn8/YPg6x+Ivr5eNNbXwGQ0DI4REBQKX/8gdHd1YO6iu9HUVI+dn3zAn5O5OSAoBHK5ku8bsF7QfL5+gXA6nNC4aiGBBPU1law4BoSuCY+IRUdHG9pbhzdGomti41NgMPShvrZy2H7UCimSw93h66FCfk03IgJckFPehS6DDWRWj/B3QVSAKxr1Jvx8XTxOF+rx8tYK2GwO+HioMCbKA70mG6Yl+yDUT4O/fFwKdxcZ/vc7Y/HvvdXYn9WK8bE6PLooHM+9lY/KJiO83ZX40ZpYULXnn76ahz7TBYJAc0b6axEZoEVdmwEuahlqW4xo6TLzuv11KqRF6aCQAeUNfShr7IPN3m/NcNPIMCneG1qNFM0dZmSXdbFVgITG/c1jySAriM5Vgcnf3c8/VymkCPBSY/mkQExN8sKfPy5FdvkFq5GXqwIpke58HbXrzirv5LEHxFUtw5QEb/5neVMv3F3kKK3vY+uIRiVFSrgHArxUMJrtOJbfDqOlfz0+fgFYdNe9aGttxuG924e9IwMEQefphffffOkO/mqKrQsEBAICgS8XAUl6erqTmh9RvwBqSHQ1gqDRaDFl1gKMnTiNT3tOhx2H9u5AXnYGm4fHTZ6BeYtXweGwcw8CMg0f2rsN3Z0dbDJesGwNnE4HfyZXKJCfm8kEwcfXH7MX3Y2AwFBq+Ej/4aN3/4WWpgZ4efti2T0PQufpw/eq1BqUFOZg/85PYejr5X4IianjsGLtoyg4dxbbNr/X37fhvAQGh+HRb/wQfT29+L+/vjDYPVGrluHJJZFYNjkAZosDpLr8dCo8+ccMlDcaMDfdB9+5JwYyqQQWqxORgS544Z0CbDnRiGAvNf76TDrIbN9rssNPp8buM03456flWDzBD08ujcKq54+ze4GUZkKoG4pre5h40Hj//M4Y1LYY8JdNZTBZ+teqkEsxf4wvnlkZzR0lyfXg5a7Ef71bgP3ZbYgN1uJP30hnZU1uAqPFjr9vKsPh3DYEeKrwP0+lIcxfg85eK7QaOTYersO/tvcTIiIyzz2ShFOFejw4PxRTv3eAlTaJRAI8vigcE+OIIJSgvPFCs6klE/3w47XxTDAKqnuYAJU19PJ9RB7+8PU0RAW6oLPXBqVCipoWA377XiEMJju+vSIac8f4MgEiUnS6qAPP/qvfVRARFcfvQubpI8g8fXTYN0AQhC/3F4KYXSAgEBAIDCAgSUlJcfr4+HCjo5EIgl9AMO579BvIzjiOrNNHMWfRCtDPPvnwTXTo2/DAY99GV6ce+3d9goSUsZgxZzH279qCwtxM/kzt4oIP334Frq4e+NozP0ZO1mkmCBOmzEbKmIk4sPtTNDfU4aEnv4+ujnZ8/P6r8Pb1x70PPYWm+jrs2bGRr5s2ayHee+MfaG1u5H14evtizqK7UV5ciJzME8OerlKpwl33PozO9nZe14DMTvPBD9fE4oP9tdiR0YRfPJiAldODMP6be+HtrsKvHklAR7eFleLyKYF4enkkvv6Xs8iv6sFvHk/ChDhP/neYvxY/fzAenx5rwFu7qvHT++P51P3IixmDsQpSCTAQthDkrcZfvpmOz0414v2DdbCeP+WTBeJXDyWitdOMv20qw4qpgXhqeSSe+MMZFNb24OcPxGNqojee+ssZJibzxvriXEU3uwTWzQvFMytisPY3x9FndjBJIZLxwcE63u4zK6MwIdYL7+6txp+/mY77/+skSur7Fb2HVs7K3F2jwN82laK584KFgIiBp6sSj8wPRWyoO55/Ox8t5z9/elkEnloWiXW/PY0+ix1//HoqE6Lvv3QOkxI88cPVsXjts0oczm3HzBQvjI3V4ffr+11W0XFJmL1gOU4d3Y/8nLOCIIjfRwIBgYBA4DZEQDJ58mQndWi8FoIQGBKONeuewo7N76OitJBjFcZPnolN619HW0sTNGoNouOTodG6wsvHD1GxiTh+cDf7mZ945qeorizBgZ1bIVfI8dCT30NjQy0ThFkLlrMVoDg/G8a+PiSkjoWrqzte+tPzTBDuvvdhlBXn4+j+nQgMDsWs+cuxf+cWtLY0fG5IH1kQhrnpvvjjhhIU1vTgJ2tjsWRSIOb/5DASw9zxX48l4d191fj0eCNWTw/CwwvD8cOXz6G6xYDdv5+JPZlN+OOGUqRFeeAH98Rg++kmbDxSj398Zwz6jDb8xxv5/R0gL5Jx0R544fFkvPhBCU4UtA9ekxLhjucfScI7e6qx9WQj1swIwsMLwvHdl7JR12rELx6Mx/LJgdh8tJ6DCXMqutFtsPH9D80LZWvHztONyCrtxMkiPdq7rUxQwvxc8OtHkpBV3oEdp5qw4bmpePaVbBzIaeOVhfio8ey9cahsNrDFwXzeojGwbC83BX64OgaQSPHc2wWD6Ygvf3csTFY7fvR/OWwl+fUjieg1OfDc2/mYmeKNH94bh8Z2I47nt+FIXjsa2k2D7hBBED73aytuFAgIBAQCtwwBycSJE51arfaaCEJQSDhWr3sK2ze9h8qyIiYHRBKIIPR0deCp7/8nlBRD0FgLckd4eOhwYPfWCwShogQHdp0nCE98F42NdUwQ6DQ5cdocNDfWw2LpP8F2tLdh97YN/QRhzcMoLcrDsYO7bggwZOb/9oooRAa44C8fl6G+3Yh/fX8cpFIJnv7rWYyP88R/PhiP368vRkZJB55ZEY2J8Z74+et50HdbcOqf8/Drt/PwyfEmzEr1wdeXR+Lt3dU4lNOGt382AUdz2vHytnJ2f/h5qNBntqHH0B9rsHi8H755dzR++mouBy+SkJl/UrwXfnZ/HH6/vghnSjvx3ZUxGBerw89ey0Nzhwl+OiUeWxiO8bFeCPbRIKNEj79vKkV1i5HjD9bODsGsVF8mBGTWf/6dAs6eWDUtiC0E7d1mdPdZMS3FF795Ow8fHeknVwmhrhwTQYRh/f7aS/AN9FLjuYcTUVzXyxYGEnKHvP8fk3Agqxkvb62Ej4cS/3hmDI7mteOlLeWcxUHuhaUTAxAT7Maum5+/loM9ma18f2RMAuYuXoEzJw4hJ7M/YHJAhIvhhrziYhCBgEBAIPCFEbisi2HanMU4cXgPqsqLBycwGvrgHxiCex96GkcP7OQ4gEnT5yI6LhmbP3iDgwy/+cNf4YO3XkJRXjZiE1Ixa/4ynDy6nwnCI0//gCPVd23ZAJVajQef+A4qyoqYIEybvZCVxoFdW6Bva+EgR7JoNDXUXhNBUGtcOHCyt6eb7x8qcrkCQaERsFktaKir5o9cNXJ8f3UMvN2U+McnZZBJJHj1xxOw/WQD/rqpDAvG+eHbd0fjv98v5NP7zx5IYFfAf68vgotKhp2/n8kK71i+HmtmBmNOui+7Iqqb+/Dqs+OxO6MZ/95Xw2mNP14bhw8P1uGzjCaee938UKyeHozfvV+EqqY+2J1O9tkvGu/PROO/3y9CfZsRv1iXAJPZjt+tL4bD4URssCvqWg18Cn9ofiimJHrjDx+VoKSuB1GBrujqs6C104JpSV547pFEdlMQYfnB6hj4e6pxLK+N4w6+vSoGHx+qwUtb+uMTiAyRhWBnRjN2nG6E3QEmMxRTQIo+xFeDXz2chL2ZzfjoUB2vldIi3/zpBGw5Vo9399VifIwOzz+WhJc+Ked90j3k4iBiE+brwte+t6+G10RCcSEL77oXFSUFOHFkL9c/EAThC3+XxQACAYGAQOCGIiAZM2aM09fXF93d3ejq7uYgRTrddbS3cjzBgOzethFaVzcsXrEWLi6uaG6q5yI3ddWVOLxvO5QKFZ74zk9QX1uNmspSBIVEICQsEgf3bGOCQFaCMROnI//cGXYxpIyZxMGNOz/9kF0R0+csRmdHO4x9vUhKG4/c7NNMGEayINApncjFfY9+EzmZJ5lwDDXte3r54Bs//BU69W34f3//HRwOBwf6Pb44Aksn+nNdA4rGXzU9GL98M5+DEMmH/vyjicit6EZHjwULx/vjs9NN+L9tFRywt/HXU1HR0Iucym5MS/JmhfriB0VsRv/dE8kI9dVw8CBlSDjgxP+sL+aTPsmSif74xvIoDvajsZs6THhrdw2mJHjhVw8nIKeyiwMNiTBsO9mEf22vQLC3Gq98fxzOlOhR325CeqQHuzr+ta0Schnw26+lwGi2IbOsC8nhbhxDQQTEy03JlpINh+t4LHI5/PvnE1HZ1IdfvdWfoZIY5saxGLQvyozQ95jx3r5atphQjQR3rQKz0nyRV9mF/Kou7D7bgtpWI/727XS4qeXYk9WMMVE6JIa74z9ez2PCQvtLjnBHZlkHfNxVmJTghV++kY9Txf3vk4vWjd8HymY4sm8HaqsrBjNhhAXhhn6/xWACAYGAQOBzIyCZP38+10Fob2+H2WKBztsP8Unp0Lq5DRt0347NnEVAqYrxyWOgcdFyumJBzlk+tdMYyekTEBEdz1kKFGRIqYi1VeWctuiu80Ta2MmcsaDXt3JuOwU2lhTkcHEcIgl0r0ql5s8pCLKvt4ctE4mpY9HW0nyFugwS+PoHYPzkWZzGSKRjaNlerasrZs5bzmmOR/fvYIJAQjUJFo7zh7tWjqomA6f7kX+fChp5uipw15RAhPm7oElvgkImZWWXVdbFloSV04KQHuWBjl4Luvts0PdacOhcK8cEjIn2wJwxvqwYG9qNOJzThryq7kEsfdyVmDvGD6F+LpzqSH56UsikzGlOIhc8p1yKs6UdyC7vApxOPDA3jNdM7giyatB8RbU97BYhAjMp3pPTItu7LEx6qKgR1VugDIaj+e2cYUCyekYwrHYHtp7oD/DUquWYnODJ6ZNUC4ECM8lSMCXRC+kxumHvAMVW7MtqQUldL2am+rB7hcYi/Mgqs+1kI9q6zBgTreM9ensoYTDakFvZha0nm4YRt7CIGMxecBeccHKwIsW0ULosE4Tl9yIiKhYnj+xjqw9ZkoQIBAQCAgGBwK1FQDJ37lynXq/n9D+7wwHrEHPvlZZCBIBK4trtdiYNQ4WUPX1msZguqa9Pp30iAENrGAy9Vy6X872UMnk9tflpXKrOSMrfeZ4ADB9XwZ9R+uVQITM6CSn9i+MJZTIJEwNKNyQT/1ChNEy1Ssb3DdQhGDafTAIXtZyLIV0mTvGKT/iqc0rA5Y6JVPQZ7bBdtCZK21QpZDyn9XxthJv9KmlUMq4Jcbn5qMYEfU5uDZP10mqRMpmMrUyU/tra2ojcrNOwWiygd2DshOmITUoDubUKcs+iOP/czd6KGF8gIBAQCAgELkJAkpaW5iRFT3KtBEGgKBC4UQiQu0oik8LQ28tkk8ieVuvGFiqyLlCtC/ojRCAgEBAICARuLQKiWdOtxVvMJhAQCAgEBAICgVGBgCAIo+IxiUUKBAQCAgGBgEDg1iIgCMKtxVvMJhAQCAgEBAICgVGBgCAIo+IxiUUKBAQCAgGBgEDg1iIgCMKtxVvMJhAQCAgEBAICgVGBgCAIo+IxiUUKBAQCAgGBgEDg1iIgCMKtxVvMJhAQCAgEBAICgVGBgCAIo+IxiUVeDYGBcttUO6G8pAAmY3/VSCECAYGAQEAg8PkRuK0Igs7fFVSlsKu175Lqha46Ddy8XdDZ3Atjb3/HxxshA3N2tvbBeVF1whsx/mgfQ65QICQsCv4BwZDKpKgqL+HSx9dT6fLzYqDz9Aa1GG+qr+Gy3FcSIghTZsxHUvp4bN+8nq+/WKj6J/UOoVLh1BmU+n7cjhKlkyLMQwa5FKCCmMdrrTAPLwB6Oy5brEkgIBD4CiJwWxGEuIkhkEglKM9sgM164beiXClDWKIfQuJ9UHq2Hk0VHTdMQcVPCuF+y2WZ9bBfpiTwV/CZX/OWSPFSw61l9zwEi9nEJ/PMjGMoLcwZ7GlxzYN9jgujYxMxacY8ZJw4hLKivKuOEBYRjSUrH0DmqSPIPnMCNpt12PWubu7c+yF13CTs2LQeeTln4DhfQfRzLO2m3TIxSI50Pxk81FJE6CT45UEjukzDS33ftMnFwAIBgYBAYAgCtxVBSJ4eDkglKD5VC5vlAkFwcVcjMi0APsHuaKzQoyq3CRZTf4tgD18XmA02qDRyyKgXgd4Iq7n/M1edmnsFyOVSuLir0NVmgNkwXHGkzAiHE+fnHEJ7GDxRAAAgAElEQVRKvipvSWLqOGg0LijMzYTxOk3v1N9i3MRpmDJzIbZtfA9dne3c9Mps6u9M6e3jj9DwSG7NXVNVhp7urkHYXN09EBwSzr036moqoW9vHfxMpdYgKDgM7h46tLY0oaWpnnuBkNCc4ZFx3KTL1c2NO3seP7QHxfnZ/LnOy4dJC62BOokajX38c4VCgbvvfRhKlQu2bXyXW38PFbJEzF20ApHR8Th76jAO79sxWMKZiAg1HnPXeUEmk3PTL2oURkJNpQyGHri4uMHD04vn7NBf2AtfExkDmVSGqoqSS4grNSfz8PRGY10NDIYLJaOlEiBQK0WwuxSdJgdquhww2QEXhQQaORClk+F7k9X43i4DOozDe1m4KSWI9pRCKZOgVG9Dh+nCTun+cA8JPFQStPQ5UdvtwADvlUmBMHcp/LUSdJvBc/ZaBfn4qnzXxT4EAjcagduKIPBpHkB5VuMwCwK5AcKT/dkFQH8qzjWir6v/t+L0Vcmw2e1seZArZNA3dKM8u5GJQOrMSLjoVFzfXyqXwm6xI/9oFXo7L/xGTZgcyr/UyzIbYLdd2lToRgN+M8abOG0uyBw/INSUipRcUV42xk6ajjmLVsDQ24MTh3YjP+csN9kaSQKDwzFlxjx4+wfA1y8QpYV5sFktyD2XwZ0XE5LTsWzVOsaWlHNbaxO2bHgHzY31CAwOw8Lla+AXGAy5TA5SQRve+Rcqygrh5u6BOYvuRlLaBO5SSffv2/kJsjKOwWa18lqnzV7Ibb/JvWEym7B768dMEKLjkrDivsdgMZmgUCrQ3tqMrR+/i86O/jbSYyfNwOz5y/DhO6+gsX54B8j45HRMnj4PEqkUNosFn235kLuQkvzol3+AzWqGVC6HUqni5lAHdm9Fd6cej37jh/DQeTFxoUZk1AJ928f/5g6lJNSyes26J+HtE4C//vfPYDRciH8gq8XcxSuRNm4KNr3/GoryswcJxJxwBdYmKbnRFSn6Y7U2bC21oNvcr7DjvGT41SzNJQQhQifDgykKBGj73RAkfz5hREWnA14aKe6JV2JcoBwmmxMucgl2lFmws8ICmx1YGq3EigQl+qxOUJ+yghY7NhZZ0GoYne/9SO+w+FwgIBD4YgjcVgRB56vllsBkBRiIB6D2xv4RngiI8kZrbRf8w3WoyGnkWASS2WvT0N7YzYrfJ8QD4an+qM5rQWttJ8bMi4ZCKcOZ3aVQKGQYszAGbbVdTDAGROen5XiHoXN+MUhv/d3L71nHynhA7DYbigvOcRtlEi8fP0yfswhjJ05HW2sz9mz9GKXFVzfZR0bHYeb8ZXyqJvJRV13B7ZjPnDzCypoIgIvWDZs/eBNePj547JvPIuvUMRzcsxUz5y9FYspYbNv4b7Q1N+Hp7/8n+vp68NYrf4JfQDDmLLyLiQopzBVrH4WXty8+fPsVPvX/9Pk/I+9cBnZt3YBxk2dh6uwF2LVlA8+57mvf4YZiRAB0Oi888NgzyM06iWOHdvM+3T088dCT3+W9H9qzbZAIkVVg4rTZiI5LRnVFKZLTxzOxoFbSJD//r79z2/EtH72FlHGTMXXmAuz7bDNKCnPx1Hd/Aeo8+dr//jd03r68hrzs00wgSGRyOWbMXQKlSoN9n20a5raguIeElLEIj4rDmRMH0dp84b3740ItzjZY8WGBBdND5VgQqcDGQgtyW/rJ25UIwtRgOeK8Zfis3Aq9wQEap6DNhlczzWxVWJeiwpFaGw5VWTE2UA5PlQRHaq1sRfiP6Wo09QJvZJsQ5iHlOXJb7WjqFQTh1n9rxYwCgdsfgduKIFwOLoVKjsjUACjVctQUtiBuQgjqy9v64xAcTsxam4rK3CbUFrXCw0eLiLQANFfp+XMiCIZuE0rPNkAqkyBxShisVhuKT9Xd/k/mOlaoUCohlUjBEZ4kTrByHOqHp1N+aGQMVt33GHp7evD//v67EWcgxThhymyMmTgN6994Cd3dHYP3aLWuiIxJhNbdAyqlin37FPy3e+sGLFi2Gjovb+zZtpFP3F5evlC5aNjMTu2c/fyDEBgSAVo3WQXIqvDe6/9AT3cnfvn7l/HphreQm3kacYlpmDFvCY4d3M0E4ZvPPofujg5UlRXxvWQVqK4ow66tHw2ua+k9DyIiKg5vvPSHQVcIuTLmL10Nu8OO/OwMLL57LU4c3oOczFOM00+e/zMTitPHDyA6NgmzF96FU0f3MYkhglBbWY5d2z6C1tUdq+57HPr2Znz26Ycj4ne1C/61XIvXMs3IaLRBJZfAQwn0Wpww9HtarkgQ1HIJIjwk8HORQiaVYE6EHB0mB/52yowgVykeTFZBowDONdtRrLejvtsBA7kRJMDX0tRI9JXhdL0NZR12VHba2WIhYnO/0KMUNwsEvrII3PYEQeOmQuLUMChVcnYrePhq0V7fjbKsBo41YIKQ04ja4ja4+2iZTDRXd6CpQs8Eoa/LiLLMRiYICVPCOLah+PRw8/Nof7qTZ8yHp5fP4DZI6dVVl6MwLwtKlQo6nTdiElLYny+TSnHm1BGcPXl4xG1fiSDQmGvWPcXWgLqaCkilMoSGRyHv3JkLBMHTG3u29xMEiieg03Rfby8iY+Jw15pH2FrQ2dHG2RESiRTvvvq3foLw4svY8tHbrLwvJgjfevZ5dks0NfYTPIpbqCwtRF52xuBeImMSsPaRr2Pz+jeYsJD4B4Zg5X2PMRaUvRAUEo6ivCzs2voxkwgiCGT5yDh+EFGxiZi14C6cPrYfBecJAsVXEPHRurphxdrHOAZh5w0kCGTu1ygkoLAaC6UuXIEgkEtheYwCU0MVrPh7LUCqnww13TYmCBTXQC6I6SFyhOsk8NNKcbLOho2FlAnhhE4twfwIBaK9+uMQarqc+LjQgvqeCxYEmsNJBFOEJoz4/RAXCAS+6gjc9gTB3ccFiVPD0Vbbib5uEzz93UCkofB4NYy9Fsxam4bGynZU5jRB5+eKsERf1JW0oaW638XgcDhQeKIGMrkMSdPC0N1u4HiDr5JMn7MYnt6+gwYEIgik1EhxJqSMwaRpc/mz0uJ85Jw9gd7zAXgjYXAlguDrH4SHn/oeMo4fwInDe+Hl489++IqyIlak5EKg4L79uz7l4D8iMOSeOLJvB8ZPnY2xE6Zy0GNLcyPmL17Jlo333/gnE4SfvfA3nDy6l5V1YupYUHzFgV1b2ILw+DefRXtbM8ckkLIngkIKn2IRBkQuV3DcgKGvFx+89TLHOJCVYsmK+1CYl422libEJqbA08uX5+zr7cbPXvgrss8ex5F9nyE2IRUTp83htZKrgiwIdM2nH73Nlo677n0EVaXF2LdzM09JFpGgkAiOl6gqLx6W3UHEydvXj10flBo6EPhI9/11kRb7Kq04WG0FpTbGe8twusGO6q5+F0OEhxS/neuC3x4xsgKn8BiVDHg4TYkeC/BJkYXdBj+crEaftd+CoFVIEOIu5awHikFYk6hEpE6GF48b2TpBc9DP9UYHpgTLMTtcyQQhu7nfbEFBjLPDFGjtsyO3VbgdRvp+iM8FAl91BG5rgkCBhwGRngiJ80Hu4SqY+izwDHAFpUOS0u9uM2D2fWkw9JrR0dQDynYgoRiD3g4jEwQiE601naBUSQ8/V5Rn1qOtfniE+1f5IccnpbEyJGVHyvR66hcMJQgDCpyw0mrdcM+DX4NCqeL0Qw+dN2ITkpGfk4nd2zYgNjEVM+cuRU9PJwceku//2MGdOHX0AOISUjBv6Sr2//d0dfKJndwF/RaELqx+8Ek+4ZeV5MPbxw+ePn7sqiCCMGn6XIyfMovnJKsEWQaO7N+BwtysYY9wyswFmLdkJV7+069ZKZPCj0tKY8sEZVMkJI/BkpX34YO3XmHF/Yvf/i/07S2oqSwDkR+r2Yz9Oz9Bc1M9EwQKNqR4CXKr0Jz7PvuE8SQh0rD2kW9wdsVLf/gVzOYLNTooW2P2guVInzAVn3zwJsqK8wfxX5esQpyPFOUddnYNkKn/0xIrGs6f5l2VEvxiugadJiea+xxo7HEgs9GGOZEKJHjLUNxuhxNOTA1RoK6bCIIJQW5SrE5QQiYBBx7GecnR0GvHOzkWtiA8nqbiayo67Ah0lUIqlWBToZkDHEmIXLw4X4MtRVZ8VGj5Kn8txN4EAgKBa0DgticIHj4uUGuVaK7u5JgDiknwC9NB39QNYw9ZEFLRUtMJi9HGftaO5h50tfQXWiKCQC4Fck3IFFL0dBg5SHG0Zitcw/O85BIy7VNMgsN5/SdCMv1TRoJ/YDD746kWwoBQah/56zVaV3Tq2ziFr6tDj8qyIj7dR0THIzQ8mk/W+tZm5GadhslkhIuLFvHJY/j0b7WYOa7BbrMjP+cMLGYzZ0wkpY3jbAJyT1isFtRWlbOVgBQufUbXENGpr61CeXE+zEPWReujrINvPfscjh/cg+OHdiM8KpbvJaVOAZxu7jq2TpQV5TMx+OkLf0Fx3jn09XXze1NRUsCuE3JhEEGgfbW1Ng6mbFLw4gAWKrWasxQ0Gi2OH97NhGjQmqFQIComkYs95Z/L4ABRtt9TiqhGgvFBcniqJeizOFHQStYDxzDTfrKvDJGeMs44aOlzILvJDneVBKl+Us5YIFLRaXaCsnMzGmxsYYj2knH8gloO9FmBnGYbpzpSnEGouxTp/jIQ+aDiS2V6O0raHUweSJbHKLEyQYEXDvVbLYQIBAQCdzYCtzVBuJZHQwSBshrqS9qZIAythsgxCJ1GTnukzxzCsXotkF7zNZQdQMGPpKAvZ5kgckAmfqtl+GmUfiZXKOF0OC4paESTE6mhsa3Wy59iaU56oFf6nMYgCwIp4/27toy4H45B2L2VUy3pPRmq5IkgUObD/p2bQe6Li8kIDU6WFtL7lF56sdBeaL/k6roYI8rQkUv6/f3XEyhIsQYUK0Buh8vdRxYEuuZy49KcRDjsjkvjDH42TcOuiJfPmDg1VYhAQCBwZyMw6gkCBSXqG7u5CNLFEhjtxZYFSoMUv/HurBedUjCJSJAVYiSZt3glBzTWVpdfcimlPJJbYsClMNJYo/nzND8Z2gxONIi0x9H8GMXaBQI3DIFRTxCoOJLD7rikdwOf7OTS/pMdHZeECASugIBarWFLxkA1x6GXUSVIOv1fzVrxVQGWrA70fRHWg6/KExX7EAh8MQRGPUH4YtsXdwsEBAICAYGAQEAgcDkEBEEQ74VAQCAgEBAICAQEApcgIAiCeCkEAgIBgYBAQCAgEBAEQbwDAgGBgEBAICAQEAiMjICwIIyMkbhCICAQEAgIBAQCdxwCgiDccY9cbFggIBAQCAgEBAIjI3BHEARKd5TKpNzcSchXDwEqRBSbkMLtp6legdHQd8M3SWWWpTIZl4MWIhAQCAgE7gQEbiuC4BXoxpXsOpt6B+sacGnlcF1/TQO7E4ZuM7ra+mCj+rLXKPGTQrlddP7RKh6XSjdTTwcam4QaO1GfhyuJq6eG76EyznbqkENNehQyeIe4o0dvhKHrQgnia1zSqLlMoVAiLCoWgYGhkMmkKC8t5BLH19PT4fNulhpQhYRF8nz6tpYrDkMEYdL0eUgdOwnbN7/HbaWHirvOE8lpE6BUKLjWQWtzI6oqS4eVjh5pjdSMChIJtnz0DtdE8PEL4FLTanV//4+c7Ax0tLdecZiwyFguAU1dJG9GTQWNXIIxATIu3UxCvRqqOoeXbh5pj+JzgYBAQCAwFIHbiiDETwoBNWgqO9swSABcdRokzwiH2WiF3eaEi5sSjeV61Je1DSrrkR5peIo/E4Sys/VcCEbroQZVWXRxU8Pd2wWFJ6uhb+wZKJN/yXBBsT7wCnBF6dl6mA39tfY1rkokTw/nNtPNVR0jLWFUfk6KNywimtszGw29MPT1IevMMZQW5g7rWnizNkddGKkTJHWNHGjdfKW5QsKjsGzVA8jKOM4lk4eWSw6NiMaq+x9HT1cXl0Om7opnTx/BmeOHrllZz1+2GnKZjFtYU+EkGnPsxOnQeXojICgEG99/AxWlBVckTjPnLWWiten912+KhcNNKcHCSAWC3aXckOlwjRV7K63cp0GIQEAgIBD4PAjcVgSBFC4VkS8+VctNlkjcvDRInBKG6oIWdDT3IizBF0Qaik7X8qlf5+8GQ5cRFpONOzbSSd9itPK/Na4qaNyUfNq32RzQN/R3caQudjKFjMkGtZIuz6IOj0QQLtSQ4+6P3i58avTw1cLdW4uiUzWDlgbqEpk+JwpVBc1oKh+5nO/neTg34p6UMRO5QVJudsZ1KybqMTBu0gzuokjtjjs79NyLgJoskfj4BiA8MhpWmxVV5SXo7uocXLKbhw6hYVGgZkY1leXcpnlA1GoXBIdGwMPTEy1NDWhqqBvsyUBzRsYksLuAOjZSU6Xjh/ZwN0cSTx9fbiVtMhi4pfWAO4HaLt+15mG+b8uGd9Dbc8EVEBEdh0V3rcWxAzu5nPLshXfD29cfG979F3d7jEtIRVNjHbem1rq5cxdJfVsrjxEYFAadtw+o2qLJ2Mcto0moLwPtLSAwFHevfQQ7Nq1HaXHusHfI1c2D10qEIjo+Cf5BIfjgzZe4FTWTTBctwiNjuQV1W2vTJY87OW08Y3pxCWh3pQQxnjKoFEBxqw16c3/vBbIieGkkWBWv5AZNO8qssAzpP0I9GoLdJAh1l6Hd6EBVlwOmIV63YDcpIjwk3Ea6osOBNuOF7wM1l4rUSbkhVFWnE/WiHPON+HqKMQQCtzUCtxVBIAsCSXlW46AFgQhCwqRQVOQ0ob2hGxEpAXD31qA4o45P89SsqSyrHg1lelbk4Un+aKrUc4fHiBR/hCb4QqGUw9hrxokthcMehoubCimzIlF5rmEYQVBqFIgeGwT/MB1sVhvHLxi7Lcg9UnmBILgqkTQtHLVFrTzXlylTZy3kdsMD4rDbWakU5JzF2EnTMX/papiMBhzd/xlys07Bbh/5WBkcGolpsxfBy9ePFWZFSRHsNivOZZ5AaXE+ktPG4e57H+WGS+SGIAKwaf0b3D45KDQCS1bcD7+AIMjlMkgkMqx/85/c7tjdQ4f5S+9BcvpEOB12bnS0e/tGnDl5mE/9C5atwfQ5i9DX280NnUiZ7tq6gQkCxRmsXvcUWzOoYyS5HTavfwMd+nbeevqEaZi3aAU+fPtlNNRfcDMQQViwbDX2f/YpKsoKsfju++DrH4hN61/n8X/8qz9i787NyM44jpiEFEyfvRgnj+zleAbax5gJU7m7ZEtzA/7vr/817FFTt0tq97zzkw+HEQRyjyy+ey23s7ZZLZDK5OjsaMM7//orzymTy5l8EanJOHYAOz79APTcBoSIw1Pf/TkTqFf+8sJgGegIDxkeTlMiQCuBUiZlYvA/x40o1fffq1NJ8ECKEk29zmEEgRwPS2KUuDdJwaRAKQOOVFvxSbGVu0JODVbg6XEq7gBJxZbJUPZGtoldFdQd8tE0FbxcpEw4vNRSvHzGiJP1Iqbny/zei7kFAjcbgduKIFBrZ+pO19thHOzKSAQhfW4UDD0WjkHQeqhQldfMbga73YE596ehNLMe9aXt0Pm6gtwJjRV6tFRfMPuHJ/shOM4XxzfnXxNBcPN2QdK0MNQUtKC5sgNxE0NAcQh5R6oGCQLFROj8tOjtNA26HW72w7rS+KSISOFxAAfAp3FSxmdOHOJ/k7KaMmMe0idMRXd3Fw589gkK87KuulyyDEybvZhPz17evmwhsNttbMKndsfU4Ejr6obtm96Hp7cPHnn6B2zap66Is+YvQ3xyOrZvfI9Px49/+ycwGPrw71f/xuucOW8ZK9/SolzctfohXt+Hb7+C3p5u/PTXf0FO1kns3roR4yfPxNTZCwcJwkNPfBc2ux0fv/f/2J9/38PfQG72aRw7uIv3Qm2c1z3xHZSXFuDAzk8HiRARhLUPfx0d7f1EwsvHF/t3fcKEgGISfvbCX9l1kHn6KGITUzFz7lJuE1103mpB98xbsgqJKWPw0p9+fU0Egawgd61eh0N7t6MwNwv3PPA1ePr64d3zBIHcN2TFmDhtDredJiyGCnXCXLLyfrQ2NuLUsX2DH5F1INFHhrdzzGjus+O5WS5MBl450x8Hc0WCIAEeTVWhsdeBA1VWzAxTYGaYHB8WWFDUZsc3xqkQ5CbDb48aoJZLMClQzi2fi9rtWBilwLQQOd7JsaC2247Z4QoYLE6cEAThy/rKi3kFArcEgduKIFxux0QQUmdHobutj90GOj9XdDb1oDKvmbMSbgZBIEtEwuRQFJ2qRVdrH8IS/eAV6D7MxXBLns41TqLWuHCL5KFCp3HLeVcA/ZyaDoVHx+GuNQ+hu7MDr/3jxRFHp9P9hCmzMWbiNKx/4yV0d18gXR46T0TFJrEbQKFUISV9AkqKcrF76wY+reu8vLFn20bupqjz9IFKo0ZzQx1bG4JCwhAQHM5m+sjYBLi6ueO91/4XPd2d+OWLL+PTj95CbuZpxCWmYca8JTh2cDdbEL717HMcR1BdUQJSoDHxKdyKefe2DYN7WbziPkTHJeONl/6HrSYkRBDuefAJ1NdUwWwyclxFeUkh9n22mV0mN4MgxMQnY97SVfjsk/WorarA/CWrEBETj/VDXAwjPoDLXPBQqgpqGbCx0IJOsxM6tRRKqRMthn53wNUsCAGuUsR6kptAgiB3KSJ0UmwssiCvxY4lUUosjVUgq8mGmi4HSvR2tPQ5QJ6+sf5yrIxXsluiosOOonYHGnocMNpEW6fP8wzFPQKB0YLAqCAIQ10MAZGeiEj2R+6RKvR1mTD7/jR2MdSXtDN5CE8mC0I7ZyYMyPVaEEYbQZg2ayGfwgeEXAi1VWXIzzkLtUYDbx9/kMIihUpBepkZx3DuzIkR39ErEQSK3F/90NPw9PRBTXUZZFIZIqPjkZ+beYEgeHrzqZwIAhEAMqn3dHWyyX3pqgfRqW9DR0cbgpgoyPHuq38fJAhbPnobOZmnLiUIP3qOrRj1ddW8drvNxgShMDfzwrOOisV9j34LWza8jeL8c4MEYaiLYeK0uew+efPlP3DcAVkt9u3cjLMnj/TPOXfJ9VsQPv2QrQADcSwXCMIHqK0qv3EEIUXFJ/yNhWYmCB4qCWQSCfSm/uyaKxEEV4UEv5ypRo8FqO5ywMdFCm8N2IJABEEpk2BmqByxPlJ2X8ilEmwqtCKzyQa5FEjzkyPNX4YgNwlC3KXYUmzFzvL+gF0Sim8gdwdxhiGhPCO+Y+ICgYBA4PZFYFQQBA5SzG9GZ2sf/MN1CIz2Ru7hKhi6TZiyIpFjE6pymuAV5I6gGG/UFLagvb6bgxYpIDEk3pezFjJ2FLPrwmZ18C9ytVbB1gmOWaju5M+sFjvcPDVInNo/Z3tDDyJTAzhYMv9Y9VXTIb+sx0xBhBfHINTVVHJKXVLaOLYCkB+8rLgA+ecy0Hc+SG6k9V6JIJCb4OGnvo8zJw5yAKGPXyDWPPgEykoLmSDMXrAcEdHxOLB7C1srKEaCAhsP7d2G8VNmY+ykadi+6T20NjWy6Z4yAt57/R9MEH76wl953FPHDiApdSwmTJ2N/Tu3sAXhsW/8CJ0d7exyoADB4JAIjn1obqwf3AqRjYef/gEsZjPef+MfgwSBghSPH9zFKZPp46cifcIUvPHyH5m0fO/nv2N3ArkVElPGIm3sJHaVUEqnq6s71z+YNmcxYhOS8c7//QU2u42tE0TEfP2D8MBj30LGiUMoys2Ew+lAX28vwiJj2EVwbP9OVJYXYcHy1fDxC8J7r/2dYxDIxTAQyNnWSnuoG/Y4KMaCyApdW1laONiCeXWCEhSHsKnYjC6TE8tilOixOLGlpD9Nl7IZ7k9WgjqckwI3WJ3oszoR4ibFL2dp8I/TJhS22TE1RI5ZYQpsLu4nCPHeMihkQGWHna99JE2F7GY7Pi60cFYEBSmSy0EG4HuT1Ryr8OIxI89JxCDWq588ZDfZ0WESloWRvlvic4HAaEBgVBAEyhbo6zZzdgJlD5DZn+IQyMUQluTHhKGrtRdqFyXMBgt/Zuy1sDVB666Cq7cLXD3UaKrsgKnXjPqydo4boDiCmHHBrPyNPWYmCBQMSRIzLggqjQI9HUa4ebnwz6iOwtXqJdyODzwmLgkent4oL8lHV2fHddUvGEoQ3n/jn6zASVxcXLHy/segdXVHVVkRXN11iIiKRQFZELZ9DEpPpDgDs9nIJ/6w8Bj2xZ89dQS0nvnL7uHYBCo6ROSAXA3/fu1v/O+Vax9DeFQsqiqKed0Ua7Bn+yYmCOMmz8Tk6fNQU1nKGQAU+3B473YUF+QMg54I08Lla/DKn38DfXsLuxjufehptLY0cYCjl7cfqitLsX/nJzCbTHy6T0gdi4a6ap6vvaUJR/Z/xmSEAio9vXzgHxQKnacXWyX0bc1shenUt4PcO8vvWcd1EShokmocHN2/kwnAorvXMpFpa2kEBX3aHQ6OwyClL5XKkJCSjpX3PY7Txw7wWoZm0Xj7+uFbP3qe1/TWK38aTCtN8ZVheawSvVYn1/SgAMKPiyw4VtsfMKiQAnMjFJgaomCXgNnuxO4yK1sbfjxVwz+r73YgyF0Cb40UH523IBDRmBYqR1m7DS4KCfxdZfiszMKBiOMC5ByH0GXudzmk+slxiAMch5OSQFcp3jxnRl13vzVDiEBAIDC6EbjtCcJgoSSZlH+BWs12dLb0MhEgU6ZCKYNPqA4qjZxTIztb+tDXZeTP/MJ0nPY4VCiOgSwOA1UVXdxVHNxI1gYSsibQOFqdBp7+Wh6H7nFQmmRTD+y20fXLj2ITCLfPU9iIlJxfQDArPwpMHEhvJJwoTTE8Kh4uWi27C4xGQ39KXlUZFEolQsOj+RpS/qSki/Ky2d9PCpUIBJ28bRYLxzXQSXxgfC8fP8QnpnJcQ1dXB2c2NNRWoUPfxnEUsQmp8PHz5+fSWF/NwZNDYy34FNb9TzAAACAASURBVO2uw7effZ4VL1kx6KSekDyGXRmUcmikFMnKUnZ/EC5u7h6IS0rj+giU9lhVXszFlOgzKr5EREjSH//JQkSmsqyIryUJCArlvSpUKs5EKMrNgsHYx+6T8MgYtjjQtRQQWVKYw3saCFKMS0xHQ30VqstLhj0jIkAUpElz5WSd4mwREkozjPGSIdxDym4AihOguAHzkMQUSnWkEz25H2jdWY12tBgcSPaVIVJHG5HwKZ+yGao67Wg3OrnAUqq/HF5qsPWhsdfJwYtERFyVEsR5yxDkKoFMClBdsHPNtkFLQaROhgeSlWyZIKuFScQmjG6tIFYvEDiPwG1PEK71SVGBJdIaN9L/OaAUbuSY17qf0XAdWRiIAJCCvhwBIYUskUgvKUZEypHuI6VHyvNiIVJDJ2zKxric0L0kV/qcPqNMChrn4J5t1wTlwJqIrFCcxo0SmYyqdTovm1pKc9IaibRcDj+6l1wWA+Rg6JpIUZOqv16+SrEC9F5f6T6yQJCD4HKfUywCzXm+mOjgcsYHyjE/UoEdpRbktd447G7UMxDjCAQEAp8Pga8MQfh82xd3fVURIEsFERRKnRRycxEg6wNZK5r7nCKz4eZCLUYXCNxSBARBuKVwi8kEAl89BAa8LyI08av3bMWO7mwEBEG4s5+/2L1AQCAgEBAICAQui4AgCOLFEAgIBAQCAgGBgEDgEgQEQRAvhUBAICAQEAgIBAQCgiCId0AgIBAQCAgEBAICgZEREBaEkTESVwgEBAICAYGAQOCOQ0AQhDvukYsNCwQEAgIBgYBAYGQEBEEYGSNxxW2OABVjSkgZw02h8s+d4VLGQgQCAgGBgEDgiyFwWxEE7+D+krb6xh447BeyqqnHgk+oO1QuSm7Q1FZ3oVTy592+u7cLlBo5l2am0srXK1Sa2TdUh+72PvR1mq739lFzPZVNjoxJRHBIOKhyIpVErq2ugNN580tOUxfK0MgY1FWVo621v0fG5YQqEk6cNoebMFETKOpfMFS4rLGPfz+JcPdAW3Mj9434okQiMiYeGo0WFWVFg62lv6wHS/0TJgTK4KXpb/td0GpDeYcDQ75GX9bSxLwCAYHAKEXgtiIICZNDQSWTS8/Uw2btV9pKjQJR6YHcUInaO7vpNGit6+KOjZ9HsQ88p9B4Xx6zMq8JRuqBe52icVUiZWYEaopa0VzZcZ13j47LSbFGRMZixf2Pc9dDUqhZGce4rTGVB77ZEhOXjCmz5nNnx9LC3KtOR70Qlq1eh5yzJ7kpFPU7GBBqhU1Nl7y8fdHV0c79JQpyznJDpov7OFzPnmYvuIvbbB/Y9Sn3dfgyhbo4LohUcCtm+nO4xoY9FVZYBEP4Mh+LmFsgMKoRuK0IQvL0cO4dW3yqdlD5u3pqkDA1DPXFbWit6URwnA+8A91QeLKGOzaSaD3UcPdx4W6PXW2GYcSBrA6e/q7cqbGjqRcWc7/iCE/yh7uPBo0VesgUMvTpjeilLjTnRSqTgOamZk99HUYYeqg51AWrBnWVpC6TVQXNaCr/cpXD1d5AOlVTQ6VzZ07CYLg+0ztZDKhhELVc3vj+69zdkPof2G39/RN8/YIQGRMLi9WKitJCbu08IO46T4RHxHA3w6ry0mEWACqDHBYexd0aqc1xQ33NoEKnOaPjkrlBklqj4VM/tZSmbo4kXr7+3DnSZDCgqqJk0ApA99215iG4uXvi04/e4iZHAxIeGYslqx7ACRqn4BxmzVuKiNh4rH/jJS7FTH0fQkIj4B8Uwg2iaqvKYTT0Dd7v4x+IyKhYWC0WVJQVo7urf5/zl66Ct28A8rPPQO2iRWNd1TDrBa2fujhSM6jG+lru6ki9HgaEumKSFaKlqQGtLY2XPEZqFEWYUufJoUJljamLo1ouQUGrFe2m/v4KSqmEmy6tSVRya+YdZcMJAvVhCHWXcqOnNqMTFR12GIe0wqDPonRSWO1OlHY40Gq48L77uEgQ4ymFSiZBRYcDtT03nyCO6t+sYvECga8AArcVQYibGMKNbSqymwYtCOQKSJwShtIzddA3U5tcCWQKKWyW/gY3wbHeSJwaDrPJCoVCxiSi5Gw9t3P2DnJDyowIbosrV8lhMViQc6gCPXoTE4TwJD/Y7A5IpIBGq8TZ3aVMIqhDZHiKP4JifWAz2SBXyVB6th7NVR2Drg+1qxJJU8NQV9yKlpoLyujLeCemz10CTy/fwamp2RB1K8zLzsCYidO49bHFYsGxfZ8hO/MEK/iRujuGhEVh5ryl0Pn4wMvLl7sm0n1ZZ47xaT5lzESsWPsYEwalQsnk4eP3XmUFSfcuu+dBVp5yuRRyuRLvvf4P7mRIxGHR8nuRlDaeW0HTvbu3b+TOi9QqefGK+zFt9kL0dndCrlCir68Hu7ZsYIKQkJyO1Q89jd7uLiYeXR1t+Pi916Bva+W9p42bggVLV+HDd15Bfe0FN0NkTAJjsHvrBiYV1BVS6+qGzg49N2aas+huzF28EmajAUqlCrnZGdi7YyO3x6Z93vPA12A2m6FWq3muTevfQENdFROEiVNnc5dGarpEba/ffe1vKC3I5Q6S85asRGLKOFjMJl7vjs3vIy/7DJME6hMxfvIs3H3vIzh1bD+2b36fO0EOkpqoOHz9+//B5OGlPz7Hc5BE6WR4LF0FXxdAIZOCmpD+/qgRRe399+pUEjyQokRTr3MYQaByyNQmem2yAn0WCdRyJ47W2LCx0IIusxMzQhT4+ng1uixOSOCEyQq8nm3iDo0J3jI8nq6GTiOB2eaEr4sU/8ww4Xjd5ZtpfRnfATGnQEAgcOMRuK0IApEBUly9nSY+8ZNcTBAuhiB2XBDMZjvqi1vhE+KBsCQ/VOY0oa2uC2lzIrm1be7hSsgVMqTOjoS+oQdVeU1MEPwjdCg+XYvudiPGLY6FxWDla9lqMTkU9aXtaKnuQERqAFsp6FoiHiQyuRQePlr0dZsGf3bjH8+1jTh/ySp4+wVwpz0S6pBYUVLI7gBWGl4+mDhlFtLGT4HJZMThPduRm336qoOHhkdi8oz5fGL38fFHeUkBk4GczFMoKynA7HnLoHX3wJ5tH/P46578DrIzTuDg7i3cSZHaJ1M8QFtLEx5++gfso1//5kvw8Q3AtNmLUF5awGMuu+cBeHn54YO3X+bT/E9//RecO3sCe7ZvwrhJ0zF19iLs3vYxE4SHnvweK8rNH7wODw8vrFn3FJOgowd38l5c3Tyw7olnmATs27F58LR+MUG4eOMr1z4GfXsrTh8/gPTxUzBhyiwmLWVFefjat3/Mba7ff/2f7E5Y/eCTKCo4hyP7djBBiEtKxycfvIGW5kZ8+0fPc5to2kt4VCwW330/Th3di+L8c1h4173Q6bzx8fuv9lsnOC7CD+MmzUBFaRHKS/KHLUuuUGDBstVobW7C2ZOHBj+7J0HJrZffOWdGi8GOn013QWuvA69mma9OECTAg0lKtgocqbFhRpgc00Pl+KjAwiTg62NVCPGQ4cVjRlBHxzEBcjT2OFCit2NhpALTQhV4P8+Mmi4HpobIYbA6cbrh0k6c1/bGiqsEAgKB0YDAbUUQLgfYSATBVaeBh68LpDIpyOzv7q3l+ARS7BOWxDFRqM5vgRNOqNRyOJ0SWExWJggePi4oy26AodvMVgqNqwqZe0vh4atlMtFS3QlTrxmuXi5QaxUoOFYDU9/1xyvc7BdBq3WDTC5jMkRCJIuUGpGBAdG4aBEZm4ClK++Hvq0Nb778hxGXRWb7CVNmsxWCzPHd3RdcCD6+/oiKTYLaxQUKhQqJqWPZQkCndFJsOk9v7NlOp3A9PHReUGnUaGlsgEqlQmhEDAKCQtm0HxEdx6f5f7/2v+jp7sQvX3yZXQS5macRl5iGGfOW4NjB3UwQvvXsc+jt6WHriEJBwZMJbNnYs/3jwb2QIqb7aH8DQYhXIwiEWFBoBCKi4iBTKODt64/A4DDs/+wTFOVn45mfvIDcrFM4vHcHr1fn6QW7w46uDn2/i8HHn8lEp74N6772HSjVarz1yp8QHZ+MVfc9xkGd5JIICgmHu4cn/v3q39kq8nnloVQV1DLwyb/T7ISHWgqlxIlWYz+hvpoFIVwnRYxOBmrbHOQmRaiHFBuLLMhrsWNBhALLYpXIb7WjoceOEr2D3RQmmxNpfnKsiFOg2+JEbVc/aajucqDXItozfd7nKO4TCIwGBEYPQThbD31TD2ceUOCiocvM7oaJy+JhNljQ1WqAykXBp/+qvOYLBKG+G9V5zey6oHgEskyYjf0EgWIQyrMb+wnC5DAmGAMEIW1OFNrruwcJgcVkQ1Ol/gsFRt6sF2IGuRi8fSE5TxDIdE9+azpdEzHwDwhmhUW+eIvJiOzMk/zZSHIlgqDRuGDNw0+DiEl1RSmkchni4lNQkJd1BYLgCZlcwUqU1rFkxX180u5ob0VIeBSUKjUrTiYIv38ZWza8zZaKSwjCj57joMLaqgpeOu2T4gWImAxIaEQ0Hnjs29i++T0U5GTyjwcJwraPUVVezISF4wIaakF7efK7v0CXvo3/7enlAx+/AOzdvqmfIPz4Bba2HN67nd0I7jov2G1WjnEgguDl488EpVPfjgcffwYqjWaQIKx+4AlUlBWip6vfBUXEIOPYgS8UGPlQiopjDzYWmdFpcsJLI4FcIkGLoT8m4EoEwV0pwX/OVKPVAFR3OuCnlcDfVcIWBCIISpkEU4LliPKSIlArgVYpwadFVmQ02phQJPnIkOwnQ6CrBNGeMnxWasW2sgsuBpkUoBgHmwM4b/wb6fUSnwsEBAK3OQK3PUEgC0HitDA0lrejpaYTgZFe0HpqUJ7VwMGF0+9JRva+MrQ3dMM3xAOhiX6oKWxlgkBK3mF3oORMPRRKKUIT/NDV1ofGcv1VCQJlN5CLobawFW313RwASRaKjqYe2Ok34G0mYyfNgIfOc9CCQH71xv/P3leAuXWdab9iaTSa0TAzo5mZYgzYicPUlLZJYUvb3S1t99/ddgvbNk1TDDWcOI4pZopjO2Z7PMzMJGlALP3P92kkz9geQ5zYM845T/Jkonvvgfde6XvvB+dtqkdlWRFyJ07F5OnzYB7o59AAvYkPDkvAu9JSRiMIYRFRePRL38Lp44dw5MAurgogY1hZUcwEYf6S1UhOy8LBPVtgMhowd+FyDjHs372F3ffkVicD3tnWxkY2Jj6JcxSIIFCIgUIjxz7ah+z8yZgycx727djM8378K99Gf58ROza/zYY9PimVY/TDyxplMjke+dI34Ha58Orffs/Lo/NW3fMQTh07xJjQHMIjo7H5nVc45EFhhPfe+DsqS4uQP3kGps1aiP27NjNB+MLT38dAnwk7t7wNXYCeEzbraypw7tTHVyQI5JG448778PGhvaitLENMfCKkMhmPQaEaqhChJM2kFEpSbEZzY92IW0E5CzkTpvHYFSUF8L6rU4ghRS/DxnIrTBY31qQrmShsKvd4tqia4YEcJSifdme1nUMBlMsbrZPgx/M1eO6EJ6+AQgbz4uXYOORByAuXcz5DRbcDMTopHstX4WybExtKbYgPlHLeQYPRyRT0m9PV3Ocvjno8VFIJkB0mQ6xOipMtDnQPeTPG2NdETEcgIBC4TgTGPEFQquWcMEjxfsuAHVRe2NloQFN5F3vUJy1NhdPu4rwFtZ8caq0KdcUeD0JEgh7xOREw91khV0ihUClQdbaZExEv9iAQIfDTqdmDQGPGZ0dwGSTlHGgCVOhtMXFJ442UVl7nvflUTicXfkBAEOpqyvmt92rJicMHHU4Q3njxOTbg1Mg437X+cc49aKyvBmXjk5u+jDwI2zYgMTWDSQLtlUCJd5FRcWxwKbeAiMPS1ffCZOjhnAMKNdA4r/2dPAhGrF77MFIzc9HUUMMbH/nr9Ni7fSMTBMqhmLNgOdpaGqHWqKHVBuDgnq2oKh8Zv58ycz5W3H0//vLb/+IcCAp3LLxjDcIiYngNQSHhvKHSx4f2QK1S49Evf4vDMeTVoFJISjCkHAYiCNTXnAV3oK21iddNSYz7dm7iqo2LPQgPPvkMJzK+/Off8JjzlqxCcGg4BvqMCIuI5gqKj/bv5PAPhSuoQuOe+5/k3If9OzeNKB2lUMfXvvNTJj8v/+lXvmNZoTKsSVPA4QZoKwoy3m8XW3G8xZOkSG/7CxIUmBunQJ/NBaoW3lZhR5fZhe/OUjNhoNyCMK0UVA3xbqnHg7A8WYEFiQrUG5zQKKgaQoptlTY2+BMj5FieouBwA1U4pIfKsbfGhm2VHg9CACVG5iiZRLxcYOXQhGgCAYHA+EdgzBMEetOi+H9gmD9ocyK7xQFDRz+HCfjHKVSLgGANJ33RZ0QWaDMlyhXgRMJwf/gFqCjCgAGDGcbOAa5q0OrVUKrk6Osxc8UEERDySPS0mvjtjsIV+nAt5Eo57FYHjENjDqt0HBd3n9ziRAquhxh4F8YbDIVFsNGsrSrnKgNvi4iKRVxCCvy0/ujt6WQDS2+7ZNAoPyAyJo5j+XK5gkMJlJBI4QGVWsOhDnLjU9lgX5+Bkwnrhvonw5qcmgmlSgWj0cBv21QKSeV+ZJwTUzIQEhbOb8j0eVN9zYh50fz8/QPw9Pf+g/dD2LfjfTbGZKjjEpPZyBMRoVADERTChd72I6PjeQ8OIi42uw0drU1cxUDzJZJFngaq4iBy0tRQy/Oi9VF4hLw1tDaaG5EdWivhHhziHVOL/n4T50sQQaExCVsKZ1AeB6+jgTafGrY5mEaDvEkzeI5EvLzHlFIgQS9DXIAEMqkEXQMuzhuwDbPJerUEiYEy6FSe8sfiDie/1VNpJF1Hn/Va3KD9wRpNLvZAEFnICJUhWA04XUDbAFDd62RCQZswJemlHF6gMILRCpR0OWGyeuZLlRVEEIo6ndhVbYdV7L0wLn4bxCQFAldDYMwTBN8CJOQwoAIsenUauSz6waNfPW/lw8WLph9+aqMdHxWkK4x5NWA/D8fJ8FK5HhGHyxEQcveTISRjOrzRZ3SMPAzD9wXwniOVSDmk4y3tuxhLT78Y9TidT6WSRE4O7dvuu5yMNv1LY148X+9cuQT04geM3swVCn5+KO/hetqFMaksd+SbNeFA20TT55fDj/D1kLtL38jJUFO7XlvM10k8JOByjTwQxFMu1y9dy7hfdO3UaDkWJyjY40DEQTSBgEDg9kBg/BCE2wNvsYqbhAC92dPb/PANj27S0J+7YSjE4K8Aeymsgh987u6/WPDti4AgCLfvvRUrEwjcNATIMSGKHm8a3GIggcBNQUAQhJsCsxhEICAQEAgIBAQC4wsBQRDG1/0SsxUICAQEAgIBgcBNQUAQhJsCsxhEICAQEAgIBAQC4wsBQRDG1/0SsxUICAQEAgIBgcBNQUAQhJsCsxhEICAQEAgIBAQC4wsBQRDG1/0SsxUICAQEAgIBgcBNQUAQhCvATGJQtLsi6S+QpoNoYxMB2myINCdIgKng9HEM9JvGzERp90c/rRaDAwM3JNI0ZhYkJiIQEAh8bhAYUwQhNC6Qd97rbjbCNWwrN41WibAEPdRaJQaMFnQ2GEDqip9G89OpEBITyPoL1GoKWn272oXEBCAxJ4JFmzqbaIvcax+RRKP6e80s8DSeGxk4UmCMi0/mjYdKi8+xguPldvf7tNdJ2zHT9sU0Xmd7y6jd0zNDIkqTps3BBxtfv0T4iI6HhkchZ8JUBATqWRyJ5KRvRHZ5+GRITyIjO581KRwOG/bv3srbMlPLmzQdM+ctwYd7P0BVWdEIvYVPG68r9TcnVo6YACmf0trvwvFmB2+1LJpAQCAgEBgNgTFFELJmxkEik6LiZJNPFIk0EVImRYNUHcngBoT4oavZyJLONyqcRFoN2bMToNEpWT6aNBrKPq73ydWSdHRobAB6Wvpg6h68rqdoztpstNb2ouZc63VdN5ZOJsNKaoP3PPRFlmomrYVzp46isqzwphi61Iwc3jL52OH9qCi5IOl8OYyiYuOxZt2jLGN96uMPR+gzkA7DHWvuY5ln0oWIik1AaeEZFnqyWa03BLlW6491D38JAYFB6O5sZy/Blg3/gMPu2V6a5KczsifwvEjH4Va1FSlKJOklLNI0YHfjz6es/F/RBAICAYHAuCAIObMTWFS+/Hijz/iTkc6aFY+G0g501BsQlx4G8jSUflwPM2nOAtAGqlmwyTJoZ0PulWQmMuGwu6BQyaANVKG3tR/mgQuCQ6QMmbcgGXVFrehqIuEej14DEQddsB97FYg09HUP+sShaDwynCTkpPYnYmHh60gcarhXY959uWip7mFZ6lvZJs+Yy2+2Z08cxsBA/3VNhTwGpGY4ZcY8vPOPP8PQ283EwKsbEBEZg+S0TBY3IkVFY2+Pr38yxiRypFZrWOipY5gHQKPRIiEpFfqQELQ2N/Ibv9egkiZCWlYeCy6R5HF6dj6OfriH1RypkVchKTWTt1AmGWWvF0AqkWDNvY+ywuT7b73kU56kaxKS07Hy7gdZl6G8+CwWLF3NY5DENIkhkeZBdHwCIqLiYOjuZAEoq9XC46Wm52BgwASdTo/A4FDUVpaiq7PNt07yHtz/+Fexb/smlJecY2xI60Hjp0V8Yir/1+1yora6nKWvvY10IlIzclmxsreni+WpOztaR8x74tTZjDkJS13c0jLzWFeiovT8CB0HjRxICZKxsmKdwYHGPjdrJ5AciVImwYJ4OSZHyfHsSQsGbCMJQoRWgrwwGQYdQFGnA6Zh3ClcK0FakBRquQSVPS40mC6E3EhiOi1YiiC1BC19blQbnMI7cV3fNHGyQGBsIjCmPAhpU2J4w9aa822sykiNjHzWzHhUnmpCT3s/OC9ALmXDTz/GMWmhyJgeC+ugjfMFupqMqDrbApvZgYmLU6AL0jDZkMilLDRT+GEtzP1WhCfoERodiKAoHUxdRABsvFds6dF6qLRKpE+NZRIgkUpReqwB7XW9vjuYmBuB5IlRGDRZWWHSaXPymJ2NRt8501ZloL22Bw2lnZ/5nZ+7eCVLGA/p97CgUENtJQrPnkDe5BlYvOIeNkAnDu/H+bPHYbWYLyuSNHyisfHJmLd4JfShoQgODkNddSWcDjvOnjqCytJCdp2vXvcIzOZBqJQqDA72Y+MbL7DSIRnGFXc/gAB9EMhwa7Q6vPuPP6Ok8Ay/xS9bfS/SsvLhsFnZgB7YvQXHDu9jdcdVax/G1JnzYeztgkrtB4vVjF1b3mWCkJ0/GXetfwKGnm6oNGqYB/qx8c0XWdKZWu7E6Vi2ah02vP5XnoeXyBChoDF3b30XdTUVrMBIb/6k1uhyObFg6Z2Yv3QVBgf6oFQqUXL+DPbv2sLG+kvf+DcEh4TCarFArlTBZrXg/bdfhLGnB5OmzkZSehbik1LR0liPwf4+9iBsfvcVhISGY+XdDyEqhuSs5Xjn1b+wMfe2lXc/gGmzF8HY2w21xg9m8wB2bHoLlWVFfAr1+aVv/Cs6Wlvx59/+bIQwFUlHEykJCY3AL//j27CYzXxNiEaKe7OUmBAhY1lmncojBb2/zs4kQSEFFiYoQOJKFxOEmTFyfGmyEgaLBBoF0GN246+nLaz2mB0qx2P5KlZ1tDhciPSX4i+nrTjaZEe4nxQP5qiQHS5jdUe9SoKd1TZsrbBh6Cv8mT//YgCBgEDgs0FgTBEEXbCG38Ypz8CrvHgxQbgYhjnrctFR34vK080cDkjIiUBDSQcbayIIpOR4bn81FAoZJi5N5fyFxvJOPjc4UoewOD3LR7M3wu1G5ekWn2GhsYkItFb3jCAIc9blsDej6kwzwuP1IMJApGY4QQiJ0mGw3wZz3425sK/lts9fupoNEjMgUvhzOPit8/yZ4/z/gUHBHJ8no04egKMHduHsqaNX7DomLoHj+qERUQgLj2YXP8XXiwpOsUdgzvxl0AUGsXHXB4fgwSeeRsGpj/n/aT5pmbnYvvF1dHW048Enn2ZD/+6rf+V5zpi7BPW1lTzH5Xfdz3LSb738PL/N/+Bnv8WZE4exb8cmTJo2G7MW3oE9295jgvDol77FoYMt7/6DcwnWPvAUigtO4aMDO3gt5HV48AtPMzmga7zKixcThIsX/t2f/ApFZ49j7/b3WWJ5+pxFOLBrC4dSiCBQP6/8+TcICgnFQ08+w/kLZ058hOwJUzhHgt7mScrZZOxhkrP7g41MpqiR92LpyrX4aP+OEQThuz/6XxSeO4G92zdh6sx5mDZnERMYL0Eg9cgFy9agu6MD504dGTFl8uxMnjGPZbU/PrTXlw+SHSrDA7kqbKuw4XSrA+uylIjQSvHiOSvMdvcVCcLyZAXIE7C92g7yJHxlshoH6+0s37w0SYG58QomG/VGF6ZEyTBoA063OZASJMXDuSqcanXiowY7koOk0MolONnquET18VqeZXGOQEAgMHYQGFME4XKwXI0gLHl0EooO16K9zoCAUD8k5UWivd6AtpoeJggUAqg80wKpXIKc2YkY7LOyYadGCYq585NQW9CCrua+SyR3RyMICx+agPITjUwcgiL8EZ8djpaq7hEE4WbeYl2AnmWXWceXfTBu2CwWfqunRjLZfv7+SM3MwbJV96Kzo40N3tUaGaKpMxdg4rTZePPFP8Jk8nhRaJSIqFhQjoBCpWZDlZGTj/KS82zklq5eB70+BHs+eA9GQw/H55VqFbra2zjkkJyaifCoWPbO0Juyn58Wr/39WX5j/9Evnsfmd15mI5yelY+5i1fgyMHdTBC+9t2f8lt6Y30NSzknJKehtqoMe7dv9C1lyaq1yMqdjJee/yUG+j0JolcjCD/8+R+x5Z1X2OOSnJaFBUvX4PiR/Sg5f5oJQmNtFXZtexf+ukDc+/CX0NxY6xszKiYe6x/7KnZuehuV5YWXPEOjEYR//c/fYeeWdzinIzN3ImbNX4bD+3f4CMLV7s3ljpPn4K50JV4vtKHGCQBaOgAAIABJREFU4OQ3fj850GNxc17NlTwIcQFSEMFQSD0ehPwIGU62OLClwo6cMBnuTFPC4nSjpc+F6l4XqnqcMFrdTEDuTlciVCtBg8GFOpMTld0udAySh++TrEJcIxAQCIwVBMYPQTjdjJ62PlDSotpPiX6DmXMNmCAcqUN7bS8CQrVIyotgstBW6yEIAwYzqs62egjCrEQM9t84QZh/fx5qC9u4uiE4WuepdCjrvGUEYf6SVQgOjfA9U/TGW19TwR4Erb8O0bEJSEnPRlRMAgb6jDh/7iTKis5e9RkcjSCQQb/vsa9AIVdybF0mlyMrdyLKigs8BGHVOuiDLhAEevMmg05JfPS2vWzNvWhtakBPdwe/YWs0fhcIws+fZw/B+TPHuDJgzqJhBOE7P2FXPIU7qNE6WxrrUF1R4ltLTHwSHvrCM9i1+R1+Qx9BELZtYK8FeSwC9MGca+Bw2PHD/3kOWze8ynhdjiCQt2PPtg1DBOGLnDPhJSWflCD8y3/8Bh/u3Y7jh/chd+I0zJq/FAd3b70hgkBGnYy1lyAEqiTQKiRoG3BdQhD+cNKC/qEcBCIS35qughsSlHY6oZJLOExxvNnOBEEuBdKDZcgIlSHSX8JEYl+NA5sqbJzbEO0vZUIRrZMiNViKim4Xz8E6VIlE5yhkEjhdnnwI0QQCAoHxgcCYJwhUvUBJimTwOxoMiEoOhlavRtWZFlgH7ZizNgcdTQY0FHcgKNIf0SkhHPenXIRPShAoz0GhlnP+AoUs2ut70dVohN3mZFIyYXEy5AoZWqt62GsRGKbl8sjhIYabeftzJ01HQIDeNySFEdpbm/jtOn/ydEycOoff5GsqSlFVXsR5A9fSRiMIYeFRePTL3+LEx8MHdrI3Ye2DT6GirJAJAhEW8i4c3LMNfcZezFu8ipMJ9+0kd/p8UOLk9vffRGd7K7vfo2MT8doLHg/C93/6GzbUxz7ayzkHk6bP5XADeRAe+/K3YB4c5Fi9xs+PjXlrSyMa66p9y6F4/0NPPQOZVIZX/vJ//DnlRKxa+xDOnjyCitJCTJu1ECFhEeypGBzox3d+9L+cd3DiyH5OXqRQDM2dyhLJg/BJCAJ5VcizExOfiNkL7uDKCiIn5NWwWMz4wte+z76ewnMnOWGTKit2bXnHRxDUGg2HhfpMRhSfOzlCSlmhVDEhU6pUOHP8sK+iJItCDNkq7K21oazbiblxCvgrJdhQaoPF4WZDPztWjjuSlXit0IrOQRfMdkCnAn40T4PN5XYcqLMjSS/F4xNUODXkQUjWEzGQoqbXwV6Bb0xXgyJyvzhqRrBGgqwQOdoGnDBa3BzWiA+Q4X+OmDFoJ8oBvnZOnBxFHQ6UdQuGcC3fPXGOQGAsIDDmCYJCJUdCTjiCInWceKjUyDkfoLmyixMZYzPCEJMeCku/DXKllEsh64s7uKrgYoKQPSuBcw0uDjHUnGtBd4unioGaX4AKaZNjmCQQQbH0W7lCgrwEPa19CAzz4+RIOp3IBHk1vHkPY+GmDp9DXEIKZ8rT23J/P63x2v2+wwnCGy8+58uwpzABVQyERUajrbkBKpWG/yYjvnvbBsQnpXGlAMXRKTmSygz3frARRQUnOWZPJYeDgwNcNklVCRRqeP3vv2djuOLO+5GVPxmtzQ1MAijBcd/297lv2sdg3pJV6O3qhEqtgkKhwoFdm1FTVTYCdiIVq9c+hL/8/r/R2daCQH0Q50VEx5EHqZ9zJyhfgggB5TTQXPMnz4Cht4cTBskrcfjgTq7KuJggrHvoKbQ01V/iQSDSQuTLiy95Foj8+PnreI09XR1MDshjQKEYIlA0TyIJHjIRiP07N/sIAhGYp7/7H2hpqsNLf/o1XM4LmxZQ/sUDT3wN+qBQ/P7n/+7bgClUI8GadCXiAqWccxCsluBQgwP7au2cMEgpKmT8KWeADDcZ8GNNDhR1OvFongrh/hI0Gl1QyYEofynvlbC1wo78cBlWpirhcns8AIl6GXZU2bCz2o5ICjFkKBGmlbBHgshAYbsT75ZauZKBwhoLEhRYlabA6+dtnLcgmkBAIDA+EBjzBIF+1FQaBXQhfvzWbrM6uOzQW1JInwWEaaFUyeG0Ozn0QOSA7CC92Xs+s3Bpoi5Ewx6AAYOnhI2qISjPgJIih5coKpQyJiS+soChe9nXbYZ5wJN0SGEO7/VR5LUo6eD9GcZao3VTux5i4F0Dl3MGh3Llgdcd7z1GRo9CFlQNQGV6VquZ38Y72lo4nBAWEYWIqBj+m4431FaxMaYKgpi4RASHhMNht6Gvz8iVBE31tezuJ+NHpEalUsNo7OUwAiU69vcZ2ZBSCCEkJIzJGY3V1troK5H0zs1P649nvvczJgG7P9jA5YCBQSEcaiEC0G8ycCIjzZdwofOpaoPCMRbzINpam7hSgjaDohCIefDCumi/BTqHvB/8HKg17CVob2lmAuZt1BcRpSH4fZ9TWSftxeCdE62JPCF5k6Zx5UR1eTGfS+vPzJnIpanVFcUj7h9dk5SaAblChbLisz7yIJMAIX4SxAdKoZFLuKqA8gWonNFLC5UyIC5ABr1awuEByimgEARVI8QHUP6BhHMWaB8yur6t38V9xQZIOXmRxjBYgepeJxMC8koQKYjRSaGWAQN2oM7gRLfFzd9BCnEQ+aC8hhfOWtF3UWnlWPu+iPkIBAQCFxAY8wTBN1WJJ9luNENHP8TX8XJ8Q8+AVCZF/oIkyGQSLokcMHryGohofJ4aGTmpTAan3cGJkRc3Okb3zFtNMJx40N4DdC+JHFzciJhQ37SfwOUaeTaojXacjk2fs5DJyOH9O31dUJ/U9/C9HC48X2QwpUwKPgmZut77TqTkvke/zAQqMDAIba3NnNTZ1XFhYy2aL83lcvOh7aWpXW5HS/ou0FFKTLx2f5GHD8ukGDVPgAgFnTNsk9ML2A4du3hM2hvh69PU+LjJ48m4nvlcL6bifIGAQODTRWD8EIRPd9031BuVTsakh7DxI8+DqWsAlgH7TTEsNzTxz9HFFN4gg0/7EozFRuRl+uyFXBNC2hENdVXsWSDycjs18jBQ6MNoBcwOQQ9up3sr1nL7IyAIwu1/j8UKBQICAYGAQEAgcN0ICIJw3ZCJCwQCAgGBgEBAIHD7IyAIwu1/j8UKBQICAYGAQEAgcN0ICIJw3ZCJCwQCAgGBgEBAIHD7IyAIwu1/j8UKBQICAYGAQEAgcN0ICIJw3ZCJCwQCAgGBgEBAIHD7IyAIwu1/j8UKBQICAYGAQEAgcN0ICIJwBchoG2W5kjYCcsHpvL3q06/7SRnDF9CGQhOmzIIuUM/aBLTr4lhpKpUKflodb7M8VvdkGCtYiXkIBAQCYwuBMUUQwhP0vNMdiR65hhlkjb8SkUnBUGs9Ko4knkS6DDfSAsP9odEqWFth+DbLw/sMiwtk+WjSduho6L2unRoTciPQ3zOI7haP5PB4bUqlCunZE1hQiHYwLC44jZrqMtZY+KxbeGQ0ktOyWXSKxKdGbxIWgZoyax62vfc6mhtqR5xKz1R4ZAzrLQTog9De0oRzJ4+O2Br5k6yFhJ10ukCUFZ/jbZsv1yZOnYXZC5dj/85NqCg5f8s2QloQL0dcoGcHypY+Jw43OlgrQTSBgEBAIDAaAmOKIGTPiodEJkH5iSY4hn69SAgpbUostIEqmHrM0Idp0d1sZLllu/WT/8LFZoaxVkNtQSsGTZffbY9UI0OiA9Db1oe+HvN1PUVz1+WgtbYX1Wdbruu6sXQyGdaUtCyse+TL6O5oQ3+fCedOHUVlWeFNMXRpmbmshHjsIxI4KrgiNJHRsbjzvsdQXHAGJ48eYN0HbyPho5X3PAidLoB1HUjrgTQMSCXSav3k22MvWLqGNSf27Xif9SYu10g7Ij0zD8XnT6OjrfmW3d4VyUok6iWI8Jdh0OHG86csrNEgmkBAICAQGBcEIWd2AkhBpvxEo48g+Ad55J7ri9vRUW9AbHoYwuIDUXasgZUZyYiR4qIuRM3yz8bOAThIuo6aBNBoVQiK1MLlcKO71eQjFXFZ4dCHa1FzrpU1FNR+cgSG6YZUHd0ICPUIQLlcbpi6B7hvb6MxtXoVAkK0rPRo6hqE4yKh+3n35aKluuemEARSQ/RIMl1o3j38p8ycz4bx9JDr/Vp1BmiNpBMwZeY8TJw6G+/848+sdujVKqDjUdHxSEnPhM1uQ2VZMW8VTP17RZ6SUzNYzKimspxFlbxjk5BRYnI69MEhaGO55hqf+52EiDKyJ0CrC4BSqURqZi6OfriH1Ry9noCk1EyYBwdQU1nKCpCkOEDHVq97GKFhkdj45gswGQ0+MEhwaeXdD+Lgnq0oKzrL6o3pOfl488U/MumRy+WITUhGRFQcDN2dvO2xVxKb+o2IjmUVSsvgIGoqSmCiEIbbjUV33MUEgTQUiCAEh0UgPiEFlaXnWXOA1qjx07IWBc11+JxozJiEZERGxbLSY2N9DYtADX/GpsyYx/1WV5SMuLc0J8KIPDolhWdGbPHtr5AgNViKMD8piybVGV2s5EiNlBUXJigwNVqOZ0+OJAik3xDtL0FeGBEIoKjTgV6zR8vBK9mcHiyFWg5U9bhQYyTNCs+xQLUEdIx0F1r63KjsccFyOcEG8TssEBAIjCsExpQHIXVyNP/w1ha1c9yfGqktZs2MR+WpJvS097O8MqkoEgkggxOXGYbUSdEw91k5X4DOobd2MugUIsicEcchBLrG6XSj+KNaVnccThCsZjsmLE6B2+XGuT1VUPopuE8iEDKFDGXHG1li2tui00JBc+3vMUOlkcPQ0Y/qgjbYzBdIxJTlaeio70Vj2eXfLD/Np4QkkEkd0dtIxKi+tgKFZ46zRPKCZWtY/OjciaMsuUx7/9vtF+Z6ubnEJSRj3uJV0IeEIig4FPXVlWzozpw8jMrSQkyYMhN33Hk/+k1GVh50OO3Y9PbLrNpIhvGOO9ezcZTAjYCgELz/xosoPHcCgUHBWLbqXpCRt1rMnDdw5MBOJgEUo19z72OYMGUGujvbWWXR4XRg15Z3mSDkTZqOlfc8xIJGao2GVRw3v/0y2ts8Xprs/ClYvuY+JggNddU+w0ljLVt9L3ZvfRd1NRVQUl6Axh8mUy97QhavuAcz5y2FydgDjVqDqvJi7Nu5GSZjLyZNm4sVd9/PfysVSpjNA9j09itMbIYTBJvVgie/9n3Of3j9hWf5ftCYkTHxUKnV2PDa31BRet4HNZGUmfOX8jq1/gGs2Pjhnm1DhAcg/J/6+g/Q0dqCvz7733A6LoTUSElz/aNf4TF+/f++zzhSC/WT4r4sJTJDpKzGGKSRYFOZDXuH5J6vRBBmx8rx+AQlugYBPwVJQQN/P2NhgpEbJscjeSoWciIZaVJufOmcFUea7IjQSvFgjgqpwTL0WlwsMU2iTNsqbT5i8mk+66IvgYBA4OYhMKYIAnkLyEiTy9/7tnkxQbgYmrn35qKttgdVZ1oQGhOAhJwINJR2cB5D/sJkzmUoPlLPUtETFiejp6UPNQWtTBCCI/1RX9KB0OgAUP7Dmb1VsPRfcE3T2MkTo9Ba3TOCIMy6JxudDUbUl7QjOFKH6DSP3HN38wW5X+qbPBz072fdyA0fHBo2giCQoS4uOOUhWfog5E+agZyJUyFXKHHi0D6cPPbhFacVHROHidPmIDwqlmWbSwvPwG6zobToHOprKjFjziIE6INx5OAuNvr3P/YVFJw+hgO7tvAbekpGDrZvfIMN4L2PfAlWmxXvv/kigkPCMHXWAjQ31vGb+h2r70VQSBjeevl5fpv/wc9+i9PHD2H/zs3suZi98A7s+WAjE4THvvzPTCI+2Pg6dAF63L3+CZScP41D+7fzWrRaHR588mm0tjQwqfCqSF5MEC5e+Pd++msUnDrKY+ZOnI4ZcxfjwO4tTISeeuZfMDjQh3f+8Ree+/rHvorSwrPsjSCCEBUTj8MHdiB/ymykZeXi1b/8Fl2dbb4hyHuxdOVafLR/xwiC8M///nMOOxz7cA8ycydxfsTB3VtQXVnK15KHYc6iFejp6kTh2eMjpkyeg/wps1j++uTRgz5Fx+wwGR7IUWFLuQ1n2xy4K0OJcD8JXj1vY6GkKxGEJYkKBKgkTCZI1vmpSWocqrdjZ7UdS5IUmB+vwHulNtQanMgNlzGBKGh3ICVIiodzVTjX5sShBjtLTatlEpxtd4yqCvlZfx9E/wIBgcCng8CYIgiXW9LVCMKSRyeh6HAt2usMCAj146TC9noD2mp6MHVFOrqajJxkKJVJ2BNhtzk4x4EIQkxqCCc9hsYEovJsM5rLR77tj0YQljw2iQnDgMECpUYOv0A1mso7mTTciqYPCmHD72tuN7ur+/s9hIVUJ/0DApGenY/Fy+9CW0sTXv3b7646VTJEU2cuwMRps9kdT2/cnv6AmPhkpGXkQqZUcCgiPSsXZcUF/Ja+dPU66PUh7Ho3GnrYmCtVSnR3dsDPT4u0zDyERUZzX3GJKRyGeO3vz6LPZMCPfvE8Nr/zMgrPnEB6Vj7mLl6BIwd3M0H42nd/CsvgAJoaannM2IQk1FSWcQ6Aty1acTdyJ0zDS8//kgkHtasRhB/+/I/Y8s4rKDx7AslpWaDcguNH9jP5eOb7P2NPzKF920GhkbvvfwI93Z3YufltJgi5E6ehs6MVlLBIaz9+eP8IXEcjCD/55Z85aZEIFHlRQkLD2YNQUVp41fsy2gkTImS4K12J1wo9hlyjkEAjAwxWN0s/j0YQ6H4mB0mREyYDBavUcgmTgBMtdmypsCMzRIY1aUqWee4cdHHooqTTiR6Lm0MZd6YpEamj8IILTSYXSrucaO138ZiiCQQEAuMXgfFDEE43o6etD2p/JTRaJUzdg3A6XGCCcKQO7bW9nDeQlBfBxrutthdTl6dz3kFdYfsFgmB1oPykhyBEpwRzzgIlIrbU9HDC4vA2KkF4dCJaa3o4aZIahUMozEBhjlvRFi67E5SI520UYqDM/4LTHzMxoLh4Sno2n0Mx9uLCM6gsK7rqVEcjCGQo73v0KxwOojdeMtZ5E6ehvPS8hyCsWgciLXu2vwdjbw9CwyKgUCo5FJCRlY8lK9eiobYS3d2dSE7NhL8u4AJBIGO94VWcP30MGdn5/BbtJQj/9O2fcHjE+5btcjrR1tKAuuoK31qiYuPxyFPfYK8DrX84QdizbQNqq8tBLnoKm9DfFKb44f88h6005pnjSEnLxvxlq9nQE0F4+nv/geJzp/Dh3m0cCrjn/ifQ3dWBnVs8BCErfzIa66qRmTMRp49/hAO7No/ICRiNIPz4F89z/kBrcyPPkTwjNeXFTD4+acuPkOHudCVeL7ShxuDknACdUoLmPhcb9+EE4Q8nLegfSlLUKiT45xkqUGFQSaeL8wymRMlxcoggUGghNUiGlGApIvwkmBgpx6F6B94rs1HKEIcZyHsR5S9BVqgMdQYX/nHeButQHgKdo5RJ4HC5hVfhk95ccZ1A4BYgMOYJAiUgUpIilTZSTD8qJQR+gSpUnfbkGcy+JwfdrUbUF3UgKNIfUcnBaCjtZM9B3vwkSKQSzl+g/ATKR6DQQ11R+4gchKAIfyTmR6L4cB162zx5DkqNAhTySMgO5+RI6s9mczAZmHVXFjrJM1HUwXPRBfuhp9U0ajXEZ31fyTgREfA2iqt3tbeyC5/K7PInz+S4fU1VGeqqymEZillfbV6jEYTQ8Cg89uVvckXDR/t2IComAWsfeBJlQwRh3uKV/PZPRpW8AvRGTv/ds30jps6Yz4mP2ze9ic72NixbtZbj9F4Pwvd+8huUnD+Fo4f2ICd/Moc59m5/nz0Ij3zxm1ydQKELP39/HqO5sRa1VeW+pdCcH3jyac6LeOlPv2YSQ16K1eseQcGpj/kNffrshQgKCeWcCSpP/PYPf8Fv80QK0rPykD1hKrv7KRfh8a9+B067HTu3vMOhlOVr1qOo4BQ+2r/dl4Owb+cm5ORP4YqLd1/7KycVUnlooD4IUbGJmDV/Kc4c/4iJTF+fkb073/zX/+JQBVVoUAiHkisrygo5YZEa5W9Mn7MIJkMvzp08wsmC3kY5FHkTp0Ol1uDYR3t9FSWZoTI8lKPC/jo7yrocmBevgJ9CgndKbLA43JBLgVmxcqxIUeKNIis6BtwYtLvhrwR+NE+DrRV2vpa8CY/nq3Ci2cEehPRgGecdlHc74XK78fXpahAX/t+jZs57yAuXsfegx+zCukwl4gJk+J8jZu6bvU06KRYkylHQ5kRR5yevPLra8yqOCwQEAp8uAmOeIChUcsRlhSE0NpArGyiXoLW6Gy1V3exBiE4NYWNvtzgglUvYI0D5AEQeyDOQNCESLgcgkbrZuFedaR5KUgwbqmJoAyUpEgnx81dyHoJSrUDGtFjQ2H4BKu6LzqF8BcoziEwMQlx2OCclEvGgMAVVWZj7Pvt8g+u9/dGxCZzs19rcwMbwWqsYaJzhBOGNF59jI0+NjO+qdQ8jJi4JXe0tHN7QB4eioqQAu7dt4IoAIgU0LuXB63R6fuMuLT6HhKQ0LL9zPRwOBwb7+xAQFMQhEErso4qEpSvXcQJkZ0cLFEoVG0EqRySCkJEzEYuW34WBPhN7JGgttL8A5UQMb7Rp0l3rH8Pfnv05JxOSC59ICyVPEjnS+Pnj9LFD/C8RjjkL7wBVDPT397FhJ0N+9MPdnJiYO3EqFt5xJwb6ByCXy7h6gggL9Uufh0dEcyjFZrXivse+wte/+dJznJ+xghM1/ZmMkCdlcLCf+yViMGPuEiZKlORJZIDuD+UpUCUINfK6kPeipakeLz7/K5C3xNsCAoPwwBNfY8x//z//5qsACdZIsDpVidQQKWwOsOHfW2PHhw2efAAy1gl6KR7JVUElk3ClwZEGB+cLELFI0EvQ2ueGTOpGiEaKEy1ObK2wceiBQgxEMJxuN6L9ZZznsLfOjnCtFHdnKBCrkzIhIMJwqsWB98ttvM8CeS0WJSqwPEWB187beCzRBAICgfGBwJgnCFR+pVAroA1UQ66QcpnigMEM+9A+CVSdQG/6ZMyddicG+6xszOmVi/IO6DqVVgm30w3LgA2DJguXZ6n9FGzcKYmQiIbGX8XhC2MneRCknM9wcaNySCILMpkU/sEaKNVyuJyUVGmBZcB+Xcb3Zj0eVBJH7XqIgXdudC3lD5B3gjYqGp5JT8YpIjKG4/Jk1CgJkd6M6Q1YJpdzQh95GijZztDTzQbQ4bCzYY+IjGUXP/0/Zf07XS5f/9RfdEw8lCo1TCYDKFxi6OlickOhDHrbpmupdXa0obuzjcnG8KbW+OHr3/9PFJ87iR1b3ub7SWug+dIxMsptrU0wD1JZoZs/o3JD2vHQYhlEV0cbkyHCjOZLmywF6kPgsNvQ093BayQvDc2DSAx9RqEK8gJQeWZLYx3kCgUnMHrx986P8hXIK0DEJyomjjdaslqt6GhvgcnQ4/MGENGgfIjBwQE01lWNuH+e/ItkxqOmssR3Dbny9WoJonWeRME+mxuNJicnFHobGewIfyknJEoJw0E3ugZdCNJIEeMPzlvotYA9DgN28DGVDIj0lyLUTwKZBDBagUaTiwkBkQYiE5H+Ej6PrqGQhtHiZq+HVinB43kqKGXA389aMWAXiQk367svxhEI3CgCY54gDF8g2Toy7pdtZAc/ybEbQJDnw9b3BjoZx5dKJFI2vt5qgYuXQsfovdXlGulWJqNJ1xJwZGgvbp7jdN3ld2scrd/h/UyePhcaPz/OXxhOeGhc714Ol5uvd/+I6zl2I7eQ1kLPNM3pUhw8GF2O3F2J+NFXwftduZ5Hk64jkjHaFgZ0jNrlkg9pPP4K0lqGLYRKLb8xTY3DDQ4OX4gmEBAIjB8ExhVBGD+wipneagSkUhmTjNHIy62e3+dlfPI4BKoknBBp++x35/68wCrWKRC4KQgIgnBTYBaDCAQEAgIBgYBAYHwhIAjC+LpfYrYCAYGAQEAgIBC4KQgIgnBTYBaDCAQEAgIBgYBAYHwhIAjC+LpfYrYCAYGAQEAgIBC4KQgIgnBTYBaDCAQEAgIBgYBAYHwhIAjC+LpfYrYCAYGAQEAgIBC4KQgIgnBTYBaDCAQEAgIBgYBAYHwhIAjC+LpfYrYCAYGAQEAgIBC4KQiMKYIQkRTEm9uQOJLL6dlVReWnQFxmuG+b5d42E4xdA3A6PPu1JU2IYqEkY8fAqIDROX3dgyy4JNq1I7Bq7cPQaDS8FXBjbRWqK0t8EsqzFy6HsacbxedPXXuHN3AmSRmTKBCpAtJufW+XWEdsIXwDXYtLBQICAYGAQOAyCIwpgpAzJ4HVF8uON7IwEzVdsAb5C1MwYDTz/rG6IA1qClrQWt3LJGLefXmoPd+KpoquUW/wvHtz0FprYKEm0a4dgX/9f79Dd1cnzP39iIyJRWVpIfbt2sxaBk9+7XtoaazH7m3vXnuHN3Dm5Eg58sNlLAY0KUqGr+8cRK9ZbM13A5CKSwUCAgGBwBURGFMEIXs2EQSg/ETTMILgh6wZcaguaEV3iwkpk6LhF6BGxclGFk6avz4PjeUdsAzaWRWwt70fln7rCM2Guety0FrXi+ozLbfl46BQKJlY+ZobcLqcLK40ZeZ86PXBLM1sNPSyQNK1tn/52f/h4O6tOHn0IHInTMW0OYtxcM9W1FSU4AtPfx8dbS3oaGmCRqtFTWUZKw96dRdIYyAzdxKrGxaePTFiy2PyEsXEJSIiKpalkQ293b4pkcpgSpAUiYFS9FrcKOt2wmAlPQLPKWlBMvznIg2e2THI8sLeRlv6hmslyAqRQa2QoLTLgQajm3UFSCcgWC1BZoiMxYzaB1wo73bx9r/UrUYuQVaoFFH+UvRZ3SjvcaFz0HVZzYFrxU6cJxAQCAgExjsCY4ogJE+MYjzri9pZYZGaLngkQYhJC0V4gh5lxxph7rdkzepYAAAgAElEQVRiwf35sFrsLL2s1Chg7rOi8nQzBk1W372ZtDQVnY0GNJWP7mUYzzdy/tLVCA4J9y2BFBDra8px/sxxZOZOxNzFq6BUKlFScBrF50+zaqDVarnqkr0E4cSRA6wsuGDZGtDfxQWnmCCQjLGhuxtKlQoqlQZbN76KmopS7jc4NBxrH/wCwsKj8Ydf/ggD/X2+8UgGmvqaOHU2Nr/zCkoLz/gEidZmqLAkWY62fhcb9epeF94ttaFjwPM8jEYQ0oNlWJ+jZBVDF9yIC5DhjyfMON3mRJifFA/mqJAcJGXDT+qDRxvt2FZlh9XhxgPZKixOUqDe6IJWAbT0ubCxzIbWfuGhuOpDIk4QCAgEblsExhRBIGlmelMkI+9VsLuUIIQgIiEIpUMEYf76fLQ39KL8eCNCogOQmBeBxtJOdDQYfDdNH65lOWaSe74d2/Q5i0Dyy97mcjrR1FCDsqJzHpIVqEdO/hRk508BGedTHx/CsY/2XhWK4QQhiQnCapw6ehBF5zwEwel04dW//h8CAoPw4JPPoLqyGHs/2Mj9SmUyZOdPhkqpYe/FcNEkiVSK2PgkREbHo7KskOWcve13y7X4sM6OTeU2ZIfLMCtGjkP1DlT0eEJOoxGEjBAZ0oKlKOpwwmR14/uzNWjqc+GPJy1ICJTisTwVyrpdOFBnR4RWArVcgsJOB+xO4Aez1bC7JHit0AqNHBzGqDM40W2+Hi3Eq8IpThAICAQEAuMKgTFFEC6H3NUJQh5qC1vRWNaFgFA/JOVFor3egLaannF1I25ksvS2TmEGX3O7MTg4gD6ThySRSz9AH8Qu/wVLVqG5sR6vv/DsVYe8GkFobWrAzi1vQ+Onxdr7vwCjqRcfbHz9qv1e6YS/rdHib2esONHigEIqgZ8CsDjcsA4pRo9GEKL9pciPkMFfIeGwwZQoObotLvzmYwuC1BKsSlUiUS9lTwR5Boo6nWg0ujgEsTJFiVmxcv6cPAwU1qjuccE8lAh7QwsSFwsEBAICgXGKwLgjCHEZYQiJDeBERku/jXMQagvb0FjWiYBQrYcg1PWirfbzQxAWr7gHoWERRAX4MaS39ZrKUpw9eYSJQVJKBpLTsqEL0KOrvRmlxQWorSq76iM7nCCkZuRg3pKVOPbRPpQWnmUPQltLE3ZsepMJwroHn+Jcgg/ef+Oq/V7phL+u1uLFs1Yca3FAq5Ag1E/CuQjkFRjNg6CSAXdnKDl3obDDhT6bG4sTFTDZPASBchBCNVJkhEgR4S9BbpgcnQNuvHLeigG7GxqFBHlhMkT6e/IfKA/ivTI7Koe8FjSun0ICl8sNyxBRuaFFiosFAgIBgcA4QGBcEITsWfFoKOvAgMGChJwIOBwuVJ9phs3iwIL1+ehqM6HqdDOCI3WITgtFQ0k7Ohs/PyWNKek50Pr7+x43l8uFnu5OtDTWYfL0OcidOB2tTfWorS5HY131NeUfUGc/+NlvceLoQVSUFCBn4jRExcRj/85N3AcRBLlcgffe+Bt0Oj3W3PsoSgpP48CuLTwPpUqNiVNncUjjyIGdsNsvJEfK5XImLLEJSSg6ewId7a2+uf9yiRZFnQ7srLZxwmFmmBz7ay8Y6xidFL9epsVzJyyo7nXC5vQkIj6Uq2TPwYYSTxjp2zPVTCyIIFDOwbRoOZr7nGjvd+GudI834VcfW2C0utmD0GdzoazLiclRcixIUHAOwulWh2ctMgm+OEmJul4XdlRfe5LnOPj+iykKBAQCAoFRERgXBIGSDB02B6xmB+xWB5rKO7lawe1yc5LiYL+Vqx5UGgXvkVB7vu22zTe43mc5IjIGaj8/rjiwmAd9uR3X0s+///cfYLWYee8Dm9WCooJTOH/6GBMMIgj+ukD0GXqg0frD4XBgx/tvoqmxlrumvIf7H/0qQsMj8Ydf/hiDA/2+IdVqDSixkiosNr39EudKeHNOFiXIsTxVyWEFpQwo6XBie5UdPRaPB4E+e3qqGhRSoBBAncGFbZV23iNhUaIcFocnJKHXSGAwu/GbY0QQJEwK0kJknJQYoJLieLMdWyrsfC4dmxcvZ88DVTQ0mVycA9Hc50lSpPyGny7Q4NUCqyAI1/LgiHMEAgKB2wKBMU8QZHIplzVSGR8RAiYKg3Z297IhCtLw3zKFFFRaR5UNNrPjugzhbXEnR1kE5R9Q8xrg61kreQwo2dDtcsFms6LPZGTCQI0Mv0Qi5eoIXUAgOjvaONmQKiioyWQyLmOUKxRoaqgFJU56G90nfVAok4jO9paR5EEGRPhLoVNKOO+AcgZMVI44LF8wWCNBoErCoQMiBJ0DLihkEoT7AQEqCfrtgNkOLlOkkkYqgQxUe8IVahkwYKdr3EwIqFt/pYRLJP0V4DG7B4FeqwtDe3XhviwVlibL8S97BnkuogkEBAICgc8DAmOeIHwebsJ4XyMZfAprXNyuTE48Bn404sK8xs3/XFej7SCGuOOl86FPeMzLd0nX0rGLD/9kvga1vS68WnihdPa6JiVOFggIBAQC4xABQRDG4U0TU765COiUHo+EKGq4ubiL0QQCAoFbi4AgCLcWfzG6QEAgIBAQCAgExiQCgiCMydsiJiUQEAgIBAQCAoFbi4AgCLcWfzG6QEAgIBAQCAgExiQCgiCMydsiJiUQEAgIBAQCAoFbi4AgCLcWfzG6QEAgIBAQCAgExiQCgiCMydsiJiUQEAgIBAQCAoFbi4AgCLcWfzG6QEAgIBAQCAgExiQCgiCMydsiJnU9CNBGTdPnLIY+KARHP9wNk7H3ei4X5woEBAICAYHAZRAYUwQhKiWYpYnbanvhGtrnVq1VIj6H5IxlLM7U02KCoXMATselO/ddvL7YjFBYzXZ0NRpH3T3vkz4VSrUcMemh6Gntg7Fz4JN2M+avU6nULNSUkpoFElk6c/IIKsoKefvlz7rRVs/p2RNQWXoeLU31Vxxu8vS5mDlvCbZueBWN9TUjzg0Nj8L8JSuhVKpgMhlRVVqI2poK2G1X3xlx4R13orujHYXnTnzWy72h/mlr6qVJckT6S7mfY80OFHY4cQ1fkxsaV1wsEBAI3L4IjCmCkDMnARKZBGXHGll8iZou2A8TFiajz+DRAAgM8UPN+Va0VPX4SAR9TsSCd9Yftk/uxMUpGDCYUXWu1bNt78V77A5t58sdeyQLRlw/JGNwocthffvpVJiwKBl1xR1ore4es0+IRCrlpV1uK+SrTZq0FtIzc3HfY/+ElsZa9BkNKDh7DNXlxdwfYe7BfQjbEfh6jnm3U74Ye9+1btJZGLm5sfdYakYu5ixajqMf7kF58TnPbfKOyffzAkkJi4jC3fc/gYqSQhz7aC9rR3hbYkoG7n3ky+hsa4FcJkNkdCz27HgfZ08cZpEpb79Dkx0xny99499QX1uJvR9svGQtF28lfbmtpQnD4Q/WpWul45di4JnT6MdoW2h+XIceeSIIixIUiAmQIi1YikMNDha5IrXL4Y0u43sydO3ljg3v13vce93ljl3tORLHBQICgfGJwJgiCNmzE0C/ieUnmkYQhKwZcaguaEV3iwnJE6OgDdSg4mQjizaRmFNgmBb+ejX/P73Nk+oj/RATQbAMWGHqGYRSrYChvR+mrkEWd/IP8oNCKeVjTrsL+nAt5AoZuppNbIQ0OiWCInV8V21mOwtFkYKk13Oh0amQvyAJ9SUdaKvpuaV3X63xY6Gq4c1ht7ORJMXEkNBwnD9zHL3dndcs9UxSziTVTJLNuZOmY9NbL7HrnpQc7TYblCoVEhLTEJ+Uwka2urIUrc0NcDoc7GmIiI5FYnI6yAPRUFeDenpjt9t4nkHBYUhOzUSAXs9Sz7VVZRjo7+N7RgqRWXmTofHTQqlQIiElDYcP7GKCoFAqEZeYgrj4ZFgsFtRVl6Ozo5WFoMiArbj7AUTFJOC9N/4Oo+HCPSGCsGz1vdi3YxPqqkqxau3DCAwKwftvvchCUTRWUmoGQsMi+br6mkoYDb1MQIggtLU0orujDYQzSWY31VfzmhOS0tgr0VBXxbhk5EyAXKZA8flTkEplCI+MZllr6ofGoXmWFZ9l6Wt6xmgO2XmT0VRfw30MbyRyNWveUvR2d3F/XmIhlwIkeZ0RLINaIUFFlwPVBhfsQ1xJr5LgwVwl2vrdlxAEIhEZIVLE6qSsjlna5US32c3aFWq5BFmhUiQESLmvqh4XaoxO2J2AQgYkBsqQGiRlNc1Goxsl3U5WwhRNICAQuH0RGFMEISk/kpFuKOnwGWLyIAwnCDFpoQhP0LOXgZQb47LCEZ8dDmNHP9R+Sgz2WVBT4JF7JoJAhnzAZIFMJoWfTonSjxvR09aHxNwI6II1qDrbCnOfFVkz4vncM3srQWGN1CnR8NdreAxtgJrDG0Uf1flkpFV+CqROjmZy0N3Sd0ufkAVL1yA4NMLnBXE6HaivLkfB6WNIy8rD7AV3sBGsKitCaeFZ9HS1w2wevOKc4xJSMG/JSuiDQxEUHIr6mio4nXacPXEEFaXnQS79+cvuZDVGjVrD/W997zXUVJYiJT0bS1auZS+Dy+VEdGwidmx6C6ePH4I+OARLV61DZFQcBvpNoDf/MycO49C+HSwpve6hL/L1rU31CAgKZjXIXVveZYIwZcY8kMu/sa6ax1Op1fhg4xtobqzjtWRkT8DKux/A1vdeRU1lmc+oDicINZUlmLd4JZOQN178A0tZ03zyJk3nMAblMbS3NOLgnq0w9PYwQdAFBqKztQUqjYZJ0/ZNb6K6vISvo/P3bH8Pxt4ePPTkM3zOy3/6Natdrrz7QQTog2AyGhAeEYX+fhNe/evvmCyQ2iURr5V3PYDTxz/Cvh3vj/DyRMcm4MmvfRftrS14+U+/8qlk5obJcW+WEnaXC25IkKKX4e9nLRxSoDYaQSACtTZTiTnxciYPpGxZ1+vEhlIbOgfduCNJgfXZKpT1OFn9UiWTYEOplUnEhHA5HshRwuwA+m1uJOqleKfYhiNN9lv63IvBBQICgc8WgTFFELQBKnaZmvttvh/3SwlCCCISglA6RBDmrMtBR70BjWWdCAzXIiY1BI2lnehsMjJBoDev8x/WQi6XIn9RMowdA6g623JFgsBjzopHfXE7Oup7mQgEBGtRfLTeRxCkMim0gSpYBuywWz0/zreqkbEODAr2DU9vqmTsKsuK+DP/gEBkZk9AZt4kNmjnTh7F4QM7rzhdMmjZ+VMQHZ+EmNhEnDt1hN+SaypK2SBPmDITQcHh/LkuMAhrH3wShWdPYP/OzVi4bA0SUzOw4/030d3ZgVXrHobDYcf2999EoD4YE6bMQndXO9qaG7Fw+Z0IDg7Dmy8/j/4+I/71P3+HY4f34dDeD5A/eSZmL7yD3/yJIDzx1e/AYjFjz7YN7GlYec9DKCs6iw/3buO1EGl44PF/Qk9PJxMH8mZQu5ggzFm0AjkTJuONF55jgvCdH/0SxQWncPLoAaRl5jFZ+HDPNlSWFzFBsJjNeP2F3zN26x/7KqorinlOVyIISSkZWHnPA/hwzwcoLynAmnsfRVhENF5/4VmfvDWRh/TMPLQ0N6BliOR4b4pMLmdCRMSDrvc2IgcJgVK8XkiG3YknJqhhtLixscx2VYKwNEkBq9ONkk4npkXLMS1GjndLbEwCnpqgQkaoHM+dNIOie9E6KToHXWgyubA4UYFFiQpsrbChuteJRL0MgzY3SrsvSHjfqmdfjCsQEAh8dgiMKYJwuWVejSAsfWwyOhoNGDBaoFDJoPZXorm8C52NHoIwaLSg8kwLpDIJsmbGw253oPx40xUJQkCoFpkzYlF5uhm9bf3spQiJ0qHseKOPIHx2t+T6ew4Lj2KXv7cRKSKXvdfNTu5s8gTk5E9hg9tQW423Xv7jVQeit9ypMxdg4rTZePPFP8Jk8lQHUH+pGTlIz8yHWwIOKSSlZqK06Cx2b30XS1evg14fgj0fvMdz0PrrODxg6OmGvy4AeZNmICQsgl3u0XGJfOy1v/0efSYDfvSL57H5nZdReOYE0rPyMHfxShw5uJsJwte++1PYrVY2qHK5DOFRsagpL8H+XZt9a5m3ZBV7N176069gMnjmezWC8NNf/YX76e7u5LkGBAbho33b2VNCBKGhtgq7t73Lx+5e/wR6ezqxY/PbVyQI7EVZcQ92bdvA4RX6OyE5DW+98icfQbjqDbjMCY/kqaCWAe+V2mCwuqFVSiCXAEarx90/mgeBAlCzYuVI0lMIQYIwrQRhfhK8W2pDUYcTU6PkWJOmRK/VhT6rG1W9Tpxvd8JgcSMlSIZVqQqo5BL0WV1o6nPhdIsTbQOffaLqJ8FIXCMQEAh8OgiMO4IQlxGGkNgAj7Hut2HxoxPRVN7lqyRwOl3o7zH7QgyDJgsqTw8RhFnx/LZPOQ4JOREICNGg+lwrBk1WZM9KAIUNzu6rQkCIHzJnxqH2fBsTjeQJUZznUPpxw5gkCPQmS5n63jxLh9OBmooSdl3TWy8Z8+S0LKjUGrQ21qGirOiSmPflHqfRCIIuIBD3P/5P6DcZUV5aCKVSiWmzFqCyvNhDEFatQ1BwCHYTQejtQVRMHMfqmxpq2bW/YOlqlBUXoLuzHZk5E5i8vP7CH5gg/PDnf8S2Da9yeCQjO58JgjcH4Z++/WP09nShbChhkSpdujvbRlQ4UNz/0S//Mz7a+wFOfvzhZQkChSlS0rPw1st/5jDHj3/+PM6eOuKrfqAcgeb6GiY3RBBo3js3vwWtfwDueeBJnvfOLW9zGCU4JIyJkKG3G4988ZtMll75y/8xYVp+53oc2LUZFaWFWHXPg4iKTcAbLz53QwTh4VwV/OQSbCizsvGOD6C8AAkb9CsRhFCNBD+cp8GpFidqDC72QqSHSNnzQASBchvSg2WI8JciRidBZogMe2sdOFhv55BDbIAUcYFShGkkmJegYILwetGFRFCag1zqBjnTLsqL/HR+qUQvAgGBwE1HYFwQhOxZ8Wgs78CA0YrEnAjYrA5Un23hvIAZazJh6BhAbUEr/IM10If7o7PRgL4eM3sQ5CoZig7VsXeBkiA7Ggxs+KNTQ0BllfXFHSASkTc/GYaOPiYPlIuQOT2WSxsoiTE40h+UMF90+EIOwk2/U1cYMD4pDX5+Wt8ZLrcLxt5utLc2Y8rMecjJn4qG2krUVldwbH94hv+V1jEaQaBkvse+8i2cP3sch/Z8gNj4ZNx9/5MoKTrDBIFd+HmTcWj/diYRi1fcg56uDuzc+g67zYlM7Nj8Fro62jl5kIz6q0MehO/++FeoKi/CkYO7OMRBoYzd295jD8JDX3iGk/+olFEX4PFEUNJgefEFFzwlQa5/7Cscyvjrsz/nNH/yIFBuwokjB2Ho7QJ5GQw9Xdi5+W0OWXz9X/6TcxaOHtyFmLhERMbEoejcScaPCALhsOH1v7FXZOU9D3LC56F9H3BuR86EqRwOIe/KQ088w16HbRtfR2R0HFavfZixpjwN8ihQYuOrf/PkIJAXhs6ZNH0O522UF50bXoADP38dFi+/mxNLaW8Hb5LinWlK5EfIsKncxm/6lJBYb3Tj7WKPsdYqJJwv4KeQYHe1nXMGesxuhGsl+OkCDf5y2oqiTgcWJigwM1aOd0o8BGFJkoKJx9EmO6L8pSAicrrNwZ6K/HA55x2cb3fA7nTj6WkamKxu/O9RT2UREYjZcXKkh8iwo9KOln7hWRhLvw9iLgKBT4rAuCAIk5emgjwDVE1gHrBxjoGxa4ArC0KjA5EyOZoNgUQq4QTEhpJ2zg0ggqD0U8Bpc0KpUTCxKP+4Ef1GM1cpJOZFIjDUY1hdDjeKD9diwGTlcAR5DEJj9fzDrNYqoFDIUXpsbHoQrnTzQ8MiuJKgu6uDcwguKfW8wsXDCQK9+dIbPjWFQonld61HetYE/oz6pBAHJUHu3raBKxgW3XEXJyCSwaZyvS3v/oOrFWLjk9jIqtR+MA8OQKFQwOV2440XnkWfyYi5i1Zi9oJlbHDp/lKZ5oFdW5ggkKFfcdcDbFxlchmXXdLb+8V7JBCxuO/RL+PF5/6X3/7pOiIXlARpNg/A2NvLBr65oZYTAynXYcGyNXA6qCpGjuqKUhw5sNPnQaDqBat5EBqtFv0mEycpUmVDRGQMFq24m9dJZJKuJyLR0dbCGJEXgSobKGk0JCQcSrUab770RyYIUpmMKxjuefALOHFkP5dRDi9FpSTHZ773M7Q01/M6nE6Ph4A8BvdkKhGlk7JhJuJKSYqVvR6jTOWP06PlWJFKJAFcofCPAitqDE58fZqa90mgnAUqdCQcvR6EWTFy3JuthNXhhlwqwYAdeLfEk6RIhn9thhJBak8psb9SireKrDjS5MnxCNZI8FCOCio5ODeiXYQePunvsbhOIDCmEBjzBIGMNVUnkPEng+FwuDhMQH9To8/pOHkIqHyRSh0dNipzBIcMuG5eKuHjdMw2VAJJteAKlRwqjYILw6lPqnzwNrqGSijpeqp40AaqmSBQH+OpcW0+18p/kpI0CdQaDVcLkDEebsAoITAoKJRzCnq6O2F32GC32TE40MekgLL9KXRA5ZLkzTAaafMrJ2QyOWf2BwYGw+Gwca4EeTy8/ROZofCESqWByWTgY+aBAX4TJ++BLlAPvT4IlPxAyYh8vWtkshwZ52/84L+YsGzZ8A821pRXQPeU1kAbJA309/uuozlSkqe/fwCXYlKuBBEJIj7kiSAMicjodIHo6mrnxEbqx7vOoJAwPofCKVQK6iVhRLCUKjXPe9nqdaDz3n75eQwOejbWIuJBIYq+PhP6Ltr9kYgKVXqQh4MSOr07fREBoHJFMspSGtPqYg/B0NeB+6VSRDqH3P7Uei1uLknUqyUIUgFSqQQmmxu0Fxk98pS4SNfo1VLoVeDPe61u9hLQRksUfghQSfh66tJkpT5dnMxIjUIT5LX4uMkTkhCbM42nXwgxV4HA6AiMeYJwq24eJSVmzoiDTCFjIlFzvg0NpR1wUmG4aBeIFG2UdPEGVENHL7dxkI+ADe1CdaVrP0m/3v6z8ydDF6DH8cP7r/lu8aZPzKMuT6Y8xy89Nto6Kfyw4q77maAQGTi4exuOHNzJJOTa2vCdvC694spHr/ClH3WFl90v7MK9HvrrYgRmxsgxJ06BzeU2Xy7Eta1PnCUQEAiMZQQEQRjl7pD3QR/hz7aCchSoSsIlsq/G8rM85uYWEhrBlQvk2erpauONpCgB8nZrCim4ksLqBET2we12d8V6Ps8ICILweb77Yu0CAYGAQEAgIBAYBQFBEMSjIRAQCAgEBAICAYHAJQgIgiAeCoGAQEAgIBAQCAgEBEEQz4BAQCAgEBAICAQEAldHQHgQro6ROEMgIBAQCAgEBAKfOwQEQfjc3XKxYIGAQEAgIBAQCFwdAUEQro6ROEMgIBAQCAgEBAKfOwQEQfjc3fLbb8G0oyHpIgQFh+LQvu0+Fcvbb6ViRQIBgYBA4OYhMKYIQnRaKO16jLaaHjiH9mulDYsSsiOg0ip8qJCmQm1BG2sz3GiLSQ/lLlqre0DqgKKNRIAUIEmrIC0jh5UKTx07xGqKw7dd/qwwi45NYPVHGo90E67UJk2bwxoOWza8isa66hGnkrjU/KWr4e+v831O2x1/8P4brAcxltqMGDkmR8p4m2T6CrxcYGFdBNEEAgIBgcDNRmBMEYScOQm8Xz5JOTuGNnrX6tXInZvIGgq0oyE1u82JpvJOVnOkfeVp91veuZfFa9ye7XIlJFwjYSEg7865nnM8mg7eljs3gT8rO9YIx224jbJc4dGjcNjt1yXURPiQyFJGVh7WPfJlNNZWsc5AUcFJ1FSVwT2kRUDaCqTz4HQ44SbloKFG15IWAY1NYkXDCQV9RmJFUomU9RC8QkTea0mHgM5JTc/GrAV34OiHe1isiRp5C6hfuq3Ur3frYxI3umv946ipKMXRQ7ths16QIo5LSMHaB59izwKpOFIjjYMP92zl/xLxod0O6Vli0aWhflkUSibj+XnH8YhP0TkXttwmDOh5czo84kXDG51P/w7vw7dOCSCTegSViJvSUzkxQo6sUCnC/KSYFiPHN3cNotc8krjSc0w7F9J/iUQM12Ggz0gvgZZCG3+6hvr1jSn1HOcx6avxSSQ6bvavlBhPICAQuCUIjCmCkD07nn/1Kk42jSAIGdPi0FzZhfa63ktAikkLgWXQDrWfgsWVetv70W+wQKGQITQ2EL3tfTD32/hHXReshlqrQlej0UMcABApob8qTjSNW4Kg9dexCJK3kcG222ywmAdZ7jk8IhpFBafQ1dHGn12LoqNCqURAgB55k2ewpPHWd19lgmA2D8JqMbO2QHJqFuISEuFwOJk0NNXXsM4AXUtv/4nJaSy6RIqK1RUlrCZJBjc0PArJqZksvNTV2Ybq8mKYjB5VyMCgEOTkT4FarYFCqUJsYjIO79/JBIFEo0iZMTo2kZUZ62sq0NrcyAadTPsdd61HbFwy3nvj7zD0dvvwIIJwx5r1+PjQHpQUnr7kGZo9fxmvjYSZpDI5qv8/e98BHmd1Zn2mz2jUe++9We5yr+AGmJheDGmEQLIJCdmUDdns/pu22ewCCaQAoYRujHHDttx7t2zJ6r33Ls1o+vzP+45mJOEi24Ajyfc+jx/b89V7vm/mPfd9z72nvAitTfVw9/Bix0WykyZjKMI4MiYehHdJwQVYLGY2oyJLajJlIlfGkcSBSFBMXBJCwiJRlJ+Lrs4217W9VBKk+ssQ6uFwVyzqsKBVZ+egTY0MkH6xUHMJQVDJJIjykiDJTwb6d3m3BSUdNl7mmEyV6HwpfjJ4KIGOQTsK2m3oHLQxESCDp8xAGfw1EgyYgNJOK+r7bcJc6Z/y0ysuKhAY/wiMK4JAronU6kvaXSUGyiCkZEeio6EXnU39vN1kGHZlXHR/JjssDvQMQu2uhNlkQUVuE5cfspbGo7OxD1oESykAACAASURBVNUXW9jCmcyXqBUdq3XZ8cRkBDNZaBhxzfH/2Ebf4eLb7oRvgAM7ahQwaypLkXf2BOISUzF7/lIOdnXVFSgtuoC25ibodA4sr9Qio+Iwf9lqePv6cW2fjqURcu7poygrzsf02Qswb8kqNDfWQqNxYzfETze9j4rSAiQkZ2DJiruYSNAxUXGJbGd86th+Ptey1etAPgXkYBgSHomL50/j0J7tTCDuffRbiIyO4zKBr38gVBoNcrZ+xARh1tzFmLdkJdtGk5skmTHt3PwB6msdJQW67uq7H8TOLe+jvKTQRYSIIKz+ysMozD/Lx1Ib6OsdIiU2/OxXf+R7IZtmH/9A/jfZSBsNBjz+5A9RcOEsDuzeAq3WA3feu54dK7dvepezItSftQ88Dh/fQPz5f/+D++xs5Gi5YOkqpGfNYldJcpd0krOH01WYFiJDTY8VQVoZWyRvLDahZcCRLbgSQSBSsTZZAbNVAqvNjrRAOV7LHcTJRitbOZPtsp+bBI39NoRopchtsWBHhQlmG7A+XYXpoXImBuTO2KG3Y3uZCS3CnnmifeXF/QoEbgoC44oguHmo+AfUoBtOhxNByFgYw6N7Aw17ACYL7fW9TCIW3peJlupOlJ1thF+oJ6LSg1Bf3MbbE6aHwTtQi3M55VCo5Zi6PB61ha2sN3D9iF/mmjcF+S/wIpnTZrOdsbNR2r6lqQFV5cX8kdbdE/FJaUhOn4KA4DAU5J7GwT3brnoH/gFBSEqbgojoOIRHxrL2gIJfTVU5WhrrkJY5gwM4BV26NgXOggtnsH/XZiy+/U42Kdr5yQfo6mjDbXfcC6vNgt3bNvK+6VkzOd1PAXnR8jXw8fPH+2/8GQP9vfjpf73AI/0j+3aC+jV38e3Yt3MLE4THv/0sZ0D27fyEbaZX3Hk/j+6dfSGict9jT3Lg37bxbVfKnwjCPQ9/ky2c6RrUii/mIv/8aS69/OQ/n8eFM8exZ8fHnC2Zs2A5n7Os+CLufuCrnAH424u/RkBAMO5d/ySOHdiFC2eP83mofBCfnA6FXImiglwuvTgbZa3oWL+AYCZs/X09rm0vrNBiT6UJOyrMSPKXIStIhpMNFtT0Xp0gxPlIEestQ2W3FeQ8/ky2GnW9Vvz5rBEx3lI8kq5CRbcNh+vM8FSSJTRQ1mXlzMSPstWwQ4INRUb+3F0hQX2fDb1GUWf4Ar+O4lQCgUmDwLgiCJdDlQhC6pwo9LQN8B9qg/1G6PqMrCVYeF8GqvObUV/aAe8AdyYIzVVdaKvthk+QBzIWxSB3Tzk0HkokTA1D7t4KGHTXarc7MZ5zUEg4VCq1y6uXcBkY6EN3Zzt3gAIVjdjTp87kbEJ1RSk2/OOvY3aOygEzshcha+ZcvP/6y+jrc5R46HzJ6VlISpkCq93Kqffo2EQUXczF7m0fYfmadfD29uNROBEBGkmTFqKvpxueXt7ImjkPvn6BnOmgAEoagLdffZED6HO/+zO2bHgTF3NPIzElA/OXrMSxIQ3CU8/+kgN6S1M9X9M/KBiVJYU4sHurqy+UYZgxZxHe/Mv/oLfbQQSJINxxz6NMmBrqqvizzvZWJihEpv71l/+Lg7u34cyJg0PXXIXjh3azODIlfSrueeSbeP3l3yMsIgYz5izEB2/+Gd1DWoYxQbzCDn9bo8WruUacbbZwaUAjl8BotWNIenPFDAIRhBkhchYxkm4hK1iGpgErXjhlhLdaguUxSiT4SqE329GutyG32YryLitrDhZHKTA/Uo5+k51JQWG7FYVtVujMgiDc6HMUxwkEJjMCE4IgXE2DQAShKr8ZDZchCKRJmLEyER0NfVx+kNiBwmM1rvLCZHmwVF8PCArhOjw1i9WCitJCnD1xCD5+AUhOm8J6AYlUirqqMlSUFaOpoWbM7l+JIHh6++CBx76NrvY2lBTlQalUYc6CZagoL3YQhNVf4dT77k83obe7E2ER0awfqK2qQNqU6Rz0KdvQ0d7KegO/gCC8+/c/MUH4+W9fxvaN7yDv3AkkpWZi/tJVOHoghzMI3/7BL9DZ3oKCPIeOgEbrpA1oa2509YXEio996wc4djAHp47udxGEq2kQiCAQySC8ElIysGDJMEGgUsZTP/wFivPPc/mBygtbNrx1TTqOqwH819VavHHBiFNNFk73B2ulaNPb0GNwBGtnieH7OXp0DYkUiUTcm6KAv5sUZ5ut0JnsuCNRiT6jgyCQQNFHJUGklxT+bhLMDJVzluGV80YMmu1QyyUggkHbkv1k8NVI8XGxiTMMzuaudJQuBi/VW475vogdBAICgcmFwIQgCCmzI9BWRxqEPkafFOeUBXBmEK5EEGjf+KmhCIzyZgFj2elGtNZdKnSc6I+UBIEkGnQ2qo1TsKVR8sy5i3kUTELAmqoyHjWTkPBa2pUIAk0bXP/E93lGA2kHaIS+9v7HUZB/jgnCvMUruIxwZP9ODPT1YPnqe9DR1owdWz7A9FkLMHPeYuza8gE62lpx+x33smjx7Vdf4Hv+4XO/Z53AsYO7kDplOjKnzkbOto1MEB786tMsXNy24S0WOE6dNY/Fj4VDhIH6RCl/GvFTxuSvL/yKZfqsQbj7IRTmnUV1pUODYLNa0dbaxKLCqxEE2pdmRyQkp/NxVCa5eOG0Cz7CnUSOGq07crZ+CMuImQwKhRIpmdM4u0ICRir7ONtvlrihsseKXRVmZATKkOgn43JDxVCwJrHh/yxzw9/PGzmAGyw0Y8GOhzOUXC7YWGTizMOP5mjQ2O8gCCHuUsyPUKC6x4rGPivuSlIi3FOK/z5OUyXtuC9FhW6DDfktFtYizItQcLkhr9VBEEj0+MM5KpS0W/FJqZhbeS3fEbGPQGAyIzAhCMKUJXFQqmSwkNKKpqjpTSg4UsOahJEZBK8ALUjo2FzVzSUGah4+Gsy+MwXGQTNObi6Eeegck/mhjuybt48flEolerq7YDIRMbj2dPJIgvDe6y+5auhUEiBdQfqUmVzXt5gtPD2VSMju7Rs5m7FkxVqER0ZDKqXnZsamD15n4SGRGRIMUoA36PU8RZKC9XuvUwahl+v/i267A3rdABMZ2n4gZxsTBAr0a9Y9DFqbgYgAESAiJC3Nw4GX+p6cloUHHv823vjzH1BXU8HHPfD4U1AoFDCZHNMfdf19ePu1P0I30DeaICQ7yhqkg6ASA7WY+GR847s/YZJDWoRB3fDaCZRNefDxp1mP8cJvfgrD4LBIkcgDiTWnzZqPje++irKifFfmYU6YHOtSlTxdkdL/x+vN2F1l4fQ/NQr+T0xVI8VfBqvdjrJOh4iRRIor4+WQSyWu0gBlHV44ZeBZCncmKlnPQLMW5DIJ9lSasavKBIsVWBmnwIp4BZcm6PiCNiu2lJo4c0EtI0CGn8zT4LXzRhysFQThVvmNEP0UCFwJgXFPECjwKJSO+fTORkJGs9ExN12plrNYkf7QvpQpsFkp6Dh+9Og42of2pXUTRLs+BGjKIgnwaHrjyHUOlCoVPDy8eXZEd2cbT/mj0TjNRCDMSRNBwVMmJ+1BFy9IRJkNCuxuWg+eQknH0GwKygQR0aBnRFoFDw9Pnh7Z39/L20wmA4/MqURCQkQ6lgQXPT2dPNNg5H1R70if8L2f/go1FaX45MM3eGqlWqMdWufA0X/KQhEJoWNp2iKtm0CEhNZgoJKJ2WR0ZQNouqJW6879o2NGNronLy8fXjOip7tjVOmBcCD9hbMvdE5nIwJA6Xxa/8tolaDfaGP9wUj6RiUBlWx4vQPSFdAaBjSFkY4dMIOPIYJB2+grQlkATxX9DV5gacA0rGtQykZeE+g3Agbr0LohAAscs8Pl+Nc9OhiGqw7X98KIvQUCAoFJg8C4JwiTBmnRkZuKQGJqBry8/XDm+MGbet2JfLFfLdHgQgtlKoaJzETuj7h3gYBA4PMhIAjC58NPHC0QmDQIuCvA4kTnYk2TpmOiIwIBgcANISAIwg3BJg4SCAgEBAICAYHA5EZAEITJ/XxF7wQCAgGBgEBAIHBDCAiCcEOwiYMEAgIBgYBAQCAwuREQBGFyP1/RO4GAQEAgIBAQCNwQAoIg3BBs4iCBgEBAICAQEAhMbgQEQZjcz1f0TiAgEBAICAQEAjeEgCAINwSbOEggIBAQCAgEBAKTGwFBECb38xW9EwgIBAQCAgGBwA0hMK4IQliSP6QSCZoqOnnpZGpqrRIxU0J4uWVns5ptqDjfCCNZ1d2E5hfmyZ4OjeWdMBuvbbnmpNkRbE/dWj1xzaHuW/8ktG5aF8K03PHJo/vYKfJmNHKBTJsyg22kG2odNs03s80Ok2N6iIyXL6YlkF/LNfDyxqIJBAQCAoFbAYFxRRDS5kWxn0LJqXpYaJF5AO4+GmQsioGuexD6focLodVqQ2Npu8tbQSqVQCqT8jr45MFARjXOxv4MtI1MgSy07vzwRlorXyqTsHcAnZPW/XcdN7SN/h+W6A/fYE+UnKpjF0lqdF6+pm3Y92HkC7PwvnQ0VXahIrfpn/oekc2yVCJljwTyQrieRi6H5LjYOmSGZLVZ2BHRGazJ80ChVDDeZpMJNtvwAv5k0kTmSISt2Uw+DcPEinwLaBvhR6TDarGMeC4SNpcij4PY+GRkL1yO44f2sFkTNfJVIJdEm90Oi5muObpP5B0hgcRlyjSyv+SzICPzKIv50uOkDgMjMkYiPy/qU3qAHEl+UgRqpZgfKcd3d+nRPWS97DyvVAIQd+Vr2uxshDRym0JKDpMOC2XzCK8FchZRyACZVMK+EHTNEa/f9Twmsa9AQCAgEPhSEBhXBCF1TiQglaDsTMMogkCj8dqLLehodNg9j2wqjQJ+oZ5w81Lx6L67ZQAD3YP8oytXyuAT5AFPP7JCtqOnVYee9gHOTpCpE31ODpC0Hx3T0dAHi9nKP+hETHxDPDhQuHmqOJNRfMJBEMj8ibZpPFQwDZrR06aDvt84imDMX5eGpqouVF1o/lIe3MiTenr5sMmRq9ntMBgM0Ov6MT17AUJCI1FccJ4DvW6gfxRJutrNkfXy0QM5OH1s3yW7kcFRQlI6QiOi2MSourIUNZWlbHpERk0R0XGIionnfzc11KG0OJ8NmyhIB4eEIy4hFe6enujsaENZ8UX0dDmMjvwCgtglUqlSg4I9nf/Ivp1MEDRuWsQnpSE4NBwmowl11eWor6tit0hqtP/UmfOgVrvh+KHdTAScjchMbGIKwiNi2K65o63FtY1cEMnJMNhdym6KRe1WNPTbMJTEQoKvDP+xSHMJQSAzpXgfKRJ9pVDJJajqsSK/1crLFRMxiPSSIcVfysZK3YN25LdZ0aqzMREIdJMiK1jGDox6kx2lnTZU91rZfEk0gYBAQCAwHhAYVwQhKi2QA3JjWYerxECBOmVOJJorOtHd6nDSs5qtMBosHJDJ3jk41he97ToO5BaTDZXnGzHQY+CRf1RqIB+nUMrh7qNG2dkGJgJsDZ0RzOeg8/lHeKH8TAOP+jXuSiTOiuCyhq5nEJ7+Ws4+XDxSzQSBSh5BUd7oaupjkkDZjqr8FgySPd5QS18QjY7GXrRUffklhiW33wXfgCAexTI+VguqK0pw4exxRMclYcacRSDb59ameg7UzfW17JQ4Vnv2F/+DC2dP4OL5U7wrjdgH+vt4dD5r3hJkz1+OuppyuLm5IyA4BDu3fMiWxkmpU9iyeaC/lzMLCSkZOLh7GwdtHz9/LF+1Dh5ePujt7kRkdByKCy/gQM4WdmZ84LGnEBwWzmTDPzAEWg9P5Gz9iAlC9oLlmD1/KcqLL0Kj1cLfPwg52zagpqqc78/Lxw933bsePr4BeOWPv4ZhUO/qIpGLeYtvR3rWLHy66T1UlBa4iNL6DBXSAmWo6LIixEOKPoOdrZUb+x3pgCsRBLJevjNRAb0FMFvtmB6iwFt5BhyttzDZeChNBU+VBHV9NoS6S1DYbsXOCjOMVjsez1RhSrCcLZe9VBL0Ge34tMKEloHry/KM9QzFdoGAQEAgcKMIjCuCQIGZCAJpC5ylACIImYtjYRgwwah3pPf7uvRoruziwBwU7cNlgr52HbyDPBAS74fagla01/cga1kcn6vkZD1kcgmi0oKYOLTWdEPrrYaXvxa6XgOfJ2VuFMwGC/IOVHJmgUhJVV4zOhp6EZcVyoSi8FgtE4T596TzOUgr4RmgRUisL+qL2tDeMBx0SbNAJIYyDF92S82YBndPL9dlKO3e3tqE2qHASZbDMfHJSEzNRHhkDIrzz2Pvzk1j3haVGIhIdLY7Rtu9XZ1MGNpam5CSlgW/wGAe/Xt4emHNuodReOEs9u3ajMW334nImHjs3PwBujrasHTFWlhtNuzftZn3TUmfxpmMzo5WzF+6kgP6+2+8zITip//1Io4d3IWj+3OQOW0W5i5egf27tjBB+OpTP+IsBJENd3cPLF9zDxOSA7u38v2RlTT1Uy5XoLzk4qgyApU6AoPD4OsfiPqaSr6Ws/1xpRa7KkwcvON8pZgSJMfZJgtqe69OEKK8pIj1lqK+z45Bsx3fmaVGU78NL50xgLYR8ajpteFwrRmUbSA75spuK2cmfpSthlwmwUdFJi5raOQSJiREFEQTCAgEBALjAYFxRRAuBwgRBBqNdzX3o79rkHchokAZAyoVhCcFwCvADRajFUqNgkf0NQWtaKvtxoyViRzgawvbmHDIqejLI2ErkwAiFzKFFDarnUsGJr0FuXvLmQwkz45gLQRdJyIlEH4hwxqE5eunoqOpD/o+I5cnqOTQUNrOmYl/RgsNj4JKrSFlBF/ebrehv68Hne2t/H8KjgFBIcicno0ZsxeyyHDju6+Oeas/+vc/cIagsrSI99Xrdaw/oOCakTULSWlTYLaYQel7ygQU5p/D7m0fYfmadfD29sOeTz9Gb08XNBot5Ao5+vt64eXti5lzFsPbz58zEkGhEZBJpXj71Rf5np/73Z+xZcObuJh7GokpGZi/ZCWODWkQnnr2l7BZrVwqoWv6+AWgoqQAB/dsG7MvV9vhlTVavJprxJlmC+RSsCjRZHXoAqhdLoNASCf4SkFCRoVUwvtmBsnRPGDF/500cOZgSZQCqQEymG12dA3acbrRguJOK+sU5oUrsDhaztmEAZMdBe1WXGix8r9FEwgIBAQC4wGBCUEQkrMjhrICo9PiKq0S2Xcko764DT3tOs4KBEZ4o760w0EQViSis7kPNRdbOXZ6+bnBarVD329ATHow70+zDExGC5ciSDw3kiCUnm7gmQiRqQ6CUHzSoUFY+kgWagpbWe9AjUbsg31Gl2jyZj/YlWsfQGBQKDEBvjSJ/igNf/r4AfgFBCItcwaPrEkQWFlyEdVVZWhtbhzzNp997vc4fng3ThzeO2pfLx9fPPD4U2htrEfRxfNQqlRYsHQVqipKHARh9Vc4K0AEoWeojEAEhranZ83E3EW348KZY2hva0Hm1FkICArFe6+/xATh5799Gds3voO8cye4VEEZBtJBUAbh28/8Am2tjcjPdZQ8SKjY293lynCM2aEr7PC31Vq8ccGEk01mTveHeUjRoqOgPjqD8C+79K7P3BQS3JuigLdailONFgyYgLuTFBi02Jkg0KPwVEoQ6iFlncHccDkTg7/lGqEz25mERHo5tqX6SxHqIcOmEhOKO4ZFCB4qEs/auYQhmkBAICAQuNkITGiC4Oah4nT/xcPVXFIgLUJ4YgDrAYggpM6LYj1B8cl6qDRyLhVQaaC5qgvxU0N55E+zDCi7MGVJLEyDViYIHr4aPpb0A3Te2Ckh0GhVLg3CrNVJ6O8eRNX5ZngGajn70FzZib6O4Zr3zXyQFGBVKpXrktQfSuFTcKaaPQXakou5qK2uYFHgSPHe1e7zSgTBPyAIjz7xDIryz+Hg7q2IjEnE2vsew8W8M0wQiABkTsvG0QM7Oduw4o77eNS/fdN7mD57AWbNX4xdWz5EZ1srbr/jPvgFBuEfr7zABOGHP/9v1NVU4Mj+nUjLmsGEwqlBIFJCWoItH7wJTx8fzJy7mEsMTsKg1rhh4bLVrFvYvvFtnj3hbDTzIX3qTMQlpuLEod1orK91bfv1EjfWCewoNyEzUIYkfxm2l5tR1ukI1sHuEvzfbe5484IBJZ1WGCzgDMND6UomZR8VGVmU+OwcDZcYiCCEukuxNEaByi4r6nqtuCNRiXBPKX5/3MBCSCo/dBnsONdkxrQQOeZFKLCx2IjzLY5rUkniZ/PVKG6z4oMiR2lNNIGAQEAgcDMRmBgEgWYxFJKuYHQGgaYaUiAPCPOC2WSF2WiG1WJHfUk7EwTSASTOjoDWU80jOioXUNmAShT+Ed4c+FVqBUxGM4sbbRYbEwSFSobIlEAmGyaThTUKVpMVRUOzGLz93ZE8NwIKlZxFji3VXagravunZRCu9sJQzV8uk6N/gGZoXJ8egoL1iSN7Lskg0FTD5avXIWvmfC4TGI2DnJ2oKivC7u0beSbCkhVrERufxKUAvU6Hje/8DU2NdQgOjcCadY/wPiQiNJtNnPF47/U/cQmCyg9UojAZDTAYHOclzQFlEELCIrH2/sfh4enN00ybGmqRs2UD2tscM0VoNscDX30K/gHBeOE3P2O9grMReSBtxPTshdj03msoKbjg0rlMD5bhoQwVKCtAYsODNWbsqTK71jyQSYGvTVFhWrCcM1FlHVa8V2DiEsOdSQpoFTT7wQajxY4+I/D8KQO81RLckaBEdrh8qPAD7Cg3Y0+1iWcqLI9R4O5kmpJJJQUJE4MtpUa06x0lBiIqP5mnwd/OGXG47vqe2838ARHXEggIBCYvAuOeIFBgp2Bg57npl9ZnaUqiXCGFRCZlkkAqx5H7koCRZjDQkRajhac/UqO6PAkXSUNgMdtYh0BTIR1/O64pp4K0hFL2o7fRZ7S2Al2XpuGTpmHkGgqT5XWhqZO0rsTI9Q2cfSOS4ObmwVMVSYhIUx1J+0B/8/oSUhkLEokg9PV1Mzmh50fblEoV3D28OJOh1w3w5zTzgv4moaFGrYFKo0FfXy89Er4+lXH4mcnk8GRBpoTP67ju8DOlGRX0v0G947wjG025lCuUMBj0TEqczbmWgVYhgdEKFhwOvQaufehVoEW8qIjDazDYHBUdtQzQKgGdmWYy8O06trFoEnCTOzQNVCYgAuE8L11TJQNPgaS1t/S0jd7xoSs+mq5icvGD3TqXFmKyvFeiHwIBgcDEQGDcE4SJAaO4S4HAF4vAcws0PAVyc6koL3yxyIqzCQQEAteKgCAI14qU2E8gcBMR0CrAWofPZjJu4i2ISwkEBAK3OAKCINziL4DovkBAICAQEAgIBC6HgCAI4r0QCAgEBAICAYGAQOASBARBEC+FQEAgIBAQCAgEBAKCIIh3QCAgEBAICAQEAgKBsREQGYSxMRJ7CAQEAgIBgYBA4JZDQBCEW+6Riw4LBAQCAgGBgEBgbAQEQRgbI7GHQEAgIBAQCAgEbjkEBEG45R755Oswrdq4ZMVdvHzznu0b0d3VMfk6KXokEBAICARuMgLjiiCEJwfw8rVN5Z1s5UyNzJbCEvzRVtuDvi49/MM92WOhsbzzc3kf+Id7QeulQkt1N4z6y691TyZMXoFadnwka+dbsblp3dlgKSomkZeXPnPiEEoKL/DSx192C4uMQfqUmWwKVV9bedXLZU6bjflLV2HHJ++jtqps1DLLQSFhmDZrATtEkn9D1oy5bDN9aM829oO40TZlxhx4+/gh99QR9pH4slucjxQLIhXwUUvYlvq9AiMa+4U99JeNuzi/QOBWRWBcEYS0eVHsgUCGSmSQRI2cFZNnR6I6vxkdjX2ISA6AX6gn70PWy9SkMin7KpDPAhkujVyCn7waZAopf2Y10zbHD2pESiC8A7WoutAMXa+BryuTS0ftE5bgh6BoH1Scb0Zfx7Dxz0R6WSjAk78BeR5cb1Cn45JTp+CuB76KiuIC9PV2o7Q4D3U1lbDbbFAoFFCq1Iyp0WBgPwVnI88EsoGmc9C2kQ6S9Bn5McjkcjZrMptMo/wUyBqasgLRsQmYvWAZjh/aw2ZN1ORyBchTgfpiNBpcPhG+fgG4677HUF9bzS6SRsOg616i4xJx25p7sH/XVlSWFWLpirWIjk/Ch2/9hV0vyTlBqVSCvCfIo8HE9zNMgOhzpZL6aeO+OL0pltx+FwKCQtjWmrIW1B/qF13biTW5SNLnJpMRNuuwlTO/t1IpqK+EwWeNtIgAaOidttOKig4PB7KOzgiQIcRdijkRcnaNJMfJkRTB4fHgIBDkOMn2JENIkD+ESg4opBI+30hvCNpFKXMcS/vTNYc4+kR63cW9CgQEAl8gAuOKIKTMiYRECpSdabxmgqByUyIg3Asad3JltKC7ZQAD3fQDbWe3RSITHj4UUOzoadehp3WAsxOfJQh+oR7w8HVjJ0hn9iI0zg+B0d5MIvo6b3yk+QU+r8ueyscvABSIhpsdg3o92ydPy16AiMhYtkWm0TMF+cuZXn32xOR+SK6IqZnTkJSWhZytG9i6ubenGzpdPxsxJadmITgsnA2daqrKUFFayMGRjqUAHBUdx8G8uamBswAUjCnYhkVEs+2yu7sHurs6UVxwHp3tbRyAg0LCkZ41iwO2Qqnk/x/et4MJgtbdE0npUxAYGMJWzvU1FaiuLGWCQcFv2ep1iIlLwsZ3Xx1VZhiLIFBpIjktC14+vtD19aGyvAjNTfVMFjw8vJCUnoXA4DBYTCbUVJWiprKMA/5IgkDW2ikZ0xAYFIpTx/Yx/kRmElIyEB4Ziwtnj6O9tckFMxlPUWaDshnVFaUoK853PRdPlQRZQTJEeso4kJd0WFDcaeOgTS3MQ4pnZqvx2nnjKIKgkAHRXlKkBcjgqZSiVW/D+WYL2gftTJDpOLKW9lKRIRXYurqiywaj1Q4ftRQzQ2UI0kqYGNT22pDfZsWASWQovuzvrzi/4Swb8QAAIABJREFUQGC8IjCuCEJESgAPd5oqhksMlEFImxfNlsq9HToERnrDzVON4iHr5cSZ4fAL8UBncx/cPNSwWm2oymuGrseA8KQARCT7o6upn7MDHv5alJ9tQFdz/yiCQNElfUEMulv6UX620fVDTSUGyjI0V3VjsH/8lhjIWpmCudNXmAJbdUUxzp85jojoOEybNR9+AcHo7mhDeWkB6qsr0NvbfdV3MjI6DguWrYaXrx98fPxRV13BGYLc00eZbMyatwTTsxehqrwIWq0HqBywe9tHHOxT0qfysd2dbTAZjUjJnI5jB3JwZP8O0Eh/2aqvQOOmRXdnO2ISklFZWoi9OzczuXjoa9+Fn38gKsoKERQcDi9fX+Rs/YgJwrzFKzBt9nwUXcyFVuuOkNBIHr1XVZRwX2LiU3DnPY9g746PUTzCzpkIAllM5587haaGGg7KPn7+eP+Nl5m0fOXBrzNpqakshX9gMJcd9u3ajPbWZiy+7U5MnTUPpUV50Lq5c8Zg96cfMxkaSRAoU3P/Y0+hpPA840AukxqNG+Ysvh1pGdOxY/P7qCovdr1bUpkMyWlTcNuae3HhzHEc3r+DszLU7kxQYlG0HOeaLWwbHe4hw4YiE/JaHRmaKxGEIK0Ua5MU7BDZobcjPVCGs00WNnwy24CvZaqQ7C/HhVbHeXUmO3IqzWjR2fiaK+OVOFZvhkIK+GqkyKk0oahjdNZjvP6QifsSCAgEvngExhVBUGuV/ANqGnRY/1IjgjBlSRwGB0ww6U3QeKm5DFB4tIZLDAvvz0RtYSv/8Q32QHRGEBrKOlizkLUsDoYBE0pPN7A1c8aiGPR16FFxvokJgn+YJ5MRIh1k+1xwpAZm8t4dagqVDHKFDMZBC4+Sx2tLTMng0bWTIFB6u7OtBQ111XzLFIwjo+ORkJKOmPhklBdfxK6tG67aHR8fP84C0P5RcYk4fnA3B07KQnS0tSA+MRX+QaEcVMm6eeXaBzhLsG/nJxw4w6NisWvLB+jqbMeCpavYIvnw3k/h7u6JxNRMTtV3d3dg7qLb4ePrCNaUofjZf72II/t34tjB3ciYOhNzF6/AgZytTBC+9vS/cqnkyL4d0Lp7YOnKu7kv+3O2cF8oW3Hv+m9x6WHz+6/DMmTpTAThvvVPorerkwkBkwDDIN557UX+/0/+3/M4fjCHr0nkZs6i25nMlBbm4Ynv/RvaWhqw9aO3WW+w7uFvcp+d/SQCdv70MWTNnMvZkY3vvOLSI1CWwD8whI9rqq/hzMvIRn0gnDrbWxlTZ/vlQjdU9Vjxdr4RHipgSbQSdT1WXGh1BOsrEQQvlQSp/jLozXZ0G+xYk6CElxr442kjBi12PDtbDYVMgk0lJi4/yKUSNA/YOEvwWKYKU4LkeOOCAb1GO9wUEnQN2tGuH7/v/Xj9Por7EghMFgTGFUG4HKjODEJrTbcrg6DxULkyCMvWT0XB4Wq01vbA098NMRnB/O+Wqi7MWJmIjoZe1Ba2QSqTIDk7EhaThQkDEQTSMxj1Jnj6a1F0vJbFiBOxUZCh0aqTIRBB6Ovt4hEwNUc6OxxTZ85D1ow5KC3Kx6b3/z5mV2UyGWZkL+Lg9/7rL6Ovz4EPnY/ORWl5o8kI2o8yCIV5Z3n0vHzNPfD29sGeTzeht6cLarUGMoUcuv5+JgPZC5Zz0KQ0PaXu6Xxvv/oCl0Se+92fseXDN3Hx/GkQ8Zm/ZCWODWkQnnr2l6BceVtLE2gE7uXtywTh0N7trr6QZoFIx1t/+QOTE2pEEO6gDML502hurMOUadnw9vVzZRCe++3L2LLhLb5mbEIKFi6/A6eP7WfC851//U/k555ykZK77nucyxdEfogIUXaBBIqUgdj0/uvIzz05Jq5j7fC7ZW44WG3Griozi3bVpAuw22EYGsxfiSAEukmwPFYBb7UUBjMQ6S1lYva/JwxMGmaFyrE0RsEaAyIM+a1WzjD0m+xI8pPhrkQlZFLAarOjqseGo3UWtOoEQRjreYntAoHJisCEIAhXEykufSQLRSfqmBB4+Ws5g0BkgmYnzFiRiM6WPtTktzJBII2DyWBB2RkHQQiI8OLjSIw4qDOj4Ej1sKJrAj3x1V95GEHBYaNKDEQCTh3dx6PlKdOzEROXDL1+ACUXc1FbU8mj1rHalQiCt68/HvzqU1yqKMg7B5VajSW33YnqqjIHQVj1FZAugtL/VJunAE0kgdLyGdNmI3v+Mpw5fhDtbc3Imj4HwWGReO/1l5gg/Py3L+PTj9/BhbMnkJQ6BfOXrsTRAzmcQfj2M89xgD9/9gTfOmkWKDj3jJjWSMTja0//CGdOHMbR/TtdBOFqIsV/+/Wf8Omm93iWQ1xiGhYtX4OTR/eiKD8XTz/7S/774J5tcPfwxN0PfI3vmzQZRBCob3m5J5mUtLc046O3/wbbCIHjWBhfbvtvlrjheL0F2ytMLByM95Fh0AJU94zOIPz9vBGlQyJFEiXODZdjSbQC+6rNaNXZMT9SjhB3CV48ZYTObIdSJuH/U3khM1CGKC8ZPi4xobjDCpkECHaXwkstQYSHBPMjFThab+EShLNplRJIYUe/QxssmkBAIDDJEZjwBGHWmmQY9CYWEpIWISDSmzUIpDNImRMFrbcKJSfroVTLkDQrAg1lnagvbhulQVC7KZC2MAYV5xrQVNE14R45BezLiRQpZT9n4XIkJGfwyJZ0BCQyHDnb4GqdvRJBIFHf+ieeQXFBLg7mbEVUbBLuum89j9CJIMxZdBumzpiLYwdzMNDXi5V3PYCmxlps2/gOawhmz1+KnK0fsjBxxR33wcc/EP945XkmCD/4+X+jsb6aR+xpWTOQNmUGdm3ZwATh/seehLuHNzZ/8Dq8fXyRvfA21jxQit/ZKBtx94Nf44zGS7//d844jCVS/O6P/wudbc1cYkhKzUR0fDL27tiE6ooS1kR4eXlj+6b3WLdAMyBOHTuAk0f2ujQItG9IWCTWPfwN7Nz8Ac6ePMy3QyLLqTPmIT45jcsrzpIPbZNIpVz2WbhsNWcqaKqkUw74vZka+GjAIkTKFqyKV+BwnQUHahzBmqY5/niuBgVtVhxvsPCIv1NvR3aEDIujFXgn38j/fzRTBSo7/IEyCBY7vjFFjY5BG043mlmsOCdcgQ1FRuS1WnFfigpaJbCrwgTSMjyQrsK5JgsTCGpELp6croQMErx4xjBqptCE+8KIGxYICASuCYEJSRBIPEhlAtIgeAVokTovCmo3FcxGM+pL2tBQ2sEzEdy8VDxF0svfnUeb7XU9KDvbALPRyuUFnuaY18JrHMRPD0VYvB9ObC2CUT+sQ7gmFMfxTm5uWp5ONzioZ+Hc9bSRBME5wqfj6XxU/581bymN41kXMDioQ3V5CXZv3wgiLMtW3o2ktExW8vd2d+GDN/+M1pZGLnXcec+jnDUgUSJlNWia3/ucQejl0sXqux+C1WaFbqAPRqOR1ysgPUBAUCgHYRZkws6zCSggd3W2jeoWZQHWf+v7+Mdfn0dVRfElBIEWVaLZDh/+46+sQSBScMc9j0Cj9YBBr8OJw3tx9sQh1jKEhkcy4fD1C4LNZkFJwQXkbNvI97b49jt51gJlSmh2CE2zjE9Kx2sv/RbdnR1c9lmyci2vwbDx3Ve4D05tDZVI0jKn4ysPfR2njx7A7u0fuaZGRnlK8cR0NY/2aZojzUSgNQ96hnSyVHZYGavAqnglB3XKLvzh+CCoGLA+Q4UYHykLEHsMdhitwIunHCUGyi7cl6rkrARJak40WLClzMRaA8oofH2qigWOxFRqeu14J9+Aml5HiSHOR4bvzlThcK1D9CjmNlzPN0nsKxCYmAiMe4JwTbBKwIv42Kw0nevSny5eB8Fq56mOon1xCKjVbjzdsaujjQP6ZxuJ8Gg9BMoMjHwu9Blto9kWRBA++8yUCiWvD9Dff/nFhzw8PImmoL+/54qd+f5Pf42m+lp89O4r19RhWndBrdHAbDLyFMpL++IJi9nEpOF6GhEk6q/ZbLxkHQrHehBqJkiXy+p4KAGLTcJ6gWttVCrQyAE6hPS2nz2SNAbuCsc2p6Zh5LlpCiSRh4HPQLA8hgiJAr87Noh2/bXfz7Xet9hPICAQGH8ITA6CMP5wFXf0T0YgNiEZnl4+rGUQ7fMjQJkHuUTC2YPrISyf/8riDAIBgcA/CwFBEP5ZyIvrCgQmEAIqGbjcQespiCYQEAjcGggIgnBrPGfRS4GAQEAgIBAQCFwXAoIgXBdcYmeBgEBAICAQEAjcGggIgnBrPGfRS4GAQEAgIBAQCFwXAoIgXBdcYmeBgEBAICAQEAjcGggIgnBrPGfRS4GAQEAgIBAQCFwXAoIgXBdcYmeBgEBAICAQEAjcGggIgnBrPGfRS4GAQEAgIBAQCFwXAuOKIEikEr55+2dWPOTP7bSs/s1dwY3W9ScLZb7uzb30dT3EL3tnWmVQOvRsyCmS/tyMRvjTaoN0vas9e7o/Wj45ICiEvSCcLo7Oe3Seh85xs+79y8CHXkdaKdHZrPyd+DKuJM4pEBAICASAcUUQyGGRfgQbyxxeCtSUagVC43yh6zegve7yS+9+WQ+SPB+8g9zZ8ZH8Gm7FRg6GM+YsRkRkDAfrMycOoaTwwk0JtGRjnZE1i22k62oqrgo/7bdg+Wrs2vIhmyyNJBTkLDlz7mI01FaxMdJEbXE+UiyIUMBHI2HzpHcvGtDQLxjCRH2e4r4FAuMdgXFFENLmRYGyBSWn6mExOdb217grkTA9HL0dOtQWXt6iWCaXQq6QsdeCxWx1ZSDk5MFgB2gESfuYTRb2a3A2qUwKudLh0+AYidHxw6NjsoEOivZBxflm9HXoxvuzvOz9kVcCGQORq+L1mjURIUhJy8Id9z2Gkovn2ZCILJsb6qo4ACuVKmjc3Bj3Qb0OFsvwAv7kQUDeBjS6J6Mo8jhw4T7ke0D7mExGNm1yBnR6Vho3LfsXkNvhrPlLcPzQHnZzpEYOiWSCZLXaYBjUufpEBlHkKNncUI/D+z7lczobGUStuPN+lJXk4+ThvZfgRNdUqTRQqlTcB4NhELYhYyu6F/JJkMsUkCvkGNTr2TvB2QgD6qfFYnGRJsOgftR2umfD4OAlfgtkhqXWaBkbwmFkI0MlrcJh1kRWzcSXyY45zV/Gfy+IkuP5kwaUDdk9u7CVAG4KCRRSMnFymDU5swyUfNAoJKBVEel8tH2Ih/Phajn5OEh4f3J/HPoKTsj3Xty0QEAg8PkRGFcEIWVOJGcQys40cqC/FoLg5qFCYJQ31FolrGYrOpv70dtGgcOG0Hg/MAmQS6DSKjHQNYjWuh4mHwqVDH5hXvD0c4PFZIHVYofZaEFTRacL1dA4Pz53ZV4z+juHf/Q/P+xf7BkCAkOgUKmGT2q3Q6frZxfFabMXIDo20RHYayvR3dVxTaUaNzd3BIWEISk9C4kpmdj76SZ2MOzuamfXRS9vX6RlzkBgcAhsdhtbSVNmgQIoBdX45HRERsVCqVKjraWZ7abJtIlsqSNj4hGflAY3rTt6e7pQmHcO7a1NHGDDIqKRMS0bcrmc96WywaG9nzJB8PTyRuqUGfDzD4TFbEZ9bRUqSgtgMhqpEoQlK+9GfGIqNr776qgyw1gEITg0AqmZ0+Hl7cNEp7ykgPtDRGDe4hXsBKrRaKH18GIraspC0H6UXUnJmIaQ0EgmQUQudP19OH38gIPMKBRISstionPu1BG0Nje4npFEIkVIWASmz16AyrJits52kiSyc54RKkeYu5QdGss6LMhrt2HQ7CC3ZAH9zGw120GPJAiUVUjwlSItQMaujB16G840WdCicxDgKC8ZZobK4KGUwGCxo6TDhuJOK/87wE2K7HA5/DUSWGx21PfZkdtiQZ9RZCi+2G+rOJtAYOIgMK4IQniSP9f6m6u6XCWGsTIIsZnB8A31RFdLPzy8NZDIJKg834T+rkFkLY2Dxl2F1ppukKNjQIQXynMbuVRB/45KC8JAzyATAyIDdMyF/ZWup+cb7AFPfzc+fnBgeNQ43h4vWS/7B5IFsqPRiLeqvBjnTx/jgJs5fQ4HewpelWVFnIInonC1RkFtwbLV8Pb1g7ePH+pqKmGzWHDu9BGUFeVj9vxlyJoxF2XFeezMGBufwrbHhfnn2MZ43pKVHBBpJD9lxlycOrofB3dvha9fIJatuhtyhRKd7S1ISMlAXVU5H0sj90e/+X12iCwtykNIWBT8AoOQs/UjJggLl61GxrTZyM89xdeMio7Hvl2bmfxQIyJElsv7czajMI8CriMbNBZBWLPuYb5WTWUp2ztTMKX7aWmqxzf/5Wdwd/dA/vlTcNN6gEyg9u74hEnClOlzMHfRbVy6IFvq6dnzUV9TiXde+yNfV61xQ/aCZUwiqPRB53fZPUtlSEzNwPJV63Dh3AkcO5gD+5C24+4kJeZGyNmOmcgCWS1/XGzigH01ghCkleKuRAVUcgnadDZMDZEjr8WCT0pMMNmAb2SpEOsjx9kmM5cpTBZgT5UZLTob1iYqsTxWgQM1FihkQKCbBPuqzSjquD6L8PH23RD3IxAQCNw4AuOKIKjcFPzjbDaYXWnRsQiCX6gn5EoZ9L0GeAW6IzjGl0sR7fU9TBAoW1B4vBZyuRQZi2PR0zqAqrxmJgekL6g41wh9nwFZy+JA8WQkQaDzUunCZKDSxM0R5t3Io4yNT4abuztYUQnwSLy7sx3NjXWuQBUWEYW4pDQe0VaXFWP7pneveikaTUdExfExMfHJOLJvB4+aKeiTCJCCcWBwGBrqq+Hu7onb77wXRfm52LfzExYMhkXEYNfWD9Hd0Y7shctZ43n8YA5nDRKS0mCxWLlkQQHUx88f773+Mgb6e/GzX/0Rh/Zux4lDe5CeNZNH8Ad2b2OC8PXv/Bi6gf6h83hg8e13oqKkgEkCNSoR3PvIE7BYLdj07t9dJY+xCEJaxjSoNFq0tTYiLjGVswn7dnyCsuJ8Jgi93Z2claCsyf2PfRvlxRdxYPdWLFt5N0LCIrFzywfo6e7CE9/7GffBSRCodOHrH8iukkQ2CL+RTaPVIjQsCt2dHejqbHNt+o9FbijvtOLdAiPclcD8SAUa+2y42OYI1lfKIFBmIMlPBrPVziP/VfFKeKqBP502csngh7PUUCuk2FxqhN5shwQStOpsXMJYn6HCtBA53sozottgg0Iq4b87B0UG4Ua+k+IYgcBkQGBcEYTLAToWQYidEgIvfzcYB81QqBVQuylRfbEFbbXdTBB0vYOoyG2GVC5B2txo6PuNqMhtRExGMLTeas42UHYgdW4UlGr5KIIwUR5wVGwCp8CdBIFGzj3dHWhtbuQuUKCiQDY9eyEysmaiMD8XWza8OWb3qEY+I3sRsmbOxfuvv4y+vm7X+Uj0l5I+DYMGPYsXQ8MiUZB3lmcRLF9zD7y9fbDn001cQlCp1JDJ5dDrBuDrF4D5S1dzOt9oNLgyH2+/8gKXIJ773Z+x5cM3cfH8aSSmZGD+kpU4NqRBeOrZX3JQ62hrhkQmg4eHF2czSHPgbDPnLcaCpavx1l//F53tDs3K1QiCVCLBbXfcy/joh8oGVDrYvW0jl0yIINRVl2P39o1w9/DCPQ9/A431Ndi7YxNuW3MP98PZz/VPfJ8zBE6CMCbAV9jhd8vccLDajF1VZi65qWSkRRjWBFyJIARrpVgZr4CXSgK9GYjwknK54H9PGJgQTA2W47ZYBWcITFY78lqtnKUgMkFZirWJCmiUPG0H1T02ziY0D4xfYnyj+IrjBAICgWtDYEITBI2HEtl3pqL8XAN62nTw8NUgJNYPDWUdwwShZ5BFhkwQ5kRDP+AgCJEpgfAN9UDFuSYM9A5i+u0JsJptE5Ig3HHPowgOCXfyAxbMlRbm4cThPQgMDsW02fMRE5vEo9yLuSdRX1/Do+Kx2pUIAs0KeOhrT6OypBD5F85ArdbgttXrUEOBlAjCqq+A9qE0fU93J2ITUljMWFqYj8zp2Zg1bzGOH9yN9tZmrsFTGeS9N15mgvDz37yMTze9gwtnTyApdQrmL12JowdyOIPw5DPPobGumuv51Cho6nX96O/tcXWFRutf/86/4vzp45yJGIsghIRH4qtPPsvlj5qqchDZypyWjcN7P3URhNrqcuy5DEFYunItwiNjseOT9zkD8PSzv+T+fl6C8Jslbjheb8H2ChNIrJjsJ+OAX9E9OoPw9/NGlA6JFEmUSGWJRVEK7Kwwc2ZgcZQC4Z4SvHjKyFkC2sffTQpPFZAVJOdsw8ZiE5cRaBarv0YKdxUQ6SnFshgFk4cdFcPCU9I1SGFH3/itto31SovtAgGBwHUgMCEIQuKMcAzqTGip7HJ1baDXALWbAvPvSUfB0Rq01/UgJM4XYQn+qMwbkUG4AkEgcpAwLZRnLVitdnj6atDXoZ+QBIFGvDRCdzU7WBVPKW1K0VPa/NzJw1wfHxjoh812bXXlKxEEP/8grP/WMxxAD+zajJj4FNx173pcyD3JBGHOwuWYNmsBjh/KwUB/H1bf/RDX6bd89A9MmzUf2QuXIWfrBh7h0+wCmoHwj1eeZ4Lwg3/7HVqa6zlAp2XNQGrGdOzc8iEThPvWfwvePv7Y9N7f4ePrhwXLVqHgwlmeeulslC256/7HuATy4u+e49EwZRBWrX2QhZDF+bmufevrqxAUFIZvfu+n2LH5fZRcvICZc5cgY+osLo84MwhXIghUiiAypNMPwG61IigsAvXVFS6CQDMcKGuTlDaFSy+Ev7NR1iUqNhFEMihbcubYAddSG/8yU4MArQSv5hoQ7iHFmkQF9tdYsL/aEay91RL8eK4GpR1WHKu3cJagXWdHdoQMS6KVeCffwKWB9ZkqeKgk+MNxA5cYnp6uQZvOiuP1Zi4nZIcrsKHIyJmEh9NVLF7cWmpEkLsU96epcK7Jgo9LHGyABJDfm6WCFMD/nDSI9Reu40dW7CoQmKgITAiCQOl/0hqMXBTm1LZi9HXrkTQ7EpGJ/hzkKTtg0puvmEFInRPF5QTKIFDq1tNfC78wT5gGLfANducZDyM1CBP1oY68b5VSxZkFk8l0TbMXRh47kiC89/pLHMCpURBefPtdnP6nqYr9/T2sJ6ipKOVUvKe3D5at+gqXM2gmAmUK3v37H9HZ0cazEkhIGBmTAJPRwCNus8mE99+g8/cic+psrL3/cZ7uSuUJvV6Pw3u3c0aEyhP3rf82QiOiWNBXVnwROz55j88xspFm4qtPPYu3//YCKsoKERQchrsf/DoiomNdQkDa/6Xf/zvaWptw3/onkT5lJswWM/p6uzCo07lmTlCJYSRBWPfQ17nEQAFfIpWyODM+OQ19Pd1ISs1k3YMzg0DTMUlASjNJPnrnFSY5LpGiTMZiznUPf4MFnESsnIs4hWoleGqWGjHeMlisdpxssLAeoX9o5E5Kk+UxCqxNVjJZoNkNvzkyCJrk8FimCin+MuhMdrTpaeYD8MfTjhLDgkg5Hs1U8TRImsJ4qMaMrWUmdBvsPPPhyelq+GocUyvLOmx4K9+A+j5HiSHBV4anZ6hwoNqCbeWmW3ndsMnwsyD6IBC4JgTGPUG4ll7I5BJIZFLH2gnXoakiQiCVSUB16MylcRjsM6LwWM21XFLsQyp9tYYFijQjwnqZrAQJJ2VSOQv3Ri5cRGscaLXuXAoZHNRdQlyUCgVUag36+/suizPNKgCkGBi48sJZ3/nRf6ClqQEfv/famM+KCA9N66SplURSaNrmtTZa44D6Q8d+4zs/YfJAgkZnIwJF61DQlEnnLIWRWQSFUsVTNmnmyWcbCRStNgmvV3CtjVZa1MgBOsRoufTrQNu1CvD6CPTns43KD6TH1Q1XFniX22KUuC1Ojv85Noh2IVy81sch9hMITGgEJgVBuNEnEJ0ehOBoH8hItQU7Co/Voadt4EZPJ44bRwhExyXydMmL5898qXdFszeSUrNApIY0EVs2/ANV5UVf6jX/GSenqZdyKfBpufm6CMs/417FNQUCAoEvBoFbmiC4eal41gOvHNc7COPgpaO4LwZmcZbJigDNfvD09GZy0NHewtNLJ2Oj1Rep9DBiodHJ2E3RJ4GAQGAEArc0QRBvgkBAICAQEAgIBAQCl0dAEATxZggEBAICAYGAQEAgcAkCgiCIl0IgIBAQCAgEBAICAUEQxDsgEBAICAQEAgIBgcDYCIgMwtgYiT0EAgIBgYBAQCBwyyEgCMIt98hFhwUCAgGBgEBAIDA2AoIgjI2R2EMgIBAQCAgEBAK3HALjiiDIaCUWAFbL8Ep2tCQyrXhIK/HZrNe+oty1PsnLXfNaj70V9qNVBuUKBeQyOa2xzMsi03LCN6PRUs8yuQJWC600eGX/CPI1oKWfg0LCkLPtI3R1DFsn033SdrlCCZvVetPu/UbxoTW7yGqZllOmt51WURy5xPiNnlccJxAQCAgErheBcUUQIlMDeQ3+hpJ2F0lQahQIi/eDrs+Attph177r7eiV9o9KC+JNDaXD1/yizj0ZzuPh6Y3Z85chJDSC/SvOnjzMJkZO34Avs48RUXHImDYbBRfOsOXy1VralBlYtHwNe0FUlhWNWr6ZnCVnz1/KZkmFeWe/zFv+3OeeHSbHtGAZNHIJlHIJXjoziAHhnvi5cRUnEAgIBK4fgXFFENLmRTFBKDlV7/BVAKBxVyJhejh6O3SoLWy9bA9pqWSFQsqGTXTcyHX/5UoZFEoZLGb6HLDb7KMyFOnzo3hkXHKynveZbM3Lx49H/2RodLn1/q/WXxp5p6RPxZp1j3KQJkOm6opiNDXUMsYqlRpadw8mC7qBfvYbcDYyaXLTaiGVyqDXDcBoNLi2UWZA4+YO8jEwGgYxOKh3+RRQxsLhTqlAeGQMZs5djOOH9rDRETWlSgWt1oMzCjpdP6wWx+qXXj6+bALV1tyEQ3u2w2DQu65Hbo7kGlmOzHueAAAgAElEQVRWko+Th/de0mW6plrjxv4PZnbB1I9yvHTTuvN2o4FcDO2MI923s2ndPdnAipwrP+t+QOckV8dB/QB7TzgbZQg0CsmQcZKdzZUoQRbvI0O0txTB7lKsiFPgezl6dA+O9oYg22ZyXpRKgT6jnY2XnI2ScFqFhG2iDRbyVLDzCojUiODRNvJqoBURB0x2jEjWTbZXX/RHICAQ+JwIjCuCkDInkp0Hy880uoL1WATBzVOF4BhfqDRyPqazqZ/9FKgcQceGxPlB5aaAadDMn/V369HRMGwClDonklO5ZWcbYZ2gBCE4NIKDtbNRECODpK7OdnYSjEtIQXVFCWqqythieSSButL7Q0EvNDwKiakZiE9Kx4GcrUwCOttb2GWRRuWZU7PhHxjI56PReUHeWSYDRBrI4jgiKpaDY0d7G3JPHeHj6P/ktpiQnA6Nmxv6entw8cJptDTWM9Egl8cp07NBJIJIho9/IAd8IgjePn7InD6bLZ8pSDfUVaOk4DwHbgq4VGZITMlgsyRyjnS2sQhCSFgU0qfOZGJi0OlQXnKRHRzNZjP8A4MxPXsRyCCK+k/lFbKupiwKNY2bFnMX3gY3rQdbRI8iSUolOzaSrfPpYwfQ3FTP9tPUIj2loGwBuzFagPxWC0o6ra5gn+grwy8Wai4hCJ4qCaYGyxDrLWMS0Dxgw6FaC3qNdqjlEnZlpD+0NDIZLp1tsqCi28okIc5HhuwwOdyGzJpKOqy42G5lN0jRBAICAYHAZxEYVwQhLMGPg3VLVTdsZCl3DRmElLlR8PBWc/lB662GTClDdV4z+rsGEZMZjKBoHzSVd0KukiEszg9NFZ2ozGt24RCW6M9ZhZbq4WtOtNeErJUpkDG7Ig2H1YKqsiLknj4KIg/pWTMRFhENk9GIqooSVJRcHBVAL9ffqJh4LFi6Gl6+fhyYiQDQec+dOoqyojzMWbgcaVmzUJR/lh0dk9OzsG/nZlw8f5ptnucsup0DqUGvw4x5i3Hu5BG2SPb1D8SylXfzJclqOTVjGmckSDtgGNTjsSd/CJVajeL8XM4gBIaGI2frR0wQltx+F5LTp3K/KGCTzTIRF7J95qAbHc9W0Yf2bsfFC2dcWYmxCMIDjz8FL28ftpQmbwUiJ/t2bUFLUz1W3f0gElMyceb4AXh5+yE9awaXWei61MgQivbx9PTFP179P8bY2Sh7QKWN5LSp2L39I9RWlbnI2VPT1fBzk+B8i4UDN2UFNhabUNvreO+vRBCmBMqwLEaBxgE7DBY7VsUrsKnYhN1VZoR7SPFQuopJRlmXFdFeUrZr3l1l4ozBt6aqEe4pxfEGC/yHbJ33VZvRort298qJ9t0Q9ysQEAjcOALjiiAo1XLuidlocQmzxsogLHpgCqrzm1BX3A6fIHdEZwSjqbwDrbU9yCILZ50JZacbIFdKMWVJHLqb+0cRBOc1TZfzxr1xXG/qkRHRcTySdTayFabReltLE39EgYoEfHGJqciYOgu1VRXYsuHNq94jBT7KICSkZCAukQLxFgzqdWhva0FvdycH76CQCA7ylDEgkkKj+b07NmHJirUIDY9EztYNnMWYkb2IS0enju7n+4yNS+Z898BAH2bNWwIfX3+89/pLnPX42a/+iIO7t+LkkX0gXcG8xStwcCiD8I3v/oTT+KeO7INGq8XCZWtQUVrIxIMaZSfWPfwNPvfGt19xCRLHIgg//a8XOEtB95eUOgVzF6/AsQO7OEvwxL/8FK3Njdi68W34+Abgwce/jZKiPBdBkEilCA4JZ0vnpvqaUdkZKjsQuXL39EJ7azMTIGf700otNpeYsL/GzEE7wVeGog4rWgauThACtVJEeUq5PGC22fG1LDWaB6x46YwRUV5SrM9QoVVnx9F6M9s9m6x2NA3YmHj/YJYa7ioptpSauDRhJYMpvR16kUG4qd9XcTGBwERBYFwRhMuBNhZBWLZ+KgoOVzMh8PR3Q0xGMP+7paoL025LQE/7AKrzWiCVS0F6g4GuwVEEYaI8qKvdZ2x8MjRad1cGgQhCd1c7mhvr+DAKVGFD9fzU9KnIP38a2za+PWbXaSRNwT1r5ly8//rL6Ovr5mOkEglnCFLSp0Gv74czSNKoffe2j7B8zT08It/76SZXWYECKAVI/4AgLgWQ+JF0An4BQVxaePuVF9Df14PnfvdnbPnwTc5EULlg/pKVODakQXjq2V9CJpWho72VZyYQSSgrzMeR/TtcfZmevZDP/9Zf/4COthb+fCyC8NxvX2bCRNbQsQkpWLj8Dpw+th9F+efw7R/8AqVF+UyQiDTd+8gTXKpxZhDGBPEKO/xtjRav5hpxttkCqYRmLoD1AM6JOpfLIFB+iMoLi6MVoASb0Qok+clQ22vBC6eMrGeYEybHzKEyAgX+gzUWvgadOyNQjpVxCmiV4OMpe3GkzlGeEE0gIBAQCHwWgQlPEJY+koWiE3VMCLz8tYjOCOJyQWtNNzIXx8BqtvF2mUKK6bcloKO+d9IRBEqrUxAkIkCN6uQlBRdw7GAOgkLDMWvuYkTHJvEoNvfUYTQ11g0J6q7+hbgSQfALCMSDX/0Oii/mIu/cKWg0bli19n7U1lQ6CMKqr7BGYc+nH7M40qE30KIoP5fJxozsBTi051POPtC9RUTH4/03XmaC8PPfvIxPN72LC2ePs46BCMLRAzlcYnjymed4NsPp4wf5xkn7QKSDdA/ORjqCb373p8jPPYX9OVuuiSD826//hE83vYe8cycQn5TGmYmTR/ai6GIuvv6dH6O/pwcfvfsKZzrWP/F9Ll98XoLwl9VavHXBhJNNZvhpJKwpoPJCm350BuH7OXp0DYkUSZj4ULqS9QT7aywsbHwsUwWzzcYEgZ6+Si4B6RQ8lGAy4K2W4oVTBhYrkoDRSyWBu1KC6SEyJgwfF5tQ0D6scqT9LTabmDkhYoVAQCCACUEQEmeEw6A3oaWyy/XIBnoMsFptmLEqicWFleeb4BfqAb9wL1Seb0Z3Sz/CEv2QMC0MPW06KDRyqDUK1iOM1CBMhneASgg0oh7ZiCTQmgULlq5iUSCp9+vrqmAYHITdfm015ysSBP8grP/WMygrzsO+HZ8gLjEdd977KM6fPc4EIXvBcsycswjHD+3mssEd6x7lwP7Jh29i2qz5yF64jPfrbG/DyrsegJePD9762/NMEJ752W/R3t7MKX/STtAsih2bP2CCcM8jT7DW4uN3XoWvfwBrEvJyT3I5wtmIJN1xz6OsT3j+1z9jUSCRp1VrH0RHWzOXQZytrqYCJpMJT//oPzHQ281EJCktExFR8cgZ0gwsWLYai2+7Ew11lSxEpJkZZ08MaxDoszvueYSzC//42/+xsNHZaMbF7HnLkJIxFTnbNqC2aniq5n8uckO3wYZtZSbMDJEjwU+GDUUmlHY6gnWgVoLnb3fHxiIjCtqsXAagIP9whpIzOB8WGnkWxE/malDe5cggRHvLcHeiEgXtFpR3WrAmQYUQDwn++7iDIDwzS4M2nQ2Ha02YGizH7HAFNhQZkdfquKabXIL/W6FBbpMVr5wf1lJMhu+I6INAQCBw/QhMCIKQMicK/mGeo3p3cmsx+rr0LEzMXBQLd283GPVGVOU3MwmwDc3touO8gz2g6zUgMMKLxYtVI0SK1w/ZxDpCIVfAZrdddaGhK/WICML02Qt5VsEHb/4F/f3D61DQmgOUiqcg2NfTja6udtRWlrEGgWruS1euRdb0uVAqlWhurMe7f/8jZxP8A4KZTMQkpMJkNKCrs5WFfR++9Rf09/UiNXM61j34NcjkcnR3dUCnG8CRfTtZGOnl7Yv7H/s2ixFtNiuKLp7Hzs3v8/TLkS0qJgFf/+6P8e5rf0JZcT4Cg8Nw9/2PIyImftR+L/33L9Da0ojo2ASse/ibrDGgMsqhPduQe/oYLEPBnnQbpPPo7mxnkWRNZakrg0CllAcef5pLJc//+qejdAaUWVm84i4mRR+/9xqLIJ0zSJJ8pXhyhpqnM/YM2rG5xIiDdZZRUxYfTFPitlglT0skkvDaeSMivKR4ME2BUA8Zegw2FiHqTMCfzhh46uPqeAVuj1fwOgr9RuC9i0YcazBzSWFuhJwzDh4qCU+B3F9lxrZyk6vEMCtUjn+ZpcaLpwxclhBNICAQuLURGPcE4Zoej3O1RSutOje6nkoLLXGNV6VA6vwoNFd2oq5o9Ep713QNsdMlCKhUGhYo9nR3XHbhJFo/gLQHuv6+Uc+FiIebmzuvYTBo0F/yzBQKBU/bHBjovyzqWq07JBIpixyv1J78/nNoa23EJx+8cU1PjjIwjnUQLl0p0sPLG1KJFD5+/rjjnvXIPXkYxw/vGc4UKFUsAqQ1FD7b5HIFrwVhtphcsyqc+9B76ViTQMJiwmttcomd9QZ6i0O38NlGUxxpCiRNn/zsdpkEPM2RZjqQhmFk+0aWGkn+Uvxsn96lhbjWexL7CQQEApMPgclBEK7yXDIXxkDtroRMLsPggBHl5xo5myDa5EYgMjoO7h5erCP4vO2rT/0IRHZowSmaxbFv12a0NTd83tOOu+OfnqFCSYeNZ1aIJhAQCAgEJj1BoJkN5Ldgs9h5uWbnCo3i0QsErhWBmLgkyGRymC1mXijKsWLi5GuUzaDMwnUkMyYfCKJHAgGBgAuBSU8QxLMWCAgEBAICAYGAQOD6ERAE4foxE0cIBAQCAgGBgEBg0iMgmTJliksdRf+gRXZEEwgIBAQCAgGBgEDg1kZAMm3atGuXTw9hFewJzE8AUkIAjRLoGJDgbLUdR8o/62V3a4Mrei8QEAgIBAQCAoGJisB1EQRaqS0+EHhikQTJwXYmBzRVi0wQdUbgaLnk/7P3HeBRXmfWZ3pRmdGo994lJIREFUUC0bENxjG4JXEce5NN3fJv4uzuv9nNZrO7f3riXSdx78am9yoBAiEkARJCvfc6ozLSNGn+531HIwSmCYMt7O8+T54YzVfuPd838577vufeg98ftcM2bcrxoMIn9FtAQEDgRgjMnz8fCxcuxKlTp3D+/HkBJAEBAYEHEIFpEQRPF+CvskTIirMzMbi+EVH4U54IHxcLDOEBfBeELgsI3DMEsrOzkZOTg4MHDyIvL++eXVe4kICAgMBnh8C0CEK4N/DrLYC78uYdrOgA/vrtz24Awp0EBAgBWoZI2yyTJfX1m2UJCH32CAgE4bPHXLijgMC9RmBaBIHKCy89TaYvN0gfTPSssc+OZ1+9+ee3GgAZKlEbo+3fJpIQZBMspb9PGBGNj43zngYzOQhQoBJLRI5x3KBNjtM68wWhNBa5QgmZTM4B2GwaheUGOwbe6xeTg75UyhbON9rdcOr9aBfE+Utz4OMXhLzDu3lL5KmNyAOZRVH/6b0hnwqz2TSjBbm0AyXtwkjbUd/vpqSdF6Vgsyf62g1bwIZQn6YJBOHToCecKyAwMxCYFkEI9QT+6zHA2+3GnafflJJG4O+33d3g/KI9+Ee8q96A8YngqnCRITjZCyI4Aq7VbIO+fRhGvRn2T/srdnfdvO1ZSjc5dIGuaK+8ai419ST/GA/+Ie6uM2B8hu9K46bxwJz5S9lrgPpcVnwWdVWXb7i18m2BmeYBAcFhiJ+VjsrLJWhrqr/l2dHxszB/6UqcPrYfjbWV1xhSkRfD0lUPMzkgskEGUhWlxehsa/pMxjHNYfPhvoHBiI5L5vHc75bmCyR7AUQUFFLglTLA+Ck3UxQIwv1+asL1BQTuPwLTIgiersBfZwHL4m7cMTKEIQ3CtqK7m35EzPHjaUzTpW62aaam1ioQleEPQ5cRpmErNL5qTiY0XuiGhTab55mmGFKFhAnEmGWMDPwmm0QuhkwugdU85phBjtv5ODqH7kVEhI6XyCQQiQHbxAb1dA+JXAKJRAybdeyarAZdXEqfycWwj9l5d0YK9JztkEvg4e+CsNm+uHjAEdTos6k7OEam+3GwbbzYPUmE7tej1uq8eCaq7+9h74PpNJqZR8WnIHvNRly5dJ7NlChQ93S1cbAl7wIXV3eeiQ8PD3DwdTbKOKhd3UC+C+TFQDN2Z2MvBhc3yORydpccHTVOzubpGbm6ayGVSuEbEIxZcxag+GwekxJq5NGgdnXnUsLI8CBsE2Mig6icDV+Bob8XZ04c5EyHs5HR0sqHtqChpoKNnSJiEpgY7PvoTYyOGPm9UKrU/D8yjqK/kRmUs9EYaayjI8Psmkk4mkyjfLwzq0LXo+2YySPCOOERQeNUqV0hlcnYxIn65Mx80Xk0DhoPZTTIstpmtfCxdJ24pDQsWr4Wr/3u5/yuUCaB+uVstI00XYMcMK9v1C/KvPA1bVcjPWUIyIfB6cVAmQLip6HuQICrCD5qO1aE2vGT08Cg+dosoFwMtpAm09BB87U+DvRVcpMBsgn/ByIXy7IcGoRDBw+i5GwelOQ5MQYMW8l7YjpvoXCsgICAwOeFwLQIAv0ALIgEvpUF+F5rrsj9v9wK/OteoPfGHju3HWPYbB8+puVy7zUEITzVB61X+jDQPQKtvwuCE71QW9iB0UELaLbuFeIOSttT6WGwdwRDPSMclJWuMniFaSGTi2ExWfkHlTIPlIHQ+rlAppTyf1Pw9gxxh0whQWeNnssDrjoVNH5qDgj0eX/bEExDFiYTLh7Kq/ccs2O4fxSGDiOkcjG8Qt3hqlNC4+uC7voBJiRDfSb0tVzdnjcizRfjdjuay3rvCUHwCwwBGSc5G9k50yy5v7cbyWnz2TmxtbkezfXV6OvuuKPyDAVFmsGHRcUhNDIGBXlHYBoxorenEwP6Pnh4+iBx9lxoPTw5L93R1oQrl4owYhxi0hCTkAK/wFAmAQP9vbhYlM/nUeAKi45HeFQ8FEoljMYhVFwqQmdbMwftkPAYJKZm8LOSyuUgo6SC3MNMEDQenjweCo4UwLvaW9i+2UkG5i9Ziai4JOz7+K1rygxEEBav2IDTx/czBgkpGchcvgbvv/J7JgxEROhvFKwpEDfUVqKloYaDq7dvAFIyMh19HRpgUtne0ojq8kvs7KhQuaCq/AJjM2fBUi7FFJw8AplcgdCIGIRFxkEqk3KwJnxoq2YiCcHh0ZwdUSgU7BrZ0lSH2ooyuGu1mJW2AD7+QQgICWdsxsbG0NxQzedTo3LJ3MUr+P+P7tl2DQmg+8YnpyEoLBLFZ3LR1dE2UThwEIEMXztc5SKYx+y43CtCld6xvTK1CA3ww/RPEgSNApjtDQS7A1Tt6xm142SrCANmh9lUoicQqwOIKBC/Lu4EQudkY0VODiryD8JSk8fmUZQUrNYDl3sdRlJCExAQEJjZCEyLINBQPNTA0wuAR9I+ObD/sw0oarz7AVNwpQCsbxuaTL1TBoECamedAUa9CbogN3gEuKK2oAOmYQuIVCjUMvS1DEGlUUCukqCjSo+RATMC4z2h9XdFd72Bg7dPhBa9zYNou9IHSvPT8fTfZqMVoak+TCiqTreByhpBiZ5MUob7TXwNIged1f2wWccRluYDF60K3Q0GyJUSiCVivi4d7+algru3Gj7hGjRc6OLgOTpkwVDv1RmtdxgFODv6W4fuSZkkc/k66Lx9J4EfHxtDU10VykoK4Onth6j4ZASGhIOiWysHolImD7dqFJzmLc6Bu8YD7h4eaG9uBF2XrllfXY45C5YhKi4ZV0qL4OrqjrhZc3jmXlFahPhZc5A2bwmaG2p41p2+MItT+qQP8PD0xsKsNRwUKRNBx/Z1dyH34A6elX/la3/NmZjKsgvcZyI/eYd2M0HIXL4WYZHxuHj+FNQu7ohOmMXBuK6yjIfiHxSK1Y9sxbnTx/h+zk2/iCBkrd6IC4Wn0dPZhoTUuQiPjsMHr/0Bw4MDWL/5Gc4GVJVfhH9gKBQqNc7mHUJvVzuWr9uMkIhoDrbuGi2S0uajtLgAZ04cwOLl6+Cm1eHU0b0YGtDj4ce/DrlShW1vvAQvX38sXr6efRu62psRm5TGBk9ncg+y6+NDW74Od40nykrOso21RCpHaVE+bDYLgsOiERoRi7hZs3F833YmTr3dHWhrdmSkyEFz2epHGIMd7/zpGoJAepHUjEWIiEnEqaN70NZMX0g7Z92eTbJDLQUu9ogQqbFzcN9TL0LrBKG/GUFI8gIWBgDNQ4DZBqyJsONgvQjHW4BAV+CRKEdJosYAhLkDnUZAGpON7BU5sFccQk95Lgo6AE+lQ+dwpp1Ixt3/TghnCggICHw2CEybIJA+MdADiPT+ZAfzax1pxLttlJ6nRil9p0iRCELswkBYKY1vG+eZZV/rEHoaBzggp62LQE/zIPTtRqg1CngEOgiBvm0YMQsCYTJa0FLWC4lMhKj5ARyob0cQKEMQnuaDnqZBzjjQNdXucjSUdMEyYkPkXD+o3BRoq+iFecQGEk5aTWOTWQ/SH0TNC0Dh9uobQjE5TufU7W4BmziPZpuUAnc2yiAYBwe5rECNZpU6Lx8Eh0Vxyp5q7/u3v3PLu6pcXOHt44/I2CQOpqeO7uMUt0HfxzNpmlnTfQcMfWzdvGDZKtRWXsbpY/uwKGsNvP0CkHdoFwyGfiSmpHPqncgF9TMwOJxT6WbTCJLTFsDdwxO73nuFU/Pf+fF/IP/Yflw8fxrRCSlIX5SFc3lHmCBs/cb3YBwawqWi0zxzz1iYhab6Gpw+tpfHQtdcs/FJFjfu/fCNycBJBOGhx5/lWbzVauGyR/mlIlwqPM3//vY//AyVpSV8DyIZEbFJOEfEo+oynnjuB+jsaMHxfR/DXavDQ49/HfXVV25LEIhUZK95FOUXC5kYJKSkw8PTFzve/RPjuPmZbzFuBaeOYnjIAKvZjAFD/6QokTIly9dvxm/+9e8+8ZzoO6Dz8uXsFhGHqYJdLtG4abi0QTbcTpEjfW9/lgnsrXMEaD8XIMTNjvoBEZzc9WYEQad0EAGzTYRx2PFYLNBltOPVyyIEuwGbY+zoGxWhsNNBFExjQMoCR4lBVn0I7aW5ONwIGKg0MQ4YTJ+0mv6UXwHhdAEBAYH7gMC0CQL1ITY2DgsWLvpEd15/7ZV73kUiCJFzfNHbPASluxxKFxmaLvVwhoDa3I0xGOo3wTxi5R9MiOzoqTdwOSIuM4hLDh1V/TzLD0/35bLE7QgClQhiFgbBaDCxdoGsoqnuTETDarJB7aFEYKwH5CoZIAYGOkc4m0DkgdrtCMK9Bik0Mpbr1s5GM06qxVMKnhoFDSoX0Kw+PDoeZRcKceLA9tt2g5T0KekLkZiSgZ3vv8Kzbef15i3JQXR8CozDA4w7BSxK9588vBuLV6yHm7vWMbMeNHDgFovEvPqBxI6ZK9azBsE8aoRG58Up9I/f+l/WKnzvH/8Lh3a+j6rLJVwaycjM5tk7BetnvvX3vJyRAh8RDrlCwX8/f/r45FiSUuchc8VansX39XTx34kgZK99lFP0hANhdWTPNvR2d/Ls+m/+5Vfo6WjD8PAg6zWoFZ46iqb6ajz9wt+itrIcZ/MOwsXNHWsffZp1GLfLIFBpZv1jX+WSDmVGiBhZTCbs3/426xHoc8qs0DUpwDfUXMGlwnwueVC7FUG47YO7wQFEEH6xBHirHCjrdWxwJhE5NAhOre/NCAJV/hYHknbAziWECK0ITYN2/LlUxNqCNB9gji/grnB8frJFBG2SI4NQeeYglE150CrtTPpLe0TIbwMGrspV7mY4wjkCAgICnwECd0UQqG6qVqs/0T293vHjdi8bEQSnBkEkEXHZoL2iD4ZOI5cj5jwUheayHtYAcLM7RIikQYhdFMhlibaKPiYINPM3GsxMEGjFhIuHo8RA4sewNF8uF1SfaWeNAZUu6DzKIDgua78qgBRNiBSlYhZNkn6BtAuUtaD2WROEVY9sBSn1nY2Ee1RGOJ9/nGf5afOXIDg0Eh1tLbhYeAo9XR08e79duxlBoGzEw1u+wcJFCroKlQor1m1Ge2sTE4RFy9exXuD00T0YNDhEgTSjrbp8AUmz57F2If/YPtYzEGkJCovCrvdfYYLw3Rf/E8f2bePrRsYmIiNzORMAIgJPPf83aK6vQUnhyYlnDU7XTxVAUl3+iW98H1Xll3D6+L5JgkAahPzjB+Di5gbSKpw4uBONdZVchvjOj37OqwVqqxylCtKNkK6BNAhPPv9DNNZWI//4Pp6Zr3/sGTQ31DJBWJS9lksmJ4/QOPux6anneTnu9rdeZv0BEaWzeYfR1eEgakTcRo3D/C4RtiyMVKoQk5iK2IRUzr7UVZfzsfeDIPx8sR0fVopQ0u1I95MmgcoG12cQ/vE0MDAhUnSVAY/GACYbcLIVIA78ZLyDLBBBoEa6BOLKLlJgZRjgqQKqdNnIzMrB4UMHUXQmj8sZRDRmeQN76oCpC3w0cjsTlWHr3S2Pvt17LHwuICAgcHcI3BVB0Gi0WJqVhYSERIhFIthIEb5nN8ovO35g72WbShBID0Cpf1J1N5f2cFo/NjMIY7YxtJT2sDBQF+SOjup+DHQZETrbF66eStSf64TSVYrwOX68hJJIAWkZ/KO16Kw3wDxsRfQ8f3Q3DKCtop+Fj6RJGOodQV/zIPxjPCFVSNF0sYszCLELA2A22dBVo4ebjxreoVq+J2kKqJEGIX5pMGrPtfO1SSBpGf0UtZfbACoWS5zbREweSUGIAtL8JTkIDInEudNH0dnaNKH6v7NVJjcjCLQyYvPTf4X62gqcProP4VFxWLH+MZRdOMcEYfa8JUiduwglBXlcEli54TE0N9biwI53QTP8OQuXIu/wHgz092DZqkd41cK2N19igvDs915kMePZ3MOIS05jknB8/3YmCGs2PQkvnwAc2P4WNB5eWJKznu9ZlH/iGoSy1z2K6NhkvPyrn3KGYKpIkTQIlAWg1QpHdn8Ak2mEScDw4CAHfRI5UpbFIWis4dIE6Qn2f/QWvP0DsSRnAy6cO8XH0hhnz12M82dOYGR4CNJA/z0AACAASURBVOse+xpKzuYi//h+LlWQfqG+qhx1VeWYt2QFCzb3ffQWZxCe+OYPWAdCy0ZJyEgkgTIutRN6Cvo3lTNIhKjv78aAvp+zQtQoA7J64xOsQXjvL7/hFR3ORiLQjEXZrM84uncbWieWh5IG4e/S7RiyAIcaRTzjD9cA22uAuomFEF5KO366SIQDjUBlHzBidZQMHo2x83dud50Iagnw/Tl2FjcSQaBrrAsHLvc5rrMizA5vpQhXPLKxODsH1vJDKC3MRX6bHcneIqR6A7tqgYqJFcBELP5zMXChG3jNsVBFaAICAgIzBIG7IgifZd/V7greB4EC8GDPKDyD3Xj2T3qAEYMZCpUUEfP8QceRJqGzVo+ehgHOIihd5YhI92VtgmXECrNpDMN9Dg0CrXqg6/iEaSCWijDYPYLawk6ePZJITuurRlCSFwsgTUYbmku7MdTjWKZGWYOw2X6QKcScqSANRGe1nskDNfoxjkj3g8bXlWeoXXUGtFfdeE+E+40l1eM5qzI2fYJCBIFWFMQmzsaB7W/DOHx1eUrGwmxkLMqCTKFkgd6AQY/2lgaczT3IyxtJ4Bg/K41V/d2dHdj74esYGtTDQ+fNgsGg8Cie/VPQs1gsOLDjbQ6ypHnIWb8ZEqmMa/JUry8+m8t7GxCRIBFiQHA47ONjrHmg2btzWaETy4CgcGz5xnex6/3XUFdVxseTRoJ0BSTSpKxF6txM7Hr/VV5VQFmWNRufYNJBwbvk3EmUFp3h+j2tcFi78Um4e+gwPDSE0dFhNNZUMkGgQL1g6UomMiQybG2qxd5tbzD5oLIKLVWkvRlIVEgB/sTBHbw6gogbaRKWrNjA2RcSbJImoij/OK8+oUaljoe2PMslEdJJECmhsgc1WtJJJEej9cQbf/zFNRtXUSmDyj8k/qRSTRNlSSbW/VIw3xpvh7cKGLSIcLgBrBuYuuxwfQSQGWSHQuKY5W+rEiHAFdgQiYnzgI5hO5OHtypEoAzD0mBgcRDto2DHkFWEXTWAR3I2lq/IQUvhIfh158JNZodpTIT8VuBEi2O5I7V0XxG+mjSO/70oQnnf/f42CNcXEBAQmA4CM54g3NFgROCliTTNudHGQ7TMkeqs4XOuahCc1+XzeD+ET86qaV8EIgt22tjxuk2ZeJ8EWlo5Zp/xmx3dEYZ3cRDNVilIUiC/0c6WlEInkuFMq09iLqb9AdQ88zWbTJ84l/ZAkMmVvALiRo0ElNToujdrW579LvS93Ti0+4M7GhnpKKi/VJ65fvdC+ow2jKJ3YNUjW9DW3MAEwdlUKheeYZtGr+5T4PxMKpOzVoJKFtfvQ0HkjYSKpM2Yum/DnXSYhKe8K6T1k8V8Ile8PNdKy3Kvfa9Je0BaYNqzZDr7EdDXRCm1Y5SEijdIQNE1qdRAHJnKBVM3Sjp9cmIfhPGrSyqdY3w6wY4gNxH+q9BxntAEBAQEZg4CXwyCcAd4kgYhKEEHk9HK+xMI7YuNAC2PJPJCKw7uVSMdxeKc9bwq4WLh6Xt12S/kde50J8Un4+2oM4h4GaTQBAQEBGYWAl8agkAzfrmLjGf7VmGXlpn1Fj4gvaHlkR5ePlxCIFGi0G6OwJ0SBCplUCZjhu6aLjxiAYEvNQJfGoLwpX7KwuAFBD5jBCIiIhAVFYXq6mo0Nn6K3dM+434LtxMQEBC4ioBAEIS3QUBAQEBAQEBAQEBA4BMIiJKTkyelQeQPcDdqdwFXAQEBAQEBAQEBAQGBLxYCosTExEmCMDY+Dus0Hf++WHAIoxEQEBAQEBAQEBAQECAEBIIgvAcCAgICAgICAgICAgKfLDEIGQThrRAQEBAQEBAQEBAQELgeASGDILwTXwgEFEolaMtp2nCIdioUmoCAgICAgIDAp0NgRhEEmVLKfvFWs42NmKiJxSLI1TJ2JKTt6sh3gayfr9/Z8NPBMHPOlsgkkEjFsFnIRvrz31pOJBZDrXZhUyF6BrTd8ujo7Y2e7gWitFugSqXm7Y9pt8GbNdo1cMmKdWwjfWj3h2wCNbXRtsfuGg/2DSEhLu1jQNbP4+PT3376XozrQbqGQiqCm5ycHx1GSv2j49PagfFBGqvQVwEBAYFrEZhRBCEsyZe3Nm6+0s1eCtTUbgpEZwQxObDZxmAzj6GnxQBD9/CMCKD3+oXyCtLAw88VbTV9GBkw3evLT/t6HjovLMpaDZ3OG3b7OIrOnWSnxM9ilh4SFoWU9AUoLTnH1su3anFJqcha+RCOH9qFmoqya/rnHxiC1Q8/DvvYOCxWM5Mcsrymawqrdm79SkR6SJAZLIVOJYK7QoRXL5rRMihkaKb9RRJOEBB4ABGYUQQhcVEoE4TKcy2wWRyzOzedGsmLw9DdOsAB0ytQA4lUhIqCFpiMjn3opXIJ5EoZxqxjsJgo+3B15i2jz8gyDoB51Dp5XalMArKPJuIhU0hgNY9x5sLZqB9yhZT9Fujv1B/nZZVqGWy2cUhlYp5Vm0dptn/1R5OuR/25/p70b/J+UKgcGRHziBVjU86jzwOjveAbpkVtSTsG+z79TN3b199hmNTVzqZA02k0M0+cNQerHnocxQWnMDjQj9bmenR3tjPG5CPgrtVyMDbo+6/xMJArlHDXaCGRSDE4oGfTJWcjIyI3dw2oLGA0DrOLo5NwiERiaD082fnQPyAYafMX40zeEVSVX+TTyS9Bo/WAzWrDwED/5Jjoeg899gwM/f04fnAnRqf4IoRFxvJnRGz0/T2ITUhhM6QP3/xfGI1D/CzIUIm2ZqYSxfDQ4DXEwdXNHfS/8XE7hgYNk2Oh42l3RTqftmEm4uE0W+L3Uipli2jKhJAR1ciIw+qZms7Tm22qKTNDZiCDgwY2r3I2Os/VzY1xGRocuAY/8nZwc9dCLBIzBpQRmdqoX3RdOo+MnqY2ehfctR6cQZn6TOgYsmT2VIlBtiT9I+OwjANeKjHCtGL4u4qxJlqGX58zoabv2syLVAxoFSIoyfTMYsewxT65MyJ5P2gUIrjIRTDb7Bgw2zHx1XZ8v+UiaJQiUFVIbyKvh88/azad74hwrIDAFxmBGUUQ4ueHsHFSTVEbbNarBCF+XjDqLnWgr30Q3sFaRKUFoDSvHkaDCS5aJYJivSCROIyT+juG0NdGP/DjcNEoERTjBRkTBDvMRgtaq/swOmSGc6ZOD5cCNmUsGi93YnTIwil+nb8bvIM0TBCIdHTU9WOo3+HmSP20Wmwg8iGWiqHvGEJ38wD3me8ZO3FPux2mYQtnA+ieMoUUvqFauHmq2fHRMmpFc0UPX9/ZAqI84R2sQf2lDr7fnbSQ8GiQYRDXZ2ikFLANfejuaEPavEzEJ6Wx7W9NZRk62lv489s1SsmHR8UiIjoe4ZFxOJ17iM2TOtqa0dfTBR+/QKQvWAqth44v1dbSiOKCkxyU6NzktHkICg6DXC6HwaDHmbzDfB65DcYlpiImPpkJAgWqksLTaG6sw/jYGGLiZ2F2xiK+pkwuY+fCE4f2MEHw8vFDxsJlHMypxNTe2oSLRfkYHRnhoWcuX4ukWenY9vbL6O3pmhwiEYScdY/i2IGdqK+5gpT0hVixZiNe+cMvYND3ISQsErPnZjIpsVosqK4oRW1VOf93QFAo5i7K4ntSsKYxFJ87xf8/K20+QsIjmSBQwKZ+nDq+H73dnTxOIiLR8cmMgXFwAMWFpxk/us6jTzzHeBKxIHOlmspSVJSWwGQaddwzMxsuLq58LI2FsCV7aCJddF9f/0DWXBBpy889zKSG32WFEqkZCxERFY+Tx/ejvaVxkpQQ4SMsFixegYrLF3DhfP7kZwGuYmSHS+GhJNIL1PaP4XSLDYNmR8AOdBPjh/OVeLnEfA1BUMtEmO0nQbKPBKoJgnCiwYrGgXEm1IneUmSGSNkgir7SFb1jKOqwMYkIdZdgRaQULjIHQegYHsfJZht6Rm7/ft7u/RU+FxAQEPj0CMwoguAfoeMfLAq2zhk5ZRASFoagtaqHZ9R+ETp4BrijNLceI4NmJCwK5Zl+e10fZxvI9rnxcheG+kYQmuSLgAgdGi538Y+e1tcV3Y169LUPITTBF4HRnmiv7+cgHpHih+4mA2ovtPM1YjKCOIDrO4fhG+bB2Yq6ix2cTVj62CwM6UfQXtsHd28XJgUU0Ad6jAhL9oN/hAcayibu6eOK7ibHPSnwB8Z4MYmh7EFYsi86avvRXNE9+SS1dD0PFXpbB/iYO2kU/Lx8/Z38gB0J66rLedbv6e3LQTciOg40q29uqMXlC4Xo6my75aVDw6OwePk6aHQ6aD280EIB3Gbj4Fh15RIys1YjKjYJxedOcnAkspB3ZC8HndT0hZi7aBmqrpRydmDZyg24UlqC/Tvf4/5kr36EiUFHaxPS5i6CXt+H/Tve4xntc9/5Eaw2Ky6ez0d4VBxCIqJxaPc2Jggr1z+G0IhoJhs0o6f7nD5+AOWlxTyWgKAwbNr6LM6cPIyL589MZiUoKK55ZAvOn8lFV0crExC69msv/TdnN7Z87dvsOllaXIDQ8GgOwrmH9zCZWvXQV5CYko5j+7dDJlMgJDwKly+eZxKxfM0jHKyZGA0NYMWaTSgtKcChPdtAZY01D29BX28Xk7PU9AUc6A/u/oAdLH/0b7/l8V8qPstBmzA+su9jtLU0cDkkYdYcxz3lCiYwZRfOM8GbnbEQqRmLUHn5IkaMQ4xl4enjyM87zBjQM85YsBTRcck4dmAHWprqJp8zEYTw6Dgsy9mA0pJCFJ3NnSQIT89SIEYnwf5aC7zUIswPlGFvjQVnWx3k9WYEIcBNjHVRMrZvbh0cQ3aYDE0D43jvspm1Ct+eo4RGKcbxRgt8XMSQi8EkoMs4ji2JcmQEyPBRhQVKKRCmEaOgzcYkQmgCAgICnz8CM4ogUKmAGmcPJjKNFPTTVkTx3ygrQNbLbTW96Kjvw5h1HMu2pKCttg+9rQa4alXwCdWitbIHXU0GRMzyQ0C0JxpKuzigU5mABI5Wk40Jgs7fFTXFbRg2mJCwIBRqjQJFB6vh7uWC+PnBqC1p48AeHOfNwf3KmWYmCks2J6OlqptJgM7PDaGJvmit7mVtRESKPwKjPFFX2olh5z0nyhdEHuj49tpeLnfQeSTCLDlSO/kmUPaCyhA2K431ztKtVEagmaOzEcmidDfNjqnRzJi0BKGRMViwJAddba344M3/ueXbp1K7wMvbF/HJaTwTPrj7Q07Hk0nR8PAQvL39eKY7bBziUsPSnHWounwRR/Zv56BFM1wKlIa+XiSmzIFYKsWlorPcz6CQcChVLjBbzEibu5CD43uv/YGzDy/+++9xdP/HOH8mDwnJaViYtQonj+5ngvDc936MoQEDSs6dZrtomgnX11ZyYKVGZYONW5+FUqXCe6/9cbL8QAF469f/msWVY1YrCxWLCvJQUnCKU/A/+tlvUVp8DrWVZQgIDkNs/CzkHd2HyvKLWLtxK5Jnz8Xxg7s4M0AW00QGCF8iCAGBYTiw6z309fVg61e/DbWLC/7yh/9EZEwCZy2obw21lVias56D9juv/I7P/ft/+SUK8o7idO5BxnjhkhycPLYP1RVlWLfpSSSnZuDogZ3o6+7AyIiRSxd0Xs76zYzfhcJ8JghLczbAYjLhjT/9ijFwlEvcGZ8BKvtcJ+4kAkFZH7oW/c/Z/j1LjQsdNnxUaQEl3JK9pegbHUed3jGbvxlBoKxBiEYMlcRh5ZwVLoO7EvjNOTMsNju+l6GEh1qMfTUWdBvtGLHaYTDZYR6z46kkBeYHS/FhuQXtQ+MwWu0YmihRfP4/jUIPBAQEBGYUQbjR4yCCkLgwhEmAq1YJtUaFqsIWDOsd6fcVz6RhoNfIgZssnSmotlb3oL99CEoXGcKS/ODupYZcKeWSBGUBKBNBBMHdS8X/pkxE9JxAePi5oXBfJTTeLoibF8xaCMoKUNrfP1KHK/lNGB12EIT60g4mBVofVw70HXV96G42OO6Z7Ad3T8c9h/Umzi7QPYk80LWGDaNc0pDKpRgdNqHybMunehNjE2bBxVUzeQ1S5/f1dKKlqZ7/RrVqmnkvWLoSEVFxKDp3Cgd3vX/be1J9PX3+Uk5Zv/fqHzE4qJ+4nghZazayPoFm4FTb8PLxZTHh4T3bODBSnfvovu0YMPRzLZ5WQ1DK3tcvEKsefhwuLm5MOIi4kDbizT/9muv7//SLl7Dzg9dZREhlCMpU5E9oEL79t/+XyY6+v48DIa1OqCy7iPzcg5NjIVEjZRreePmXXGKh5swglJw7xRkCN40Wu7e9hZ6udv78p7/8M7o62jhNL5FKudRx6th+1NdUwMvHH1krN8AvIAhyhQpd7S3IO7qXsSWCoPPyZRJg6O/FI1/5GnwDgvDyb36GqNhEZK95BAd2vMfHEjGjvr31p9/AODyIv/vn/8dZCiIqRMAWLVuF/NxDnJ2hbBAJLv386Z5KdLY1M2Eh/QdlQiij0dfTjbExG2syejrbseP9V2/7PG91wH+tUONovRWH662ciZKIHRzdKZG5GUEI1YjxlQQ51DIx6wtIqzBiHcd/nzVh1GpHlE6C9dEy+LqKQZKf8+02HKm3st7A10WMjbFyBGnFcJEC9YZx7Kq0oFkQQX6qZymcLCBwrxB4IAiCU4NAQSEyzZ8Dbm/LIKdHs55IQdW5FnS3DDgwoaWQnGlwzL55Ri4WQekqR/zCEBi6hlF9vo0JgsZHjboLHTAOmBCbEcTlgvP7q6DxckHc/GBUn2+Fvmt4Ujh45WwzlyNuRRCm3lPlqkDcwmAuU5CuInyWH1zclWi43DlZPqB+Olds3O1DpXo2pbSdNQYKuFdKi3Hy2H6eES/OXo3Q8Bg01lVxSr6np5OD9e3azQgCZSyeePY7KDqTi+LCfF4G+cjjX0NrSyMTBKrve3h6OwKnvg8JybOhdnHDxeKzmDN/CVLnzOeMBAXlzGWrWOfw3usvMUH4yc//gH073uUSQWxiCjKz1+D08YOcQXjh+z9BbXU519wdz9oO25jtGvElLYv85vdfRFV5KQ7t+XCSIBBpIfEiEZOsVQ/hwO4POWNANf4f/9tvcXjvR5OlCnqvbFYLCxXpnSNhHxGHgMBQrNm4hWf5NE4iCN5+gby0Ut/Xg81PPQ8PDy/8+fc/5wzC8jUb+bOmhhoszl6LhJQ5ePvPRBCGmCCcOLybyxMxCbOQuWz1JEHge8rlkEpkCAgO5ZIDCSwJz1UbHmOBZ96RfZzJoEaE8Hqh4u2e7fWf/0e2GvnNNuytpXS/CCm+EgyZgSu915YY/lRiRvWESJESfllhMszxl3JJoctox7poGaI8xPhtoZmzBSRSlEtIwAgsCJRiQZAU2yosKOse49eVPpNJqLwgwuOJChR3jGFn1dV3kwSOYpEd+s9/Qc90IRWOFxB44BF4oAgCLW0kgSBlCiiLQGn62SsiWQxVXdgGz0A31gs0lHWyUDEmPQiuWgVqL3SwoDAqPYjr/zVFrUwQQhJ9mGxQNiJpcTj62wdRUdDMmoL4haEY6h9BT5Oej6OUf3VhKwsKb0UQiGi4aBSoKemAXDFxz/ZBLmWQfoIEjC3lPTAOmpC4OIy1ElfONN23F2nJ8rWg5YI06yUh4XSWJ96MIOg8ffD089/nGfaJgzsRGZOENY9sRcn50xw4SdQ3P3M5Cs+c4GC4fuOTHNh3vP8a19AXLluJo/t3QN/bg5UbNrPS/42Xf8UE4bv/52cYGjJwf6k0ERM3C/t2vMcE4ZEtX0NAUDh2vPcKPL18sHztRtZZnD5xNYNAQNIsOyk1A//vX/+eBZlTRYodbU3Y/OQ3mVjsfP81h+7huz9igWHe4T2g5ZKRsQlcKqmvrsBjTz8Pd60Ox/ftgLuHB9fvr1y+gCN7P2KCQNqLE4d2Q9/Xi81PPoeKsgvY+eHrCAqN4JUTLQ21qKu+wmOmEsquD9/gfR1uRRC+8swLcNN48D1JA7JkxXpcKSvB0X0fY97i5ayhIKJnHBrAo08+h/qaSmx/z5FBIOEnkZGk1HTs+uANNNRVTb5bJGqMSUjGuo1P4vyZEzh1/MCkBuGv0pSI8BTjL8UmLhmsiZZjf40VxxocOhha4vijhSo0D4zjdIuVMwutg+OYGyRBVpgcH5SboTeN45lZCg76/3XGxKsW/mGhGl3GMeQ2WpHiJ0WanwQfXHEQBLqnViXCB5dN8HGR4OE4Oc612bBrgiAQUfnnJUoWMP5j7p0Jdu/bF0m4sIDAlxCBGU8QaJVCVGoAC/loNk8EIDjem9PylKpXquVIyAyFq0bJ+gIqL3TU9PEyRDcPFaLTA+HqoebZ5mCvETUl7ZwxIIJA16LljAqVFCNDZpSdrId5xMYaAFpOSaUChVoGo2GUlx0SYSAyMndNLJoru9HZoOdSAi1NpPICrbJw06kQPScIrh4qvieVP0jLYBwwQyqVICjOGwFROi4vDPaPoDK/EabRq6sY7vU7SOl9mhHfzXp/Eu7Nmj2Pa+S7t73JqXFnIwIwf8kKToGTLoFWTbQ1NXDQIcU/pcwpFU4K/s72Nk6BUzmCMgs0mw+NiOFlkbTskLIZjusPcVlh9UOPc/mAsg9Ufy/MP87BmsSQGzY/haCQCJ4100yetAFTlxZS/wJDwlns+NHbf0Z5aREfn5m9msWNJNKkoJ4+fzE+eucvrCvwCwjGhs1Pc7mDlkeS/uFC4WlehhgaEYVVG7bAw9OTyRUJDmk1RHdnGxOEGFoyKZFC5eLCJGHbW3+CQd8LuVzBQZrKOrTssKerg8kTrWKg5/HN772IglNHuZRCgknKrFA2gfQKYRHRWPXQFmh1OhbrktCQxkn3JG3I4uw1jC1lGbo62rH7w9eh7+/lR0P6Cwf2Gdi7/W001FReXcUgkYDKUas2fIXHR8/KSRi9VSI8k6pAhFbMWoLCVht2Vlsw9dVcFCTF6ig5tEqA9LN/KDTBagcejZMhzkvCf+s0jsFsc+yXQDqDDH8pNsXLebMlWqxzqtnGpIO0BpRpeDpFAS+VCLQnWGXvOD6usLCAkVqClwQvzFFgd5UVxxrvTLB7r78/wvUEBL7MCMx4gnBHD0cEXuZIwXvqfgTOc2m/AmqUBXA2pwaBMghECmgTJqcw0nkMkQfewHHcPrkHwh31hwRzN7in81wiIHRtElk+yE0uV7Iob9CgxzipR69rJJSjWSutWJi6NwX9jT6jXTHNZsfS0alNJpVCJlfyvgE3alTSoHrKzT6nc776wt9w2n/3R2/dEcSk8Fcq1VzXJ2IwtVHK391dA9vY2DXCPtYgePog9/BumM1mzoBcPxYiOhKxFFareVrZm5vd09kvpVIJiUTGOo7rG+09QeSOSk20udXURuMkMSdlUEhrcX1Ty0h3IOLgfqeNyghKCXj/hKl7HDjPJ+0BlRjodb/R5650TzuuISN07rooORYES/HLs6OsWRCagICAwGeLwBeDINwFZn7hOi4F0IoIk1GYndwFhDP6FP+gENYb0H4G96vRngwajQ7n8o8zORDavUVgebiMdQq0LNIyDcJyb3shXE1A4MuLwJeWINAKAxIwko5hJngefHlfwQd35BqtjmfjAwYqad2/MtGDi9Cn6zkl4UhrLHCDT4ejcLaAwN0i8KUlCHcLmHCegICAgICAgICAwJcBAYEgfBmesjBGAQEBAQEBAQEBgWkiIBCEaQImHC4gICAgICAgICDwZUBAIAhfhqcsjFFAQEBAQEBAQEBgmggIBGGagAmHCwgICAgICAgICHwZEBAIwpfhKQtjFBAQEBAQEBAQEJgmAgJBmCZgwuEzEwHavZG2hqbdGO9m18iZOSqhVwICAgICAp8fAjOKINC2xtQso7Yp28OKoXKV886DvGWwdRwW2rvgDq2QbwUtXVMqFfO2zHdqrey8HhlAKVzksJptbCP9RW208x55JdDuhYTX4IABRuMwbyN9vxtZQ1Pgp/uZTTffi5/6uHj5WgSHRuLg7g94++SpjbY99vD0Ah1H7w1dizY2uhdEgkyclEoVezpMx+fiXmMnFQOeKjEmHNPZWXHIbL9+c9B7fVvhegICAgJfYARmFEEgt0PaYrapvGvS4VDtrkBMRjCTA5t1DOO2cfQ0G9DfOXzDbZWn86zI4dEvzIM9FcguejqNyExUWiA6G/rZGOqL2OhZ6Dy9OfhqNB4cUIvPnWJL4s8iGJI1M1lNXyouYCfKWzWyTM5e/TByj+xh58Op/QsICsWah7fwNsoWixkm0yguXzjPJkr0t0/TyNly1pwFKDh55JptmD/NNe/mXDJTWhUhQ4CbGG5yEU61WHGmxcbbGwtNQEBAQEDgbhCYUQQhcVEoz1Irz7VMzsrddGokZYahu0WPYYMJ3oEayJRSVJD18kRQlymkbLhEXgu0M6IzG0BBnKyUeYZPtrNKKWhreiIacoUUWl9XRKYGsJkSGT/R7JLsnKlRP+h4qVzCGQ2bhbIaVyFWuykwKyuCyUxHXf/dYP+ZnENGRGRX3NneAqt1eiSIZtxJKRnIWf8oCk+fwMCAHu2tTejr6WTCRlsZa3VkYjSG/r7ea2b5CqUKWg8dGxnpyXSJsg4TjXYfpF0IyVhoeGiQXQ7pGg7cxUxKaNbv6x+I2XMzcSbvCLs5UlO5uMLDwxNWqxWG/t7JMbm6ubPh0vDgII4e2M4zemcjN0f6rKK0BH29XYhLms1eEB+88T8c1IkIkREUZSvIaZGyJE7iQH2hjANlMQgPclkkjwP6G9kuR8QkYNnKDdiz7S3eUZH61d/bzbemcbprtSDPCjKUMg6TJ8XViE3PhQyiqA838lTw9Q/i+5Bp1dSmkABeajEoa9BjHMeIDVBIRIjSieGjFiMzRMpuiftrrddsUUy+ImSfrFWIMGKzo3/UDtsUAkGfeSgdxkn0mZGcmCaaWiaCTiWCVAT2RaAMhdAEBAQEvtgIzCiCEDc/mM2RaoraOYhTZckY0wAAIABJREFUI4IQPy8YdZc62C3RO1iDqDmBKM2th9FggruXGiFxPpBIRRgbs6O3bZAzDEQMIlL8MTJkQleDngNPSLw3zKM2tnX2j9TBM1ADjZeaHRet5jEmHNXnW3kLZl2AO99LLBKxqVB7bT8G+8jN0fHDqHJVIGlxKJoretDVqP9c35LwqHh2DHQ2sjgml0RyDkybl4mk1Llob2nkIHunls9aD09ExiYiLDIGYRExKDh5jJ0OW5sb0NPVDv/AEMzLXA53jQYiiNDW2sSeBGTcpPHwZFvnwOAwyGVyDA4O4OSx/XyeUqVmJ0JyFSQSMDo6gqKzeZwhoAwFOUfOmbeYbZqlcjmXNo4f2s199/ELwPwlOVCp1DxUsm6mc0eMDjKQmbWa3Se3vf0yeqaUGabaPdfXXEHKnAVYsXYTXvnDLzj4RkYnYM6CJaCSBjlMVl6+iIryi/zfax/ZivbWRlwsOstOiuSU2NfThca6au5nREw8Y9HSWAerxYy+vh7s3/EuiCDFJ89GdFwyayOIeBSdzUV7azNnN4hsRETHY1HWalSUleD82Twes7PpvHzw8Fe+ir7uLuzd8c6ksRKVERaHSBGqEUMhFUE/Mo5d1VZ0jzjOpeC/JUmOzmH7JwhCko8ES0OlUEnFsI7ZUdRhQ3GHjV0Ww7USrImSQUXfI7sd3UY7uy6Ss6KvixjLQmUIdKcyH5hU7K2xosHwxS2tfa5faOHmAgIzBIEZRRDIfpkCcG/r4GT5gAhC4sJQtnEme2T/CB08fN1QmlePkUEzUrIi2Z65taoHGi8XuOpUaCjtxECPEWkrojDYZ0TdxU6IpSIkLgjDyLAZDaUdcNWq4OHniqBYH7RUdmN0yAyrdQz6jiFQdoBICP1N3zkEvwgdLCYbX5c0B9Qoa0Eko79jCMP6z9erfuX6zaBUN6dJyLXSZkNd1WUUFZyEVueFqNgEDlSkJSDr4Evnz6CjveWWryCl95csXwt3nQ4eHl4cAGlWXVzgKDEszl6LsKg4FJ4+BjeNFguXrsSpY/u5BJE2NxPpC5ag/GIR1/pz1m9ma+Y9H70FL28/LgUMGPRoa65HxqIsGIcGsefjt3nW//z3f4LRkWHue1RMIsJj4nFo9zYmCFQmCAgOw8lj++DmpgGZJZ3JPYSyi+d5LBSoH33iGyg4fRwl505NlhmIIFCgLyrIQ3dHG2clgsMj8fpL/83Zgq996+8wZrOhpPA0wiNj4enti2MHdjAZeuH7P0Ft9RX+N+FH1yeSdfr4AdAMPzI2gfuRe2g3Z0KofFFfU8F9IVtrytw0N9Qgff5SDOj7cHjfx+wWSQQhNCIaS3M24PLF82z1PNUJ0l3jgceefh5dHW3Yt+PdSfJAgZoyBAWtNgxZxrE1SYmzLVZ8cMWRHboZQSDi/VSSAioZUNIxBiIL3i5ibCs3o3FgHFsT5Ujzl+G9cjMoQxGtk6Co3YYrvWPIDJYiJ0KO/BYbekbGMTdAivKeMZxuEUzOZsjvuNANAYH7gsCMIghSmQQkq5pqg0wEgQI9zbrIVIkyA82V3ZwVoP/O2pqK6qIWtNX0QevjirBkX07506z+ZgSBSgrUNN4uiJ8fiitnGjk74GyUlUhcFIb22j4M60fgFaSBq4cK5aebJssalJYmS2fqw70QTH6ap0sCPJlMcTWDYLfDNGrkgEWNLIfd3bUIiYjCkhXr0dfdiXde+f0tb0kzYA+dJxJTMhCfNBt7t78D4/AglwRGR0ag03kiIDgcFqsZKpUrMrNXofpKKY7s+xhkg+ztG4DDe7ZB398L0gdIZFImDHK5HP4BIXB117LlcMqc+Zxmf/fV33N/X/z5H3B4z4dMROi+i7JW4eSxA0wQvvn9FzlDcanoLGci5i7K4szD4b0f8VjI5njj1q/DxdUd77zyOy4FUCOC8MSz32H9AZEcq8WCs6eO8nXomB//7HfcbwrSRKQys9fgbN5hVFy+cFOCcHT/dr42EYQNjz6NN//068nSAv2dsgPrNj2J0uKz6O5sQ8KsdHj7+OGtP/92spxAJQYqU1AWZWpJhM6n98vD05v7OtUpckuiAlqlCB9eMUM/akeyr5QFo6Xdjtn8rTIIpE/wU4vYcjnGS4JEbwm2V1o42G9NVDDxoH+3DIzDYLZj2GLHiNWOzGAZNsTImFiU99jQO+r4+6BQZvg0X1vhXAGBGY/AjCIIN0KLCELCghDOEFB2gGb+VedbJ2fty5+ejbKTDehuMnC5ITzZH11NenTW9981QSDiMHtFFIb0o7CZxzhDYTFZUVPczisoZlqjVLarm3ayW1TP7+nq4JkrNbFIjPDoOE5nh4ZF4Vz+CRzeu+22w6DUOM18SSj43qt/xOCgo5RCZZeVD30FSbPSodf3cuaCavWXSgqYFNDM2V3rgaP7tmPA0M8pdgp4lNkgTcT6R5/idP3w8CC0Wh0H7jdf/jUHwn/6xUvY+cHrKLtQiJj4ZC4b5E9oEL79t/8ChVIBg76fIiiPi9LzZ/IOT44lOW0u1jy8FW++/Et0trdOEoTVDz+OwtPHOUOg0Xli97Y3J1c7/ON//JHvSTP58Kg4LM1Zj/P5J1BeWnzXBCEqNhGPf/VbXI6gjAHpEUhrsOP9Vz9BBm77IKYc8FSyglcqfFxhYR2AWMRQYGyiOnEzgiARAd+bq0CguwRdw3a4ykWQSYB3L5txuXsMOpUYm2JliPSUwF0ONBrG8VGFBQ2GcT42K1SGOQESeKtFGLUBb10y49IEKZlO/4VjBQQEBB4cBB4IguDUIBCs0XMCUX+pHT0tg5ySzX4iFRXnmjlrQIE9LMmXVyVQBiElOwKjg2YO7KQrSMwMY2JRd7Gdn9DNMwguiJsbhOriNi5VcLPTRG1mCrMee+oF+AeFcBCmRrPiy5fOI+/IXgSFRmBZznpQyYDS/CcO7WRB4Z2sQrgZQfDxD8STz36H0/tFBadY/7D5yW+yDoEIwoo1G5kwUDqdavxJqeksACw5l4/0hUuRnJqBvR+/jc6ONixdvhZRccl4//WXmCBQBuHAjndx4fwZxCam8Gz+9PGDnEGgdH9VRSnrGZyNBKlThX+kI3jhBz9BbdUV7N/53iRBINJy7OBOqFUuWL52Iw7u+RA1V0oZhxd/9jvs3/k+LhadAQX2JSvW4ezJo0w+nvvOj9DSVI9Dez7k2f5jTz3P+oPjh3bxtW+WQYiMSUD2qodxeN9HfL7zHXKKMe/2J2JrkgKuMhE+qjCzWDAjQMr/PtHkIK5OgkAkYN8UkWKEVowfZarwq7Mm1PSPIcVPihXhUtYpEEFwED/H/0LdxfhaqgKXusaYJDg/o9fLTQb8cL4KxJN/ceZqaY1EjEopeGmlsHLibp+ucJ6AwMxC4IEiCIauIcTNDwGVIioLW2AesSJ1eRSn+hvLOllT4O7pgrqLHTB0DyMi1R8+oR6oKmiG0kXO/64tbkNXk4GfgotGyaRB3zUEQ9cwX49KDbS0MnZuMJOJ7kYDguK9WQRZda6VV0k8SG3RspUIColA/omDaG9zCOTutN2MIFBJ4MnnvofWpnqcPLqPZ90k+rtQdIYJQvr8JZi/eAUHXFq9QBoJ0i2QBoEEgo6ywX4Y+nqQtfJhuLi5442Xf8UE4Vt/839ZuZ+fexCxSaksIKTgTQRh/eanEBIWjX0fvw2dlzfrIEjcd/bkkWuGRNmN1Dnz8ct/+weM2axcYmCCcGAn2tsa8ejWb3DWg2bz1L9vfOdHEMGOc6dPIDI2HjpPXyY3rU11XCYgQSXpADy9/TB3wVIc2b8d5ZeK+J6E7catz6KuuhxtTQ0YHNCjoa4KvLRy41bWbtRXlWPB0hwmmB+/8xcuKZAGITo+mcsT58/mMo5TCShpR174wT+iraUB7/7ldxifIKfZYTJkh8twvNGKUYsdz6QoWBvwdpmZ+0NBelOcAkQI6O9UBqjtH4NaDvx0mZozD5e7bcgKk7EO4e0y+vcYvpGqhI+LCDsrzfBUi7E2Wo6CVit2V1uxPFzGRORUk5Wv99QsBdqHxvHbQhPfUy4R4bEEGdL8pPifIjNq9YJ48U6/Y8JxAgIzGYEZTxAoiIcn+7FI0dBthE+IFoExXrzawDhgYkFhdEYQXNyVHLypFNHdbOCljnKFBJFpgdD5uWFsbJx1C7Qs0akZoBk3XYuEjzKFBPrOYVQUNPMSR52vG0KTfZlYjA6b0VjayfefqVmEm71ktMyQdR1j0//RFoslSEyZwxqCAzvfv2YpHokQMxZksVqfygiDA/1ob2niYK12dcW8RcuRkDwbMrmChYEkQiQCQIEva+VDCAmPgsVs5tUWtPzywM4PMGIcAs28c9ZuYt0EZR9GRkdQUnCKtQYkTFz18OO8OoJm4rWV5SyMpFLF1EbB+bnv/hg7338NpRfOcbBesCSHV1kQqUnNWITZGQuwe9tbXAIICA5lAqHRevJyxPNncjl7QCUR2v+B7knXID3A5YuFyM89DJvNQRSJRBHhodUXtCqjqb6GyxdUUohLSmWi5OrqBoOhH7mH9qC5sWZyFQNlK5av3YSyC+dwJvfwNeSNMjBbn/0ur/z46J0/T65icJMDKyPknO6nwNyoH8Mbl8wYmsJbIz3EWBUpR4hGzBmBNy6aWWy4KU6OeUES2MZF6DaOYcgC5DXZmECEa8V4PFHBJQRa5ljTN45dVRZeHUHEYV2UHHFeEl5a2W8C3ik1sbiRWoCrGFuT5Lw0kjQMwhLImfyTL/RNQODOEZjxBOGOhkKpUdppkdPNnzyDdkskUjBdMSERBbounTfdnRbvqN8P+EEUEElLMDRgwPiU9f3OYdE+B0QySIA3lVjR30hkOD5m4/r89aRLKpVysB2ZspfBVKgcyxxFvOzyZu3JZ7/LxIXElXfSaEZPZIbKMzfaPMnFzQ02i5X7O50mk8lYQErnXX9dkUgM+pzEmuM3IHC0f8LYuI1XWFzfaKUBEVyT7c7LXlSAkovt/E7T0sYbnekiAxME+vz6RtkJMcD7LkxtyT4SPBQjx5F6K86324TdG6fzggjHCgjMYAS+GARhBgMsdO3zQcA3IIj3UGiovfUOjJ9P775Yd43WiRHlIUFxx9jkfgxfrBEKoxEQ+HIiIBCEL+dzF0YtIHDPEKAVElTKoA2U7jyfcc9uL1xIQEBA4D4hIBCE+wSscFkBAQEBAQEBAQGBBxkBgSA8yE9P6LuAgICAgICAgIDAfUJAIAj3CVjhsgICAgICAgICAgIPMgICQXiQn57QdwEBAQEBAQEBAYH7hIBAEO4TsMJlBQQEBAQEBAQEBB5kBASC8CA/PaHvAgICAgICAgICAvcJAYEg3AJY2nueNqOhzZcetB0U79P7MkMvK4K7Vsu7Fw4a+nkHxJnSaAMmcpmkTZKms831TOm/0A8BAQGBLy8CM4ogKF3loN3eTEbrNQGZjJZUbgr2XLBZxjA6bGGb5fvdaBtnrY8LBnpHeFvne9VUrnK+lMloueHOj/fqPvfiOmKJBBqtjrcLpp3/yL6ZtiP+LAgT7bbo5q7F8ODALXdNpCCcmbUGoZHROLjrA3ayvL7RltA6Lx+QmZNpdIS3WKYtnu938wsIQmhEDOqrK9Db0/mZ4DbdMelUIjZ5cpBhO5oGxyfdIad7LeF4AQEBgS8OAjOKIESk+EMkBhovd2FswhKOyIF3sBa+oVr2SKCI2lHfj57WQYw7PW7v0/PQBbgjNN4brVW96GkduGd3iUz15w1lmmicnwHRuduOU8Dw9PbF0pwNcHUhPwsbis+dYuOlz2I2HBoRjbS5mbhYdBYNtZW3HEZ0XDKWr30Ep44eQEX5hWu2LiaikTx7LuISU9njgbY1Li44xcfdaBvju8XrRuclpqRj7qIs9oyoq74yIwnCvEApUn0lcJGLoFWK8N9nTezKKDQBAQGBLzcCM4ogJC4KZRJQea6FMwXUaBYfMzcYo0Nm9HcMwitIA/JWICtmcl+kJldKoVDLYbPYYBqxXuObQJ+R4RL93JmGzbCar5oWSeUS/kwsEfG1nNejveoVahlfU+Eiw2DPCBs2TW1yJX0u5X5OvadSLcPYuB0SiZj7Rf22TozFeX7S4jDOHFSea54kQvfrNSRjI/IYaG9phMVy7Rhud0+amSenzmV75DO5RzAw0I+ujlbo+3o40Lm6aeDp5c1GUL09XTwzdzYKyuT6SF4D/b091xgqyWRyaHWeUKlc2MBpYEA/GdDpnl7efpArlPD29UdqxkKcyTvCbo78Pri6wdPTm2f/dF3nmMhOesPmpzFqNOLIvo8xMjI82Rf/wBCseXgLOttb0NxQg4SUdC5H7PzgNXZzJCLkrvVgMyjyf7i+TKHx0HEWhUiRgTMoV82h6L5aD09IpFJ2cjT09/F9eYwentB6evG5dVXlnH1xNsrGOO85OjLMvhHO0giRMovZBKVSBYXKBfre7muMsugaXj5+3O/e7k9mJciWWq12hV7fy4ZYV+8JeChE8FCJYbTY0Tc6ztbM/q5i+KhFCNZI8FiCHD84NAK96doMnUoK+LiIIRWL0Dk8BuMUcyjyhfBSi0HHkNtj36id/RyoEaf3UongrhBh1Ab0jthhdn54uxdQ+FxAQEDgc0VgRhGEuHnB5MGD2uJ22KyOQO6qVSJ+YSg66vrRVtUDpZsCKhc5BnqNPPt291QjNMnXAeK4HX3tQ+hq0vNnbjoVwhJ9IVFIOfNgMdnYzdFoMIHKGUHRXnD1VE3uD9tQ1omBbiOTg5B4H7h5qNioic7Rd10NOFofV4Qm+DCxoM97WgYc97SOI2p2ABMDsUQMqVIC05AFDZc7YZ7yixq/IIRJTE1x2z3JIETHJUHt6j75ItnHx9HX24W25gakzctki+Wu9la2KG5pqruj2b+Hpze7OJLrYkhYJM6fyWMC0NRQwyQhMCQcC5eu5NIDBXWykiZHQnJgpHPJ8pkcEGVyOYxDQzh+aBefR+ZOs9LmIy4xhcmD2WRil0WaXRPRSJ49D3PmL2EjJwqycqUSxw/uYoLgFxCMzOzVTB6oFEUBv+DUMRiHh3js1J/Z6Qvx4dsvX1NmCA6LZPJQmH+CMyBEQLQeOrZlJnMmcpCcm5kNsUjEfaB7lZcWc3ClLEZm1mouTZDlMhGEsyeP8li8ffwxNzMLPn6B/H6NjY+zbTM5T3p6+WJx9hq2paZrHj+4Ey1N9ZPPKCY+BRmLlkIuk7NL5JWyYpRfKmZTJ+qrQqFgkyelWo3uzjbk5x6aJB/uGg/krH8Ubm5avPPq7/j8qcQsY+Ey0DtxbP8ONDfWTmYtkn2kWB4uhVLicGwsarfhXLsNI1ZHNI/RSfCTxapPEARfFzGyw6UIdpdAJgYGLOPYVm5Bl9EON7kImcEyJPtKnF9BnGyyorjTRl9HpPtJsSxMxkSB/n2lZwynWhy20UITEBAQmNkIzCiCQFbONDPta6fygeMHhIJ1VFoA3HRqdDXq0dNsgHHQPJklSF4WDowDLZU90HirofF25YA+0GNEeIo/fEI0qClqI7UhvALd0Nc2yCSC7hWS4MPXHDaMchljWD+K9to+UFmDbKbdvdTwj/BEc0U3H+dss1dEcf9aKrtBZMHdywWNZR1sBz17eRRkSilqi9tAGYrI2QHcH7qus1G5hIgF9WW6DpM3ep1WbXgM3r4Bkx9RKaCm8jKKzubBXaNFWFQc4pNmQ+fpg9aWBpScPYm21sZbvplhEdFYvHwtNDQL9vBES2Pd1RJD+SUsWbEOwaFRyM89yDPhZTkbOIiRVTKRAyImFwrzMTSgx9pNT6K+ppJn7DTzzV71MPp6utn6eMHSHFhMJuz+6C2ezX/rh//Ms2kiDTHxsxCdkIxDu7dx0F6/6Ul4+wUwYaBZ8qJlq1Bw8igulRTwWHz9g7D5yW/ifEEuis7kTRIh0h6sfvhxzmhcKS1GxeUL6Olsn7TAfub5H3LmgPCKjI6HX0AIco/sRltLI9ZtegJUviALZ3KYpMBbdaUU1RWlPEaycyby1NvdgdT0BWhrbkThmRNMKIg4EDmhLMjRfdv5HGf7xnf+AaPGYZw/mweyfaa+Hz2wg+2ov/n9FyGXKXBw1/tw99BhcdYaxpbIDTWVWo0Vax/lLMFH7/75mjIJEbLZczMRFZOI3CN7OHNEjQS3/7BQhSGLHbmNVszylSBUI8FHFRa2e74VQUj3l2JuoBQXO20YttjxQroSx+ut+LjSgjCtGFsSFWgeGMeFThvivSRMOI41WjE+Dnw3QwmpRIR9NRbOVGgUIpxptaHLeP81RDP7p1fonYDAzEdgRhEECsyUep+qLaA0qlqjgH+EDl6BGoilYjSWdaKzgdLS48h6IhWt1b3QdwxCrVHCO1jDmgEK6OHJfgiO80LTlR4M9A7zbN5qHeOZPh1HWgBDzwh6Wg0YMZi4XDC1HEDZiYhUf85eTCUIWVtTUVXYjPa6fiYIYUm+6KjvQ1ejgQkClRWqzrdAIpMgKTMMQ/2jqLvYPvk23Gicn+ZVISEfWSQ7G1ErCrrONDulv9UurhysctZu4pnoGy//6pa3pGBIQTg5bR4SZ83Brg/fxPDwAEZHRmA2jcLdXYOgkEjYRQDZL1Ogr75Syun95Ws2MhE4vGcbZxQiouIhU8hRefkip/Z9/QKg1XkzGUyancGB+91Xf4+hwQH85Od/wIHd76OkIB/xSalYlLUap44fYILw/A9+ggF9Py5fKARZSc+ZvxRNddU4tHcbj4UElY88/jVO6b/1599wdsD5d8o+zJm/GBFRcRCLxMg9shdlF85xWv/Fn/8el4oKeOZPosKo2CTOBBCRIGKRlrEIp44fRGd7M4sbKWNBM30K/Mty1qOuugL11VfQ3dnOpRSyt3Y2EiiuWLORxzCVIPz4Z7/Dod0f4sL5fETHJ7PI8kzuIVSWX2SC0NHSxFbVNJZHn3iO+0ZZGEewF/HzpDIFCUavbyTIlMvl3A9n2YJm8L9f7YJ3yswcoEmYSAG7bWgcBtOtMwhqmQhBbiKopCLO3GyKl6NndBy/LzQjVCPG08lKGK12nG21omVwnLMDRCSIlHw3XQU/NxEO1VmZRPSbxvmzGSy9+TRfReFcAYEvFAIziiDcFFlyixOLIZNLEDbLDxpPNcpONrIuYMUzaRjSj8A8YuMfJCpNOAjDEGQKCUKT/OAV6A5aOTAy4AjcNNOnIO0XoWPiQWUMygiQ9qG72TDZjZsRhOVPzUbZqQZ0Nxk4e0BEpKuxn0kLEYRh/QhqL7RDIpUgYWEojIMm1F24ShDu9RuUlJLBan9nGx8fQ1dnGwcVDpAiMSJjE7Bk+TqQJuHMySM4un/7bbshkUiQPn8pB8L3Xv0jBgcdWRRKxVNWgPQJfX1dXKKhLMPF4rNMCnLWPcpZBZo1UzaAAhk9G6rhBwSG4OEtX2dSMTg4wBkOIhxvvvxr1iP80y9ews4PXkfZhULEcOBcjfwJDcK3/+5fuC4/MGDgQEUEgzICZ08emRxLYmo61m96Cm++/Ct0tDVP/p2CKpETVzd3rFi7iWf3b7z8S9YT/PSXf0FfTyeMRiOPjYI/iQpJGOmm8eCMR0R0HFzcNOjpaMXhvR9xeYLKJYRPMpEcL1+MWczYv+t9lJacuy1BICK064PXcflSESKi47F0xXoUnD6GirISJgiNtVVMtui5btr6LFqb63HswM7bPrObHUAE4aU1LvhziZnT/4QfPRNewjtx0o1KDHRcdpgUa6PlGLYAJPsJ0YhR3W/Fb8+ZueRApYucCBlCtA4CsbvKiqMNViYBgW5ibIqTI1Ln0CgUtI5hd7WFdQpCExAQEJjZCMxsgiAC6wB8QjzQWtUDs8kKn2ANIlICUHaygZceLtuagsqCZg7OFAQcP3p2/uEjwSP9YFHtmHQLSUvDMdQ7wkTg6rFgskClCrlCinN7HWp5ug6VNSjLwBmEJv3kksQsuuf5FnTW9XNJIzTRh1dWEGH4PAjCo08+BxLisYADwJjNyvXsk8f2sYZg2coNCAoO5xn8iUO7oNdfLXfc6vW8GUHw8Q/Ek9/4LvKPH0DhmTy4urrjsaefR1trExOE5asf4dUPR/Zv52xFypx5HEyLzp5E+sKlSE7N4JR9V0cbB0aaQb//+ktMEF789z9wap1m1rTq4JoMwvdeRHVlGfKO7OWxkhCUSMfUFRWU+XjhBz9BQ201/n975wEe1Xnm+//0GfXee0UFIYEkescUY8AV19iJa9beOHWTTbubvbnZxHdT7E1s3ziJ7Ti2ccOm995FER0VhFDvvU6f+7zvoEGAhMDBtoTe73n8hGjOnHO+3znS9//euu7Td9mqEJswBgmJqcg7sIMtEOMmTMLMO+7CW6/9lgML//0//4CNaz7khZ3fC6WSgybpPSIGdC0WNxHRuOfhb3C8xMZVH7BoJfFjd9g5FuPRp1/kd+TPf/jlpXdIwSmOcxfdjX07NrksCHTef//lK2xBOHH0wGULwu7N/IxuRCBQbQV63ANlYSiVKlCgLcU+9KWjuiwIp8w4WGNh60GKvwqFzTa2ItBI9FPh59MN+N6WHjRTkKID8NYr8HiGDg3ddqwttqDH6sC3c/VwwMECgX5PqN0zxRdQsCK5GxL8VPjVvl52NaiVTgFCFKdFqjEnVouPC8w4WX+5VkWIhxJmK1kXhvcfS7k7ITDaCAxvgcBBigakT49GS10XWmo7ERzjC5VGiaK8Ss46GDs9BmqdGmWn6uET4g7fYE9QsGFrXScHDFIcQUVBI9dQoGDGpsp2XDhRy+cJi/dDU1UH1yOIzQiB2WTFie0XoNGp4RfiAYOnHiGxvnwuimlob3ZmM2TMjONAxMqCBvgEu8PNy8Dn7GhyxiB82RaE6720k6bNQVhEDA7t24a6mqobClDsO99gAoGsBY88+a+oq63Cwd1bEBWTyAtunwUhK3cqJs+4g3f3ZOaefccSnD2Vjw2rVyAjayIHGlKR0duHAAAgAElEQVRwIQX8kWndzcPDZUF49sWfwma3IW/fdiSMSUNMfDI2rvqQXQyL7n4IsQkp2LruE/j6+WPitDk4vH8Xxyv0H/MW34fxuVPxh1/9GBazCdGxCVi6/HGUni9CVfkFDoQk8bjyvb9y3MOjT3+bF/sj+3YgLimFxRbt1stKi7HswScQFBKBg7s2w8PLB7lTZuH0icPYuXkNcqbMxLgJU3ie5HYgd0NTUwPe++sroEBCilcgoZSSPh4lhadZEJWXnecAyie++X1o1GrkH96P2IRkzgjZuv5T1FSVDSkQ6Nj7H3uGrS+v//Y/YbFeTikg98KMuXciPTOHLRSll9JDaSH//kQDSO/svhSD4O+mxIdnzShtdcYgkNvhN3PccaDSguIWG7searvsuC9FC0+dAptKzNCrFXg6S4/iFisLhDgfFe5P0aKszYYLrTbMjNFAp1Lg5TwjzDYHvjPRgF6rA4cqLUgJVLF4+OicGQVNzmv66hX44yI37C6z4i/Hby7LZrT9sZb5CoEvm8CwFwi0u6fUxvBEf2i0al6gy87Vo7Opl3dHOoMWidlhcPPSs3uh7kIz6svbODuAAg3J/O/uo2eunc09uHimnmMEKPgxPDEA/mFenI1g7rWwW4DiBej41MnOlMv+g4QHCQzKgKDgQ0rBpO9VlzSx0KDMhMQJ4Xz+qvNNvMMlUUIZDNXnL6e4fZkPWa1SMydadG920KJJu/iEMensLuifOpiVMwXjc6dDZzDwrpzcD3XVlRykSP5x8vcnp2VyJgIFBG5a8xH7yyllkILuImLiYTGZOBXPajFj24bPeLGmxXLWHUs5w4HiF3qNPTh59CAqLpawpYJSLkMjokGZGrSTP7h76zUpgBRv8MyLP8baT97lHTq5JdIzc5ExfiJnRdB59+3YgOrKcj4PZSOQ24FSL3t7ndc7e+ooZzFERMZgxry74OsfwAxrKss5W4OKHlGGwsSpc1mAKNUqjqHYuWk1qioucpYHpVYSw/5j/85NnCERGhHFgZ0UY0BcKACx+NxpDgSlLAZyj1DQJLGkYFESFfmXghTJTTL/rvvZ/UGxG/2zGCg4MnvyTCSlZmD7xs84uLTPihDtpcTdKVoEuinQYXQGKx6vt3GqY9+4I1aDnHA1WwNKWu1YV2xGsIcS8+PUCHRTod1k5wDDXgs4wNFdo8DkCDUmRaihV4PdEJtKLDjd4MxioGDIRQlaUG0wkxXIq7biQKUVXZcyJ2ZFa/B4hhb/fcCIguabf0dv9p2W44WAELhxAsNeIPRNhRZr8g9T1P9AVfxoMSazZ1/2Q38EZHEgO+dARYlIHNC5+woz3TA6jotQsCggs/JoHJSGZ3AzoKujg83sVw/azdICSemR/Z8ZmcBp0abFkBZhem79B4kaisanxXqgYTAY2Ow/2Of0nQcf/yZXYFy/aoXrFCRWKGCTrklxGv0H3SctrmSWv7peBLkdyIVgtdmuCECk75OEJPcJuSX60i1v9F3guBqNFlarxZVRcaPfpe8RU/ru1YPcD3Q/5Gq6+neFNK9WBY4PuJlAQXIjkGigMiIDlTGgXzH6b6DP6Zp6FViI9BcjdN+U5UA1En69v5cFhQwhIASGD4ERIxCGDzK5k5FAgIos0cJNlgcZw5fAPckaXGxz4ES/mIThe7dyZ0JgdBEQgTC6nrfMVggMKwJszbBxKRMZQkAIDDMCIhCG2QOR2xECQkAICAEhMBwIiEAYDk9B7kEICAEhIASEwDAjIAJhmD0QuR0hIASEgBAQAsOBgAiE4fAU5B6EgBAQAkJACAwzAiIQhtkDkdsRAkJACAgBITAcCIhAGA5PQe5BCAgBISAEhMAwIyACYZg9ELmdmydAhYx8/QO56FBLUz0sl7o43vyZ5BtCQAgIASHQR2BYCQQ3Lx3fV2+n2VUBjkot0897u8zcjllr0ECrU6Gn0zRg1cS+iendNFwSmSrK0Whr6OKqh1ePga4pr8dlAtSPgRZfLy8fZkntjqlD40DVLG81Nyoz7O3jj/a2Zi7DPNighknTZi9AbGIKN3qitsv9h97gBj//ILQ2N3D1RSqp7ObmifraKq7mONjwCwjiUshU8ZDmS2WLLRbzrZ7mFeejMsh+BqWzARKAkhbbTVU8/EJvTk4uBITAqCIwrAQCdU6kssfU86Cv9HFfP4WKwgZ0NPUgKNoXfsEeuHimjps1DTaoxXNgpA83VXLz0ePopmJYjNcuBtRTgUYZXfNmas+OgteEdubUp2D2wmXQ6924Z8Kxw/tQfO7kTTV9+ryoYuKSMH7idO7sSK2XrzcSktO4n8K+nZu4ZTKVTO4b1Bdh6oz5OLBnC/dJyJk8CzHxSVj/2fvXFR6Z2VOQnJrBFRlJKPz9z39AW+sX21MjN0yNzGAVPHQKBLgp8Zv9vegwSQ3iz/sOyfeEgBD4/ASGlUBIm+pskETtmMlaQINaLqdOjsT5/Bru5hiRFIjASG8U5lWwVUHvruXj6HsarYqbOVlMNv45WRA8vPVInRKN3R+dGlBQpE+LhkOhQNGhSm72dLuNyJgE6HQ6VJSVcA+Cmxm0c6bui7MWLOPmRmQ5aGyoQ3trM++oyaoQEBQCq83KzYSoc2PfoEXVPyCIzf5NDXXo7Gx3fUZ9Fvz9g2Bwd0dHWys3T+pb0OmaQSHh0OkM8A8MwrjsyTiweyt3c6RBjYoCAkO4X0JTYz3MJmePYDc3dyx54GswG03YvO7jKxb+2Phk3LH4Pm4/TUJj5rzFSErJwIq3X0VXZwefj+aj1qih1enR0tTAfRXo59RcKjwyBnfcdR9e/tVP0NxUfw3CoOAwtq401FVfY1mhro7uHp58TtOle+X3VQH46RUIMCi5cVFjtx1mOxDkroS/QYEoLyUey9Dhxc09aO29ss6gmwYIcVdCo1SgusvGDZL6hk4NBLkp4a4B2oxAU6/dZYGgnghBbgr46BUgbd3Q44DRKuLjZn4n5FghMJoIDCuBMGZiJHe/KTlW41qshxII1NLZ4K0H/fFTqpTo6TCisrARPR3OxdDLzw2TlqYMKhBSJkXxH/Xz+dU337BpmLwpY9Iz4e7h7bob6lDY1FDLoiBr4jRMyJ2OxoZanD6Wh7LSohva/fsHBCM1YzwiouMQERWL/Lz9MBl7UXqhELVV5YiKSeAug7Qw06JeW1OJPdvXo7W5CWSanzR9LrdNpq6MPT093KKZOhSS22B87jTu9KhWq7kd88E921Bc4OxkmJUzlbsRUqMhtUYLtUbDrZdJIIRFRGPW/CVQqzUsCMlFsG/HJl7kaUyaPg/Zk6bjo3f+jIb6y26GoQTCXfc9Ch/fAJ4HXa++pgoH927jRZ1GfFIavv4v3xtQIJBlYcHSB9gV8s4bv4fJ6BQsNEgkTZw6m+e6Zd0nKLtQ5BIQmcFqLIhX8yJPS/SRGiv2V1rRfanLYZKfCj+fYbhGIIRc6qwY6aWCRkXdEx14/7QJNV0OeGkVmBmtwbgQFTc+okZSu8qtyKu2wGYHJoZrMC+Ounty7zIUNNqws9zCbZ1lCAEhIASuJjCsBAJZBihOoKWu0xVfMJRAGDcrDm7eepw7WA6Dh45bONeUNKP2QvMNCQTXNWs7uVPkSBwLly5HYHCYc0UAda204nzhGW69TLvXqNgEbnccGhaJ6qoyHN67A5UVpdedakxcIqbPXcw7aB9ff1SWX4DdasPRvD0oOnuSWxVT2+VdW9fC28cXC5Y8wDv9vH07kDtlFjJzpuDw/p1sbVj24DdQWV6Kle/9xemyWLAUdTVVLFZmzL2TBcuqD9/mXf8LP/hPFjMHdm9BSnoWUjLGY/Oaj1kgLH3gcY6H2LL2Y3h5+2DW/GU4vH8HuyBoEIPlX3sW+Yf38X3QeWkMJRC+8S/fh8HggQ2rP0BgUAi7Nagt85mTR4cUCNSVklwwbu6eWP3h21d0VySxMW7CZCQkpWHvjo2oqSpzMf/pdDc099ixtdSMzBAVxviruX1y0aWWx4MJhOxQNbJDVThSa0OnyYFvTdRjX4UFH541I8ZbiYfTddym+WiNFamBKthsDuwot3AXxe/m6uGAAquKzAjzdFov8mqsqOuSTggj8fde7lkIfNEEhpVAoNbLtLXpv1APJRAyZsaC1oEzey9C56ZBVEogutqMqL3QckMCYaBrftHQb/X5aaeqVKn69IGzDbDF4jJpU3tlnV6PiOhY3HnPI+hsb8ebr7503dug3b3B3QOZE6YgPSsHn77/N3R1trObggL1yHIQGZ0AtU4Lg94NudNmo6TwDO+U5y66h90DW9atZIEQGR0PrV6HksKzoKBHMt0HBFG8iRJp4yawAHn/zT+is6MdP/2vV7Fh1Xs4fvgAxqRlYuqchWwlIIHw3Hd/hraWZhScyuf5ZOVOQ0XpeWxa+xHPhSwAy5Z/nS0Y7/z5966AwqEEwhPPfRfd3V1Y+d5f+bvT5yxCaXEBTp84zCyvZ0Gg61Jba4rXoLbWVw9yp6hVGpjMRtj7xUW8fqc73jlpwsFqK7c7DnZXoKHbgfZL8QaDCQRquRzuqYS3ztn+fEmSBq0mO17JM7Fb4vEMPUw2Bw5WWlHabmPrQC9ZJRTAt7L1iPBWYcsFM0pb7WjosfNnA7VvvtXvqJxPCAiBkUdgWAmEgfDdiECwWuw4d6Ccv06+XbYDXDIGDOViGHmP7No7zhg/CeTr7ht2uw11NZUoPV/gXDgVSiSmjuVdf0hoBO9md2xePeTUaTHPnjSTrQEr3nwVHR2tl86nYKvA2Kxc3u2TyZp29CeOHuDdPfn7vXx8sW39pxy3cPnBONiff99jz0Kv06O9vRWeXt4w9nRzAGBnRxt+/pvX2Jpw+vhhJKWMxdTZC10xCM//4BcsTDo6nPEMVqsV504exaG921xzSRmbxSKBBEJNlfOduBGB0N7ehlUfvHXpVp2mmL5MjaEEwpAgBzjgjcXu+HO+CcdqB86iGEgg0F3Ni1VjabIOnWYHxx5EeClR3GzBy3kmqJRAaoAKixK0SPBTQq0EPiswY1OpBRReE+imxPJULVIClfDQKnCoyoqVBWY09oxMy9nn4S7fEQJC4MYJDHuB4OFrQMqUKFScbUBDRRti0oLhHeSOwkOVMHabQRaE/gLh6ql7+hkwaWkq9n96hoMaSTh8GSl6N/4I/vkjlz7wBELCIlwnIhdD4dkT2L9rM0frz5i3GMHB4Sg8exJ7t69HW9+iPcSlBxMIQaHhePTJb+HArk04fGA3PDy9sfyxZ1FZeZEFwpyFy0CBexQUSBYEygagHf/h/buQPWUmMrJysebjd1BfW82ihTIQVrz9GguEH//qj9i27hN2E5AFYcqs+dizfSNbEJ751o9RWlKAnZvXsLVAq9XDYjXDYr4cpUdBkc9++8eoLL/I16ARHZeEO+9+CHu2rWcGFHAYFhmND99+nYMRyYLQXyBcjSUuMQXfeP4HeO23v0BDfS29QOy+oPeILAcuC0JPDxx9ypTFqoKDNClmwmTqvSKz4tWF7vjwnBn7qywI81AiJUCFc402VHU6zf0Jvir8x0wD/m1rDxopSNEBXtQfz9ChudeONcUW3v2/OFHP99EnEPQqBSx2B4sDEgOJfmr8en8vxyq4axQcm2B3ODAlQo25sVqsLDTjeJ1TpJAAifZRoddiR323iIZ//jdTziAERjaBYS8QDB5aJOVEwmazo7m6HWHx/uhq60XpyTpYTNYhBQKlOZJAaKpuR3t9F8xGK1rqO0dsQOLNvm45k2ciJCwSRw7u4voAfX75GzlPf4Hw/puvovOSBYEC8x76+vNoaW7Ekf07EB4Vhykz5+PksUPYsu5j9rtPmXkHx0GQ2X3qzAU4fTwPm9d9gvTMHEyfu4gFQHtLMyZOm8vBfO+84bQgPPn8D6FSq3Hs0G7EJIwBZWFsWv0hCwRa2BPHjMXurevg4+OHzNypyNu3HUcP7rliOnMW3o2cKTPx8n/9hAMrKSti8b2PoLuzA+UXzyMzZyqqy0uxdcNKDiocSiBQDQVyb5wvOIPqilJ0tLei9Hwhenu7Oavi/kefgbevP17/3S9g7idWSBRNn3MnMsZPxOqP/o7S4nMu+fDtHD3cdQrsr7Twrp/cDB8XOE3/NHz1CvzXbHe2MFxotaGl14GKDhuWJmsR4KbAzosWaFXAo2N1uNBqx8t5RkR7q/BAiha1XTaUtdkxOVINqgLyp6Mm9FodeDHHwALmSLUFSf5qRHkrOe6hoMmZveNvUOKVhQbsvGjF307cXMbLjbxPcowQEAIji8CwFwgUre4b7IHwpABo9Rr0dppQca4e3e1GNm3Hjg2GzepARYEz4nygERLni5BoPyjVSv4e1Tww9Q5eQ2FkPcLr3y0t8rTDvBlh0HdG2qXTghyXOAa7tq67Io2R3AvjJkyB3mBgK0FnZxtbBI4f3s8Lfmb2ZCSmjOUddGNdDXZsWo2urg52hUyeMQ/hkXGcqtjW1sTxErToU5pkdGwips1eyNkEVCCp12jE2eNHUFVRCnd3T7aGUHaE3WHnlMUj+3ehp+fKIkokCJ799k+wcdUHOJa3l8+VmJzGMQt6gzsXTCLrCqVmEpu5i+5GT3c3Du7ZOijM3KlzkDQmncULZU9Q5gW5T9w9PDhYklwsK9//6xWppFqdjq0niWPSsWf7BlSVl7qsVxGeCixO0nKgILkL9ldYcKrBxsGEfWNWtBpZoRoWAuVtNmwqsSDQXYlZMWpOZWw32dk9YLQAq4vNcNMokBOmQk6YGnq1gl0Q2y+a2TJBcQZpgSrMi9PAU6sAlQTJr6UMh8uZE7NjNPhahhYv7TOiqOX2S/m9nX6vZS5C4MsgMOwFQh8EEgr0n8NGpt0vA41cYygCtPhTFD+Z6WnBvnrQDpriH4zG3ivcOiQ8qM4BxUpQ0GN/szydQ61ScYojfW+gQdckg7jReG1QYN/x9z3yFGdFbFz9oesUlHJJ5n4SJv0LKQ01z6E+p3PSK0mpmVcPEmhU6ZFSOK92bVFqrlYJUCmCm6nRRbG8JBpMNnIXXHt3GiXYxUClRK4OQKRrUqAjXa+/GKGzvEhWDa0CLx3oHfC8Q3GQz4WAELi9CIwYgXB7YZfZfNEE/AOD2bpRXXE5tfCLvuZIP/+dCRpUtNtxplGsByP9Wcr9C4FbQUAEwq2gKOcQArcBAbI8UEElqYpwGzxMmYIQuAUERCDcAohyCiEgBISAEBACtxsBEQi32xOV+QgBISAEhIAQuAUERCDcAohyCiEgBISAEBACtxsBEQi32xOV+QgBISAEhIAQuAUERCDcAohyCiEgBISAEBACtxsBEQi32xOV+QgBISAEhIAQuAUERr1AoOJLSqUCtpupVHMLwMspbh0B6nkQGBzKvRnq66phMX+5ZYKpAJNKrRmwm+Otm6WcSQgIASHw5RIYVgLB3UfPDW64jLLd2QjH4KmFWqNCZzM1wgGUKiWoAVNvlwnm3oE74RFC6uFg8NRx9UUarbWdV7SR7sMcEO4FL383VBQ2wkql5wYYenctNDo135edEsWHGCq1EjqDBj2dN79QUctqrUGD3g4TrNSC7yseKpUaAUEh8PH146qItAC3tjR9KQ2v3D284OcfiNaWRnR1dgxKgioVTp01H/HJaVxeuaGu2nVsX3tpKpFcW13B963T6bmrZGNDHfd/GGwEBofB1y8AKqWSv1daUshVGK8eVHaa+l1QMyiTyTjg6ajFNbXPrqks46qKQw293g0eXl5oaqgb6tAv9HNqKx3mqeTqizSKW2zoGR1Vyr9QrnJyITASCAwrgRCfFcYL+sVTdbBZbPzv4GgfBIR7o+hIFTdn8vAxID4rFBdP1qGjZfBSu/7hXgiM9IHOoObvHNlYxI2arh4RyYHwD/NEwcGKAT+n40Pi/OAT6M73dSM9HLwD3RCTFoqTuy7c9DtA8/UL80JlQQO62gZebG76pJ/zCyTQgkPCMffOe6FRa2CxmHHs8F4Unzv1uXo73OxtxMQnI3vSDG7s1Ne6erBzUMdFauZ0cPc2nD151LUIa7U6jJ84jfs3bF2/koVGZEw87rjzXi7DTKJhsEF9FJJSMuDu7g4f/wC89drv0NbadM3h1B+C7vWjd/7foFaEydPnISI6Dus+fe+KnhaDXZtaTOdMnYUP3nr1ZrHd0uPjfVXc+ZEaRAV7KPH6USPK24cWybf0JuRkQkAIfCUEhpVASJsaDSgVKMqrdO7mFYBvsCeSssNRdLgKbQ1dvFhHJAXg3IFy9HQ4d3N6Ny0MXlr+Dv2M3AW0E9e5aeHho0f6tBjs/ugUTP22Pmqtir9H1gGVRonGyvYrrANkBXD31vP5/cO84B3ogcK8Cm4xzdd0JwuFFlaTjS0FdE06j8FdB/8ILyRNiEDeugLuG0HCpu97dF43Lx2UKgW62661EoQnBiAoxgcX8mvQ0Ty4ALrRt4UWLtoxl10oGnR3O9i5lEoVxo2fiBl33IVdW9Zyc6KWpgbeddOO2tvbD0GhobBabdzAiHof9A03dw8EBoVwsyZqkUwdEPsGLdq0o3bz8EBbazNam5tcCzr1aQgJi+Iyyb7+gdwJ8cDurdzNkYanlw+CQkK5hwN1p+zbsRsMblhy/2N8L5vWfISe7k4+ns6Xkp7FDaA2rf0I5aXnMWnaHIyfOB3v/u1/0NHWysf4BwTBx9cf3T3daGqo5fPT9el6EVGxWHT3g3j5Vz9Bc1O9ax7UyZG+Q8fptDrkH9l/hXCiplXU9praK6ePm4DQyBhe8ImT85rBbJnp7uliSwFdk75D95IydjymzlqAt177b2bd2dmO1uZGvjYdQy6VPosONbnqP+ieyPrS1FjH3Sz7D+qPQc2s2ltbrngmdAx1lIz0VMJsB6o6bCADHbWYDnRTcEvqh9J1+J8jRpxvvtKyRX0hQtyV3ASqoceO5l6Hq5cD9Y0gYUHdKXssDtR1ObizZN9g4eGuhNXuQG2nAx1mabRyo7/bcpwQ+KIJDCuBMGZiJM+3JL/GZV6nRTo5NxL15a2oLm5CwvhwXvzPH6uGudcCchHEjQtl94NCATRVtqOyqIkXZf6j5+eGSUtTrhEIviGeiEwOgMFDx4v7yV2lru+QO4G6RwZF+vCCQ/+fxMfZfWW80AdEeCEu4/I1GyvaUVXcBL2HBrHpIfD0c2OrBbWVdtjtaKzqQPmZehYsUamB/Bndq93mQGFepUs80P2GxvshIMIbZafq0Nk6cLOiq1+KtHHZ8PDyIT3Fg5og0eJJooA6GOZOnc0L+4nD+3Hh/Lkb2v0HBoWCTOdhkTEIi4jmVs602FwoPouqiou8Y541fyn0ej3IjE8CgTo2Njc1sEtiyqwFCA2LBPnnjUYjm/6rKy+ChEPulNkYk54FlUoJq9XKnRULzhyHzWpF9uRZyJ06Cxazmb+rUCqxbcNnLBBoBz530T1QKhRQqlTsSiDh0tnRzvPOnTYHE6fMxkfvvI76uhoXJucC/xCO5e1Dft5eLHvgcej0Bqxd+S7v5sdlTwbt8GnRpsX43Kl8bo/dJ3hoN//1f/neNQKBhAfNhVwBFosFb776Es+nT8hMnnEH4pNS+DM3d3fm8O5fXubzknVi0vS5rmuePXUMRw/uZkExc95dCAgOYeFRXXGRz3nu1DHmFBAYjKmzF7K4IAsbWXXWffIPtDQ7LRvEl1ptj0nLwoZVK7jjZV+TKHIXpYzNwuwFy3Dy6EHs27nR9S4k+KqwPE0LjQLQqBUoa7VhVZEZTb3OBTvcU4nvTtLjz/mmKwQCiQrqApkVooKK7sfmwOoiM0432Ph3cnqEBnfEa7g5FL2fZxtt2HrRjDajA+mBatyfquXz0z2SsKDvVnaIheKL/sMv5xcCN0JgWAkEWuxpt9VW1+WKFyB/fML4MNjMNpSerEXKlGh0NHajsqiRF/bk3Aj+Q1Rd1AT/UE8ExfjycS21zh3kYAKB4ho0ejUCI7wRkRyAo5uKXS4GD18DUiZHsdhorGxD7NgQ6N11OL33Ii/mfE0HWLCQdSEo2gcXTtSio6mb4wcCI7yQnBuNA6vO8D1YzDYWM6Fxfnx/9L2eDiNSp0ajrb4bJfmXfeaevgaOnSBryUAukYEe6qJlDyIwJIw7HNKgroLnC07j8IFd0BvcEB4Vy+2XqZUymdQP7NyM8rKS674fMXGJ3FrZy8ePd8nUqph850cP7eXFmhYZ8tFv3/ApvP38sOS+r+HQ3u3cMnnStLnImDAR+3duQmtzMx54/DnUVVfiw3de553v7PlLUVleitKSAsxZsAy0cH264k3e9b/4o/+D6qoy7N2+ESR8xo7PxeY1H/M173noSXh4eWPDZ+9ze+UFdy3nRfVo3h6eCy2ey5/4F5w8dpBdDSSUaNBCu2DJA7xLP7J/J+595CmUFJ3l+6UF9oHHnkVPTzeOHNiF1Izx7FbYsu4TFlg0BhMIxNbdwxNpGdnInTYbL//Xj7l1NY2o2ATcde+jOJWfhwtF5zBv8b1w9/TCO3/+PQsEumZ3dxfff1pmNhKS0via9Hw8vbxZnM284y689ttf8Ltm7O1m98ik6fOQnDYO+3duRkd7Cx584nkUnz2Bzes+4etSZ0liH5uQwvzraipdz5lcRvQukGWCRNDpE4dpZebP/zVHD0+dAm+fMCHYQ4HlqTrsuGjBtovO+QwmECK8lFgQp0Fpm52Fw4NpOphsDvz1uInFwvcm6dFrVWBlgQl0LFkLjtRYUd9tx5PjdIj3U+FPR4zcqnpcsAqFTTaca/rqY29u5I+nHCMEbncCw0og0B8wGv3b4lJQYkSSP/xCvFB9vglRaUEoO12P5hpn0BqZ7CnIUKNVwc3HwAt2ZWEDGsqdwWeDCYS+B0uLe/y4UBzbct61IHsHuGPMpEgUHa5EW0M3olKD4B/qhYJDThdD/2u6+xhcMQMNFc5r0jkzZiZg2ztHr3h/yNJBlov6iy1srar+h6kAACAASURBVAiJ94dGp8LRjcX9/ojTPxU3FQRIZvy+YEwnQKcVoW83S1xp4QiLisbdD34Dvd3deOOVX1333abdtFanx/jcaWzm//gfb7BrgUQCtUrWarUsOAwentDrDMieMhMlhWd4kZt3573w9Q/A1nUr2YVA/n+dwYCykiLeMfv6BiAkPJJbOo9Jz4SPXwDe/9v/sCXgZ79+lXf2tMNNTh2HaXMWYt/OzSwQnvvez9HW1ITigpN8b+MmTEbFxRJsWuNs6UzzXLr8CQSFhOHt137Liz8Nag9NLgaybBSeOYnJM+Zh46oVLJLoXXN3c0dUXBI0Oj3fa1xCMnZuXoPCS26NwQRCH8DMnKmYu3AZXvnNT10CgQIm5y66G5tWf8j3SEyi45Ow4s0/sUBwd/dAVGwiXzMsIootMjs2reL4DhoTJk7H4nsfxf/+0TeveE4Lli1HeEQMCk7lc7trcpXQ8/7bqy+5jiOLDrmH6Pk7rmrDTRYZtUoNm90Gu+3yQvybuW7YW27F+hIzqGlTiIcSJqsDDT3XtyBQDLC/QYFwDyW0KgVyw9Ugz9wf8kwwWh14YYIB0T5KFhrFzTbUdtlZQFCb6odSdZgbp8GG82acb7HhYrsdRovjmhbVt/sfYZmfEBiuBIaVQBgMEgUcxqQFc3yB1qBmC0FnSy9vmLMXJLHJvqO5GyqNCmq1ChdO1qKh3Onz/lwCIdAd5O4g8397YzciU5wCgWMQeswDX/NEDW5EIJDrwpkN4fzD29XWg5Jjl83hn+dFycqZAi9vP9dXSRzQTpR2yX3iICk1A9NmL0JAQBD27trEEfdDDVposifNRGbOFKx481V0dDiZUlT/3Q8/xb59MvPTTHx9/XHi2EFsWfsx7lh8H7x8fLFt/acct0CiwCl67OzPv+/RZ9hq0N7eAi9vX3ZdvPPnP7AA+flvXsOqD9/G6eOHkZQylhf2/ZdiEJ7//i84NqH9UjwD7dYLTufj8P6drqnQ7posDe/+9RW2evSN9Mxc5EyZha6ONt7Jr//0fTTW10CtUuGZ7/4cvj7+aGyshU5ngFqt5oX9nxEICclpmLPobmz4bAXfx9wFyxCdOIZjEMzGXjz73Z/D28cfTY21LGCIB7lhis6dvK5AIFdJRtZEtLY2u+I2aqsq2Kryz4z/O9eNF/EtpU6LwaXkH1csQZ8F4Y18Ey/0LMgAJPur8FSWjt+zpm4HAt0V6DDZ8d8HjRxzEOCmxL1jNEgJVIEyIo5UW7GywMKxCnq1Avcka5EZqkKQmwJVnXa8e9KMopbLwqXPbSaRCf/M05XvCoHPR2BECATy6ceNC4Gbl55N75RNQDt5Souccncajm0uQmtdF+/Oo9OCUX2+2SUQyGQ/aVkqDq46i55OM5tU7ZdSKGnXHRTljdiMUBzfVsIWBIoZ8PR3Q8qkKI6FaK3vRExaCHyCPHDuYDkHIk5Zlopjm4vRWt8Fv1BPRKUGs9ugTyAERnkjc1YCdq44wT5esuJS2mZMejCLGRI4vd1mToWktMkbdSUM9ojvvPthBIWGuz4mX35xwSnk7duBuMQxmDZnEfz8AnnxObBri2uBHeqVGUwg0A790adexMHdW5C3fycv8mQyryi/wAKB3AbBoRHYtvEztLc2cxYBxRMc2ruDLQ0ZWblY+8k/UF9bg9nzlyAuKRUr3nqVBcKP/8//8E76WN5eti5MmXEHdm/bwBaEp//1Ryi/WMKxDnRv5G8ncdHbezmYk6wpT3/rR6irrsJnH77lmqIzZmIJBwCWFJ7Fjs2r2GJBu/onnv0uPnj7NZQUnWMfPV1z746NLoEQmzAGT77wQ/z5D7/k2A56pmRJIeFDsRDjxk9md8Drv/sFLFYLx1LEJIxhobRj42cou1CMOxbfi7CoWLz/tz+yO+jxZ76DD/9O1yxgtwbFQOzZvsElEMhys+T+r+Gl//gObFYbW4TIckPn9Pbxw/ZNq9DZ3sYuF6vF7EoD5dRggxtbWLq7Ojj+of+gAFEKDjX1Xsntl7PccKqe4g5MHJg4MVyN+i4Hjtc7YypCPZT4/iQ9/nHajIImqzPlGArMiVUjK0SNt0+a2G1w3xgt4v2UeCXPxAKBghNJC5ttDkyNUGN2jBYfF5hwst7GgoGESJfZgWhvJb4+TofjdTasLHRafsigGO2tghIOdmHIEAJC4MslMCIEAi2kcZmhHDh4/mg1KgsbeWGln09ckoK60ha01nXyYu0b6onSk3UugaDVq5C7OBVtDZ0cu0Bpis21nXDz1ME70J0DCikOoaKggQMjaZEnF0LyxEhYjFaOZaDMCdo1UwwCLfQTl4y5dM0u+IV5sjApPVHrEgjk8pgwPwmVRQ0wdpnZ2tHe1M0BlWSNIDFD90HukqaKNo5f+KJGVs5UTlU8fmQf5/3T4najo79AeP9NWsAvWWW8fbH88ed4UTp+eB9nHdDunPztW9Z9zP7zKTPno7y0mLMMcibPwokj+7F902peDGkxJQtBR2sLm8jJKvDOGy+zQHj82e/B4OaGE0cPcDpieGQsZyVw3MPCZUhJy+I4B28fX6RmTMChvduQf3j/FVOaOX8JJk+fi1d+8zP0XsqsoHoKlAaZPi6Hd+pHDu5mFwRlU3zjhX/DudP5KC8pQlLqOL7u5jUfuQQC1UJ45ts/5fnUVpVzBsD5wjMIDotAZFQcQiOjkZCUyuKLzknn0undcNe9j7CLpaqiFBkTJoHqNVAMgpubB77x/A+c1yw9j+SUDA7AJFdJ0SUXA6VtPvzkCxxY2tbSjMqKi6i4eB5jx0/kwEhy55CLgeIJTuUf4kBOGhR8OXPeYn4Gn33wFi6eL+DFnK0CShXHLyy57zG2uuzets7lylqeosOEcBW2XLAg2E2BtCAVVhdbcLjaKRDctQr8a7YeVJrjXJOV/ze/1sqWgYUJGhyssqLNaMecWA1UCgV+e9DILobnJ+ihVgEn66wcb0AxCB+fM3M9hUfSdUjwU2JPmQU+BiWyQ9XYWW7B9ktxDyQgfjxNj9ZeB1468NWm/N7o74wcJwRuJwIjQiBQpcOASG8ERvmgqqgR7Q2X07pCE/wRFOHNfwRpV269tKjTgtw3KCaAMhKUaiUHB1aca2CLQEisr3Ob0m/QQk9piyQ2QmL92Cxu7LZwXQayTFDswBXX7DLDarKiubYDHU3OnSzt4qJTg9gSQYKisaod9WWtHLVPc6AsCAqS7Go3ouIMpbd9cUFZtMiTn/1mhEEfDtoh00IVHZfEEfTGfjv11LHjQWZ7CtSj2gAkFig9kEQC/Sw9MwcJyakcZ9BUX8tBh93dnZw2mD15JsIiYmCxmNjCQLvcA7u38PlpoaQgR41Wg7bWFpiMRhSeOY6aqnK2GFBmABUloudCO/PjR/ZfU1cgICgUz33npxwDcfiA0/1AMRNpmTmIT0zhtEk6X9+gbIK4xFQO3qBr0n30XbPvGBIy8QljoFSr0Vhfy8GFMQnJSEnLvOIdogDR/bu3oLmxAWNSx7EgslotbK0wm804sGsziybXNSkot60Zxt5edpf01WWgwk4z5i5GYHAIxxIUnT3J9R0oZZVEQnxiKjRaLQdeUjAipUE656njz2MTknmeJGj6YnroeZL4mTh1LluYTuYfYosZDVqMFyRoOM3RYgfONFixv9KK/q9meqCKYwzIwkDxCZ8VWmB1ODAzSoMYHyULAsp6oAzljSVmFhHkgpgZo4aHRsHnOlFnQ36dla0L5LagDAeKYaD6Y2Vtduwpt6DF6JQ0ZJl4YpwWK06bkVczdHGp2+kPs8xFCAwHAiNCIAwFigQEuQtudbnkvsA/WuSvHnRNso/aP0eJZv6uQnFDVRmHmvtX+Tm5DchnT0F39quC4Xix0uk4V99I1QUvRcvTzzkAUqtnszmlMzpce1znbEjUUFDlYFUJaZEkD7jJNHga6LLlT/BCv3ntxzeASMELKwk4o7H3pgJEr3dykp60iJNLi0RC/0EiUqOhehhKdpP0D8y9gRtmwaNUqtmKcO27SUGKSnaDXH1eui7FOxD7gUQjVUyk151Ewo0OijDRXOd79LpTrQT6VRno10Wvdl7z6kKm94zRIjXAmeXQbpIohBt9HnKcELhVBG4LgXCrYMh5bh8CXLxIp78ize/2md3omAnVViBdeabRNqCwGB0UZJZC4KsjIALhq2MvVxYCQuA6BKgKI9kNBjDgCTchIAS+BAIiEL4EyHIJISAEhIAQEAIjjYAIhJH2xOR+hYAQEAJCQAh8CQREIHwJkOUSQkAICAEhIARGGgERCCPticn9CgEhIASEgBD4EgiIQPgSIMslhIAQEAJCQAiMNAIiEEbaE5P7FQJCQAgIASHwJRC4bQQCFbnhlCgqySZjVBGg4j/cMVKvR3VlOcxUmOkmB3U51Ol0zt4YZtNNflsOFwJCQAjcfgSGlUCgvgjUIq6rtZdLFNMffjcvHdRaFfdRIAHArZYD3LlksqnHWZ2OPo9MDuROi3WlrTddlW6wx6p310LnpuHui9ary7zdfu/CgDOikr/Uy4F6GVB1vprqCjQ31t8yxtfD6OnlDSqbTOWEqU/DYIPeE+r9QN0fN6z6APW1Va5DqWpgcGg4d2isLL/IJZqpX0F0bALqa6u52yQNKgE9afocNNTXcp+I/q2Qh8ujpsZHkV5K7oJI41yTjRsdyRACQkAIfBEEhpVASBgfxiWTL56s48ZJ9O/gaB8ERvig6HAlzCYrPHwNSMgK4+ZIHS3OMrMavRrxmaHo7TRxn4V+VX3/KWZ0bX9q5HSugUXLaBu08FLfg/l3PcBijXbm+Yf3cR3/z9Pb4Wb5URdF6tuQn7cXF4rPXffr1HuA7pM6WNICT2WGaVAJZeomSU2fqJEU9USIik3A/MX3Yd1n76OuupKP8/H1x9xF96Cmqgx5+3ZyKeLhNuJ8VJgSoUaAuwJhnkr8v6NG6XI43B6S3I8QuI0IDCuBkDY1mvsbFOVVOnfsCsA3yANJOREoPlLF7ZVD4/0QlhiAggPl6OkwcVdGrUEDrUHNTZU6+jVpYvGgU8HD1413hF0tRthsdm7ZrNWrYTbaoNEqefGj75K1wmy0wHKpQ014gj+CY31RcrzG1YhppD37+ORU6HUGlBSf45r/NzOo+19m9iRMm3Mntm/4lBsZ0Y6b2ghTjX9aVEPCIriZEDUZ6u7qdJ2eWgqHhIRDo9WhrqbKtVPnRVunR1BwKDw8vdDS3MiNjfoWdLpmWGQMtyz28fVDelYuNx2ibo40vHx8ERIawX0a6Lx9c9LrDbjr/scAhwIbV69w3QtZPcakjcP0uYuxee1H3OBp8ox5yMyegvf+9kd0tLciNCwKHl5ebEWghlMVZReuwOS6ptGIulrnNalxFN1/e1sryNJBnRrpu+Tq6GhrRVdXB5+DOkHSeRvqa65odkWfkSUjNCySOz7Sf/0HNU+iFsjUE6G8zYYeK+CmUcBP7xQHj4zV4vWjJhQ3267oZEG9FKg1M32/rtuOph4Ht1umQZUJQz2V3Byp2+xATZeDmyb1jUA357mpX0J1hx1t0v/gZn5d5FghcNsRGFYCgVosK+BASX4tWxBouHvrkZwbye2bq4qbkDghnMXA+WM1MPda+P/7h3lxU8aGinZcOFHjekhkbSBxQSYFilHo7TKh+GgNtG5q7tTYVNXO36W20SRAMmbFoux0HVrquvgc1OY5MNKbf0Ytm4froFbCXl6+rtuj3S8tZKXF55CVO407IFLHxfyDe1BceOaGdsdBIeG8iIaER/IidubEUZjNRhSfO4WKshLEJ6Vi7qJ7ueuiWqVGQ10Ntqz/hN0BgcFhmDHvTrY+aNRqmC0WrP3kH6gsuwB3D09eoFPSx19qKGTD3h0buFMhCY1J0+dh4rQ5bK1QazQsRLau/5QFArkF5i9Zzm4Cch001tdg24ZP0dHudD9Qy+nJ0+fho3deR11ttYtHeGQM7rz7YeQf2Y9jh/bg7uVPsHBZt/Jd9Pb24J4Hv8FdDmmcPHaI2yD3jei4RCxYspyZ0TUb6qqxfeNn8PYNwLjsSTh19BDGZU9mQbPy/b/ha89+B/t2bERJ0VkWEdNmL0RaRjbWffou/6yveRI1pEobl415d96LE0cPYteWNS6rTLKfCg+P1fKCrlMrUN5mx0fnzGjsccbXUBfE70zU46/HrxQIXjoF5sdpMD5UTTqbSxR/WmDC8Tob/3tWtAaLErQw2x2gBkvkothQYkZLrwMZQWo8nK51igkH0GZ04JNCM8rahp8lZbj+Hsp9CYHbjcCwEgjUYpn+gFI7Z+qAR4OsA/FZobBb7Cg9WYfUKVFoa+xCVVETd2/U6NQsGGLSgvk7BQcrXM8oOTcCOoMWRUcqub1yypRo1F1oZktEdFowWmo7ERTpDQ8/A45sKsaMB8bi4OoCjm/oEycGTx2odbTFOHzbzd5590MIDAl3zdtmtbIb4PD+nWxip0U+e9IMJCSns3DYu3U9LpYWXfddjolLxIx5i+Hl48eWgqryUt7lHz20lxfruQvvhq9/EDat+RA+fv6475Gn+XrUFpoEydisHOzcvAatTY145OlvoamhHu+/+UcEBYdh1vyluFhSiJKiM5i/5H7o9G5Y+d5feNf/nZ/8GmUXirBry1puW5yVOxWb13zM17z/0WegMxiw5qO/w9vHD3fd+xjyD+/F4QO7eC4UJ/HQ15/H6ROHsX/XFlccAe3i5y95AC2NDThyYBfufeRJFBWcYneE1WKBu7snvH39MH3unWxR2LjqAxebBx57Dlq9jq9JHO6851Hk5+1BdWUZ8zlz/DAmTJ6BgMAQ/On//hw/+I/f4c1X/xu11eWg+A1qe02ukkN7tl3ROIrdN+GRmDprAQrPnMSZE4dd13wx1wCDGngj34ggdwWeGKfnNsibLjhjbgYTCBGeSiyI16Cw2YaiJhseGatj4fxGvolbMf9wsh6dZmDFGRMivJQcz5BfZ0Ndlx1PZeoQ46PC7w/1sqUiO1SN8y02FhEyhIAQGJ0EhpVAGOgRUDvc8ER/3unXlDQjKiUQpafqeHHvGxqtCvFZzviF/gIhe2ESuw6aqtpALZZD4v3R3dbLQoPiGCimgYIeyUpwZk8ZchYlY9u7+c4OMSNo0GJz9eAp9AvG4Ej/iCgs/9pzMJvNeO23vxhyhrTAZU+aiczsyVjx1qscKNi3A1YqFIiJT4a3XwB0Wj2yJk7lOIEtaz/mXTGJhq3rV6K9tYUXT727G6rKSslrBC9vX0REx0GrNyApJQO+fv5s7qfz/+zXr2HNJ3/HqWN5SErN4B04LfYkEL75/f+F1sZGXCg+y8InPSsHlWWl2Lj68oK+9IHHERoRjTf/9BIsFjPPkUz5tBAHh4Sh8OwpTJo2B+s/e+8KVwK5Ae5YfB96e7uvEAjP/+AXbBUhawy1r07PzEXFxfM4tHc7WxaaGuvgFxCI2MQUfPjW63j06W/hpf/1HdhslxdWYj9YO+eBPvv1XDfsKbNg4wULVEogwEBmfweae50v5mACgT7z0SkQ462EQa3A+DA1fPTAy3km9FgdeGGCHvF+Kuy4aMG5RhsqOu2wXPI/PJCiY3GxtdSCgiYbiltsLCpkCAEhMHoJDHuBQI+GxEFMejB6O83Q6FUoPVl7hcn/egKBMhwoVoHWSgqsa6np4EyHuMxQePrq0dVmgqe/Aa11nex2OLSmYMS9DRMmToe3j7/rvm12G2qrylBccBpkyqYFkiL8c6fOhbe3Dw7s2co7/aEGfZcFQs4UrHjzVXR0tPJXKCPgnoefQnxiKupqK0Hb1MDAYJzMz2OBQAst+e23rf+UYw/IVUALIe3Wo2LicfdDTzotRW3N8PEN4J+/88YfWCD8/DevYdWHb3OgId0zC4RLMQjPf/8/2DVAcQs0rFYLis+ewrG8Pa6pJKaMxb0PP4UP3n4V5aXnXT+nnXzOlNno7uyAwd0dGz57H431ta7PBxMIL/zbf/J8W5qbXNcsOnMCp/LzsHDZg/APCEJzUwPCImJQWXYesfHJeO33/3sotNf9/Ddz3LCrzIpNpWYWVBqV011AsQGDCQQ6LtlfhW9kamF1KNDU7UCIhxI9Fjt+e9CIbosDfgYlliZpkByg5FiG0w12fHLOzLEKlBmxOEGDjBAVgt0UaOp14P3T5issCKRD6TrSXfGferzyZSEwYgiMCIHg6WdAbEYoPHz0aKnrxMVTda4UR7IAkAiIywhlCwJlO9DiY7c5kDknHl2XLAb0x43SFi1mG8cuRKYEIiIpEPVltICp4RXoDmOnCWf2lY2Yh9d3o7QgBwaHwvnnG+wKuFB0FkcP7UFCchqnAFJAHQmGw/t2oOM6KYP9Jz+YQAgKCcOjT72IQ3u3csQ/iZP7H30a5WUlLBBmz1+KsIgobNu4igUCuTfIEnRw9zbOShg3YSLWfvIu+/PpWDLBv3/JQvHvv3wFe7atx9FDuzEmPQuTps/F7q3r2YLw1As/ZNP+to2fQa3WwMvbBz3dXejqdAYE0tBoNHjyhR+yS2Pl+391/TwmLoldGwHBISwqdmxeja7Odv6cBJSnpzdmLVjKgYTb1q9khhQT8dQLP0Jl+QVs37TqmmvSvWfmTsXpY4c4EDEsOhb11ZX45L2/8HkpcJG4G9zc2JJCgZX9BwVWkgvHOQfnvdD4xQw3FDXb8GmhCR5aBSZHaFDbacexOqebixb+703S4+OzZpxutLkMRbNi1MgJU+PtEybUd9txb4oW8b5KvJJnYoFA3yOLQa/FgckRasyO0XKcwYk6KwLclBzz0Gq0I8pLia+P0+FkvQ0fFzitMPT7k+inggoOFDRLrZER90dCblgIfA4CI0IgUBBh3LgQhCcF4vyxalQWNroKIlEsgVqthH84RZID9eWt6GztRVt9F8Li/REc54fa881Q61QIivFB5bkG1F1sRUisLwc4lp2pg81iR/KkKE6dLD9b/zkwDt+vZIyfiMCgUN7xNjfV31R6Yn+B8P6b5GJwWhBoMXzgsWd4waPzBgWHIzNnMk4fP8KphKnjJmDazAWoqXYWLcqcMIXFCgX/paRnYeb8JSg6exIdbS0cZ0AL9D/YgtCOR598EZ7ePuyTp2wGCnTcvNYZg0A+/7RxOcg/tAee3t5IHDOWMxxOHjt4xQOgjIWps+bjjy/9nDMuaPj6B7JlgywJGz5bwcGKfS6IOfOXQmdwQ1xiClszKDaChAjFSUyaMY+DCY8d3MOCJGFMGvbv2opT+Yc4KJJSI3dsWs0Bl4uWPYSt6z/Bvp2bXMJjxtw7QUGkqz98m0Vbn9Gejk9OHQdyiVBcxM4ta1xuiHuStZgYoea4gwCDAon+KqwutuBojVMguGmAb04w8IJOWQwWuwOHqqxI8FfhrkQNjtVaOchwWqQaKqUCvztoZBfDN8fr4a4FztTbEO2jZIvCygIzuxOWp+iQEqjCoSozvHRKZASrsbPMgh1lzrgHH70CP5qqR0uPA789ZLxlqcTD9zdH7kwICIERIRAofsAvzAsBEc44hI4mZ/0DGimToqCgv5T9RltdFxoq2wA7EJroDy9/A++u2xq6UH+xBVaLnespUJ2Dxqp22Cw2RI4Jcp67+fK5b4fXQ6WkPZ/jpoRB37xpEYuOS+J4gSP7d8FovMyGYgdSxo7n6H1K0aOFmAoonTudD9oZ0+4/NnEMNGoN+/AP7d2Gnp5u3lFnZk/ldECLxcQWBlqUaZE0GnsRFhHNFgeNVstplSRCzheeRn1NFQxu7siZPBPBoRGcyVB+sYRdEbTr7z/8A4Lx3Hd/xgs3XZcGnW9MWiZi4pP4WpQi2Tdokaa59h+UDll49jhbAUgIULEoclFV0DVPOK9JtRVSMyawmCEXirNmwz5UVZS6rpk6djwzdF7Tad2iQZUbwyOiMWHSTJSeP4czJ464PvPSKjArVoMITwWnORY22nC4xopL2bf8/TH+Ks5WoAWfMoLXF5tBIQNUJ4HSIymmtrnXzp/tLKPvOpDgq8SUKA08NeBznWmwsZWg1+q0LsyKVnMKJIUlVLQ7cKDKwkKDxvgQNb6WocWKM2a+FxlCQAjc/gRGhED4Zx8DCQyyvpPbQcatI0Bmfgrc6+3pHjAIj+IFaOE1Gcm0fpk9/Uyj0XHqIIkDEjD9B1kuyO9vMg1c8pgCFGlBvtpk3/8ci+95hEsmU6DkrRhUhtnhUHCq580MqutAri+qw3F1oCLNgVInKWbEYb/WbK9VOeNMSSTc6BgoZqH/d+lXQaMEi4C+mIb+n1MdBXoaVxcOvWeMlkXJ60eNUh/hRh+GHCcERjiBUSEQRvgzktv/HAQobZGERP9AxM9xGvnKJQJpgSr+F8VGDCQsBJQQEAK3HwERCLffM5UZCYFbToC8eNwMTYxwt5ytnFAIDFcCIhCG65OR+xICQkAICAEh8BUSEIHwFcKXSwsBISAEhIAQGK4ERCAM1ycj9yUEhIAQEAJC4CskIALhK4QvlxYCQkAICAEhMFwJiEAYrk9G7ksICAEhIASEwFdI4KYFwvUaz3yF85BLCwEhIASEgBAQAreQwDUCAQqqnpcI/8Bgvgx16KNKeDT0BgNiE1K4ME5NlbOMrgwhIASEgBAQAkLg9iOgyMrKclD7Xxo2ux1KlZprx1Nd+vikVO56d+LoIa6E5+7hhelzFiIkPArHj+zHuVPHYLn03dsPjcxICAgBISAEhMDoJaBYsGCBo6GhASQSSCBYbTauee8fGIT7Hnkau7esx/FjB7jmq1Klgr9/ELJypyI8Kha7tqxF2YWiQXvdj16sMnMhIASEgBAQAiObgGLGjBkOg8GAxsZG9PT2wmJ1NmLx8fXD1579LvZt3+QSCH1TpdbC1BmPWuru3bGBXQ59Q6tSINFXiaYeB+p7bqKI/MjmKHcvBISAEBACQuC2IqDIyMhwBAYGore3Fy2trTckEKiZzpxFd8PPPwhb2TvtAQAABE5JREFU1n6C1pZGhkKNYjKCVXhugp5b07590iSlWW+r10UmIwSEgBAQAqOFgCI9Pd0REBAAi8WC5paWGxIIBGfa7EWIiI7lbnnU5tdlXTAA94zR4VyTDfsqpS3saHmRZJ5CQAgIASFwexFQTJw4kV0MNy8QFiIiKg5bN1wpEG4vPDIbISAEhIAQEAKjk4AiJyfH4e7uflMCgWohzJx3F0LCIrFl/SdoaWq4gp50fhudL5PMWggIASEgBG4fAp/LxeDu4Yk7Ft8Ph92OHZtXobOj3UVErwbGBqnQ1ANcbLPdPqRkJkJACAgBISAERhEBxYQJExw+Pj4wGo03FIOg0WqRkj4ek6bP5VoIxw/vh9VqcSFL9FPiB5MNWH/egjXFzvoKMoSAEBACQkAICIGRRUAxa9Ysh1qtRmdnJ9o7OgCFgmMLwiJjMHX2Amxdu9KV5qjTG5CemYNx4yehpbkBe7dvRHPT5QBFpQJYnKDF1Cg1Xj1iRGWHpDmOrNdB7lYICAEhIASEgJOAIjs720H/oCBFk9nMlRTHZU9GdEwil1bev3szSs8X8sEenl7ImTwLVpsVhWdOoKmh9ooiSRR78O1cPVqNwDunjLDxmWUIASEgBISAEBACI43ANb0YqJqih6c39HoDz6W9vRUmYy//W6VSw93DA0ZjL8wm0zVzVSiA8cEqNPQ4xHow0t4EuV8hIASEgBAQAv0I3HQ3x6HokRXB7qDODTKEgBAQAkJACAiBkUrglguEkQpC7lsICAEhIASEgBC4TEAEgrwNQkAICAEhIASEwDUErhAIwkcICAEhIASEgBAQAkRABIK8B0JACAgBISAEhIBYEOQdEAJCQAgIASEgBIYmIBaEoRnJEUJACAgBISAERh0BEQij7pHLhIWAEBACQkAIDE1ABMLQjOQIISAEhIAQEAKjjoAIhFH3yGXCQkAICAEhIASGJiACYWhGcoQQEAJCQAgIgVFHQATCqHvkMmEhIASEgBAQAkMTEIEwNCM5QggIASEgBITAqCMgAmHUPXKZsBAQAkJACAiBoQmIQBiakRwhBISAEBACQmDUERCBMOoeuUxYCAgBISAEhMDQBEQgDM1IjhACQkAICAEhMOoIiEAYdY9cJiwEhIAQEAJCYGgCIhCGZiRHCAEhIASEgBAYdQREIIy6Ry4TFgJCQAgIASEwNAERCEMzkiOEgBAQAkJACIw6AiIQRt0jlwkLASEgBISAEBiagAiEoRnJEUJACAgBISAERh0BEQij7pHLhIWAEBACQkAIDE1ABMLQjOQIISAEhIAQEAKjjoAIhFH3yGXCQkAICAEhIASGJiACYWhGcoQQEAJCQAgIgVFHQATCqHvkMmEhIASEgBAQAkMTEIEwNCM5QggIASEgBITAqCMgAmHUPXKZsBAQAkJACAiBoQmIQBiakRwhBISAEBACQmDUERCBMOoeuUxYCAgBISAEhMDQBP4/11+e310fuyIAAAAASUVORK5CYII=;" vertex="1" parent="WIyWlLk6GJQsqaUBKTNV-1">
          <mxGeometry x="920" y="671.5" width="520" height="477" as="geometry" />
        </mxCell>
      </root>
    </mxGraphModel>
  </diagram>
</mxfile>
